<svg xmlns="http://www.w3.org/2000/svg" xmlns:xlink="http://www.w3.org/1999/xlink" version="1.1" x="0px" y="0px" viewBox="0 0 100 125"><path d="M664,250 l-353,0 l177,288 Z M453,999 c79,2,142,-70,144,-142 c2,-81,-68,-144,-144,-144 c-74,0,-142,61,-141,144 c1,77,64,140,141,142 Z M919,471 l-257,0 l0,258 l257,0 Z M200,0 l49,0 c51,0,51,0,51,50 c0,50,0,50,-51,50 l-49,0 c-63,0,-100,37,-100,100 l0,49 c0,51,0,51,-50,51 c-50,0,-50,0,-50,-51 l0,-49 c0,-133,67,-200,200,-200 Z M938,0 l62,0 c133,0,200,67,200,200 l0,49 c0,51,0,51,-50,51 c-50,0,-50,0,-50,-51 l0,-49 c0,-63,-37,-100,-100,-100 l-49,0 c-51,0,-51,0,-51,-50 c0,-50,0,-50,38,-50 Z M50,900 c50,0,50,0,50,51 l0,49 c0,63,37,100,100,100 l49,0 c51,0,51,0,51,50 c0,50,0,50,-51,50 l-49,0 c-133,0,-200,-67,-200,-200 l0,-49 c0,-51,0,-51,50,-51 Z M1150,900 c50,0,50,0,50,51 l0,49 c0,133,-67,200,-200,200 l-49,0 c-51,0,-51,0,-51,-50 c0,-50,0,-50,51,-50 l49,0 c63,0,100,-37,100,-100 l0,-49 c0,-51,0,-51,50,-51 Z M1150,900 " fill="#000000" stroke="none" stroke-dasharray="none" stroke-linecap="inherit" stroke-linejoin="inherit" stroke-width="1" transform="matrix(0.05,0.0,0.0,-0.05,20.0,80.0)"/><text x="0" y="115" fill="#000000" font-size="5px" font-weight="bold" font-family="'Helvetica Neue', Helvetica, Arial-Unicode, Arial, Sans-serif">Created by Thomas Helbig</text><text x="0" y="120" fill="#000000" font-size="5px" font-weight="bold" font-family="'Helvetica Neue', Helvetica, Arial-Unicode, Arial, Sans-serif">from the Noun Project</text></svg>