<svg xmlns="http://www.w3.org/2000/svg" xmlns:xlink="http://www.w3.org/1999/xlink" version="1.1" x="0px" y="0px" viewBox="0 0 65 81.25" enable-background="new 0 0 65 65" xml:space="preserve"><g><path d="M46.4,35c-1-1-2.4-1.6-3.8-1.6c-0.4,0-0.7,0-1.1,0.1l-2.9-2.9c1.9-2.6,3.1-5.6,3.5-9l-1.5-0.2c-1.1,8.9-8.6,15.6-17.6,15.6   c-9.8,0-17.7-8-17.7-17.7c0-9.8,8-17.7,17.7-17.7c9.1,0,16.6,6.8,17.6,15.8l1.5-0.2C41.1,7.5,32.9,0.1,23.1,0.1   C12.5,0.1,3.9,8.8,3.9,19.4s8.6,19.2,19.2,19.2c4.2,0,8.1-1.4,11.3-3.7l2.8,2.8c-0.1,0.4-0.1,0.7-0.1,1.1c0,1.4,0.6,2.8,1.6,3.8   l9.1,9.1c1,1,2.4,1.6,3.8,1.6c1.4,0,2.8-0.6,3.9-1.6c2.1-2.1,2.1-5.6,0-7.7L46.4,35z M53.3,44l-5.6,5.6l-2.3-2.3l5.6-5.6L53.3,44z    M35.6,34c0.8-0.7,1.5-1.4,2.1-2.1l2.3,2.3c-0.4,0.2-0.9,0.5-1.3,0.9c-0.4,0.4-0.6,0.8-0.9,1.2L35.6,34z M38.6,38.9   c0-1,0.4-2,1.2-2.8c0.7-0.7,1.7-1.1,2.8-1.1c1,0,2,0.4,2.8,1.1l4.6,4.6l-5.6,5.6l-4.6-4.6C39,40.9,38.6,39.9,38.6,38.9z M54.4,50.7   c-1.5,1.5-4.1,1.5-5.5,0l-0.1-0.1l5.6-5.6l0.1,0.1C56,46.7,56,49.2,54.4,50.7z"/><path d="M61.6,18c-1.4,0-2.6,0.9-3,2.2l-6.1,0l-2.4-10.1l-2.5,8.5l-14.1,0l-1.9,6.1L27.8,8.3l-3.3,10.2l-7,0   c-0.3-1.4-1.6-2.4-3-2.4c-1.7,0-3.1,1.4-3.1,3.1c0,1.7,1.4,3.1,3.1,3.1c1.5,0,2.7-1,3-2.4l8.1,0l1.9-6l3.8,16.5l3.3-10.4l14.1,0   l1.3-4.2l1.4,5.8l7.2,0c0.3,1.4,1.5,2.5,3.1,2.5c1.7,0,3.1-1.4,3.1-3.1C64.7,19.4,63.3,18,61.6,18z M14.5,20.8   c-0.9,0-1.6-0.7-1.6-1.6s0.7-1.6,1.6-1.6c0.9,0,1.6,0.7,1.6,1.6S15.4,20.8,14.5,20.8z M61.6,22.7c-0.9,0-1.6-0.7-1.6-1.6   s0.7-1.6,1.6-1.6c0.9,0,1.6,0.7,1.6,1.6S62.5,22.7,61.6,22.7z"/><path d="M21.8,42c-1.5-0.4-3-0.6-4.5-0.6c-0.1,0-0.2,0-0.3,0c-0.1,0-0.2,0-0.3,0c-1.5,0-3,0.2-4.5,0.6C5.7,43.7,1,48.5,0.8,48.7   l-0.5,0.5l0.5,0.5c0.1,0.1,2.6,2.6,6.4,4.7c3.3,1.8,6.6,2.7,9.8,2.7c3.2,0,6.5-0.9,9.8-2.7c3.8-2.1,6.3-4.6,6.4-4.7l0.5-0.5   l-0.5-0.5C33.1,48.5,28.4,43.7,21.8,42z M17,55.6c-3.5,0-6.4-2.9-6.4-6.4c0-3.5,2.8-6.3,6.2-6.4c0.1,0,0.3,0,0.4,0   c3.4,0.1,6.2,2.9,6.2,6.4C23.4,52.7,20.6,55.6,17,55.6z M2.4,49.2c1.3-1.1,4.6-3.8,8.8-5.3c-1.3,1.4-2.1,3.3-2.1,5.3   c0,2.1,0.8,3.9,2.1,5.3c-1.1-0.4-2.2-0.9-3.3-1.5C5.3,51.7,3.4,50,2.4,49.2z M26.1,53.1c-1.1,0.6-2.2,1.1-3.3,1.5   c1.3-1.4,2.1-3.3,2.1-5.3c0-2.1-0.8-3.9-2.1-5.3c4.2,1.5,7.5,4.2,8.8,5.3C30.7,50,28.8,51.7,26.1,53.1z"/><path d="M17,46.7c-1.4,0-2.5,1.1-2.5,2.5c0,1.4,1.1,2.5,2.5,2.5c1.4,0,2.5-1.1,2.5-2.5C19.5,47.8,18.4,46.7,17,46.7z M17,50.2   c-0.5,0-1-0.4-1-1c0-0.5,0.4-1,1-1c0.5,0,1,0.4,1,1C18,49.7,17.6,50.2,17,50.2z"/><rect x="16.3" y="60" width="1.5" height="4.8"/><rect x="10.1" y="58.7" transform="matrix(-0.9061 -0.4231 0.4231 -0.9061 -5.1325 121.0298)" width="1.5" height="4.8"/><rect x="20.8" y="60.3" transform="matrix(-0.4226 -0.9063 0.9063 -0.4226 -22.317 107.9513)" width="4.8" height="1.5"/></g><text x="0" y="80" fill="#000000" font-size="5px" font-weight="bold" font-family="'Helvetica Neue', Helvetica, Arial-Unicode, Arial, Sans-serif">Created by Creative Stall</text><text x="0" y="85" fill="#000000" font-size="5px" font-weight="bold" font-family="'Helvetica Neue', Helvetica, Arial-Unicode, Arial, Sans-serif">from the Noun Project</text></svg>