<svg version="1.1" id="logo" xmlns="http://www.w3.org/2000/svg" xmlns:xlink="http://www.w3.org/1999/xlink" x="auto" y="30px"
	 viewBox="0 0 182.7 27" style="enable-background:new 0 0 182.7 27;" xml:space="preserve">
<g id="SvgjsG1009" transform="translate(-2.162003993988037,-13.804000854492188)" xmlns:name="mainText_mainfill">
	<path class="st0" d="M15.6,13.7c2.4,0,4.6,0.6,6.6,1.7s3.7,2.7,4.8,4.7c1.2,2,1.7,4.2,1.7,6.5c0,2.4-0.5,4.5-1.6,6.4
		c-1.1,1.9-2.5,3.2-4.3,4v0.1h7.7v3.1H15.5c-3.7,0-6.9-1.3-9.4-3.8s-3.9-5.7-3.9-9.4c0-2.4,0.6-4.7,1.7-6.7s2.8-3.7,4.9-4.8
		C10.8,14.3,13.1,13.7,15.6,13.7z M5.9,26.8c0,2.9,0.9,5.3,2.7,7.3c1.8,2,4.1,3,6.9,3c2.8,0,5.1-1,6.9-2.9c1.8-1.9,2.7-4.4,2.7-7.3
		c0-2.8-0.9-5.2-2.7-7S18.2,17,15.4,17c-2.6,0-4.9,0.9-6.7,2.8C6.8,21.7,5.9,24,5.9,26.8z M37.3,14.4v16c0,2.1,0.6,3.9,1.8,5.2
		c1.2,1.4,2.8,2.1,4.7,2.1c2,0,3.6-0.7,4.7-2.1c1.2-1.4,1.8-3.1,1.8-5.2v-16h3.5V31c0,1.8-0.4,3.4-1.3,5c-0.8,1.6-2,2.8-3.6,3.7
		c-1.6,0.9-3.3,1.3-5.2,1.3c-2.9,0-5.3-1-7.2-2.9c-1.9-1.9-2.8-4.3-2.8-7.1V14.4C33.8,14.4,37.3,14.4,37.3,14.4z M72,13.7
		c3.9,0,7.1,1.3,9.7,3.8c2.6,2.6,3.9,5.8,3.9,9.8c0,2.5-0.6,4.8-1.7,6.9c-1.1,2.1-2.8,3.7-4.9,4.9C76.8,40.4,74.5,41,72,41
		c-2.5,0-4.8-0.6-6.9-1.8c-2.1-1.2-3.7-2.8-4.9-4.9s-1.8-4.4-1.8-6.9c0-3.9,1.3-7.1,3.8-9.7C64.8,15,68,13.7,72,13.7L72,13.7z
		 M62.2,27.4c0,2.9,0.9,5.4,2.7,7.4c1.8,2,4.2,3,7,3c2.8,0,5.1-1,7-2.9c1.9-2,2.8-4.4,2.8-7.4c0-3-0.9-5.4-2.7-7.4
		c-1.8-2-4.2-2.9-7.1-2.9c-2.8,0-5.1,1-7,2.9C63.1,21.9,62.2,24.4,62.2,27.4z M99.2,14.4c2.8,0,5.2,0.6,7.2,1.7
		c2,1.1,3.6,2.7,4.7,4.7c1.1,2,1.6,4.2,1.6,6.6c0,2.4-0.6,4.6-1.8,6.6c-1.2,2-2.9,3.5-5,4.7c-2.1,1.1-4.5,1.7-7.2,1.7h-8.7V14.4
		C89.9,14.4,99.2,14.4,99.2,14.4z M98.1,37c2,0,3.8-0.4,5.4-1.2c1.6-0.8,3-1.9,3.9-3.3s1.4-3.2,1.4-5.2c0-2.9-0.9-5.3-2.7-7
		s-4.2-2.6-7.2-2.6h-5.5V37C93.5,37,98.1,37,98.1,37z M134.4,14.4v3.3h-13.2v7.7h12.3v3.3h-12.3V37h13.9v3.3h-17.4V14.4H134.4z
		 M149.4,14.4c2.5,0,4.5,0.6,6,1.9c1.4,1.3,2.2,3.1,2.2,5.3c0,1.7-0.6,3.2-1.8,4.5c-1.2,1.3-2.7,2.1-4.6,2.3h0l7.4,11.8h-4.4
		l-6.6-11.4h-3.9v11.4h-3.5V14.4C140.1,14.4,149.4,14.4,149.4,14.4z M148.3,25.8c1.8,0,3.2-0.3,4.1-1c0.9-0.7,1.3-1.7,1.3-3.2
		c0-2.8-1.8-4.2-5.4-4.2h-4.8v8.4H148.3z M173.8,14.4l11.1,25.9h-4.1l-2.6-6.4h-12.3l-2.6,6.4h-4.1l11.4-25.9H173.8L173.8,14.4z
		 M167.1,30.8h9.8L172,18.9H172L167.1,30.8z"/>
</g>
</svg>
