<svg xmlns="http://www.w3.org/2000/svg" viewBox="0 0 194.53 112.39" id="arrow-right-crayon">
  <g>
    <g><path class="arrow-right-crayon-path" d="M193.07,68.72c-.29-.07-.19.77-.23.92C193.32,69.45,193.06,68.51,193.07,68.72Z" transform="translate(-1 -2.11)"/><polygon class="arrow-right-crayon-path" points="189.74 58.69 189.83 58.35 189.11 59.16 189.74 58.69"/><path class="arrow-right-crayon-path" d="M186.36,60.58c.33,1.45,1.6-.13,2.35.4l.12.33.4-1.13C188.28,60.33,187,61,186.36,60.58Z" transform="translate(-1 -2.11)"/><path class="arrow-right-crayon-path" d="M184.23,57.35c.1.57-.53.44.53.21a1.51,1.51,0,0,1-.09-.14A1.57,1.57,0,0,1,184.23,57.35Z" transform="translate(-1 -2.11)"/><path class="arrow-right-crayon-path" d="M184.67,57.42c.46,0-.27-.49,0,0Z" transform="translate(-1 -2.11)"/><path class="arrow-right-crayon-path" d="M182.54,57.59l.63-.46c-.1-.33-.62-.44-.41-.67C182.13,56.69,182.23,57,182.54,57.59Z" transform="translate(-1 -2.11)"/><path class="arrow-right-crayon-path" d="M181.88,58.58l.33-.19C182.17,58.25,182.09,58.2,181.88,58.58Z" transform="translate(-1 -2.11)"/><path class="arrow-right-crayon-path" d="M182.91,58l-.7.39c.07.24,0,.7.32-.13C182.44,58.68,182.61,58.28,182.91,58Z" transform="translate(-1 -2.11)"/><path class="arrow-right-crayon-path" d="M183.27,58.24c.32.34.74.56.1,1C184.54,59.14,184.44,58.13,183.27,58.24Z" transform="translate(-1 -2.11)"/><path class="arrow-right-crayon-path" d="M186.05,62l.43.44.43-.45C186.69,62.25,186,61.59,186.05,62Z" transform="translate(-1 -2.11)"/><path class="arrow-right-crayon-path" d="M178.84,56.54a7.26,7.26,0,0,0,.14,1.21l.48-.3C179.25,57.22,178.83,57,178.84,56.54Z" transform="translate(-1 -2.11)"/><path class="arrow-right-crayon-path" d="M179,57.75l-.72.46C178.86,58.33,179,58.09,179,57.75Z" transform="translate(-1 -2.11)"/><polygon class="arrow-right-crayon-path" points="180.65 58.04 181.84 57.03 180.44 58.03 180.65 58.04"/><polygon class="arrow-right-crayon-path" points="175.29 54.15 175.74 53.49 174.96 54.48 175.29 54.15"/><path class="arrow-right-crayon-path" d="M174.58,56.22c.34-.55-.29-1,0-1.35a2.69,2.69,0,0,0-1.31.93C173.71,55.59,174.11,55.69,174.58,56.22Z" transform="translate(-1 -2.11)"/><path class="arrow-right-crayon-path" d="M172.64,56.39a3.77,3.77,0,0,0,.67-.59A1.94,1.94,0,0,0,172.64,56.39Z" transform="translate(-1 -2.11)"/><path class="arrow-right-crayon-path" d="M177.14,58a1.34,1.34,0,0,0-.45-.92l.18.88Z" transform="translate(-1 -2.11)"/><path class="arrow-right-crayon-path" d="M176.88,58v0l-.56-.1Z" transform="translate(-1 -2.11)"/><path class="arrow-right-crayon-path" d="M177.2,58h-.06C177.15,58,177.17,58.07,177.2,58Z" transform="translate(-1 -2.11)"/><path class="arrow-right-crayon-path" d="M180,59.24c-.43.44-1.3.88-.57,1.67C179.72,60.35,179.3,59.9,180,59.24Z" transform="translate(-1 -2.11)"/><path class="arrow-right-crayon-path" d="M177.43,59.06l.7.26c0-.23-.09-.57.12-.78Z" transform="translate(-1 -2.11)"/><polygon class="arrow-right-crayon-path" points="176.06 57.19 176.43 56.95 176.17 56.85 176.06 57.19"/><path class="arrow-right-crayon-path" d="M173.79,57.31a1.42,1.42,0,0,1-1.08.36,3.27,3.27,0,0,0,1.21.38C174,57.79,174.23,57.32,173.79,57.31Z" transform="translate(-1 -2.11)"/><path class="arrow-right-crayon-path" d="M175.28,57.7l-.07,0C175.24,57.81,175.28,57.84,175.28,57.7Z" transform="translate(-1 -2.11)"/><path class="arrow-right-crayon-path" d="M168.94,57.26l0,.17,0-.15Z" transform="translate(-1 -2.11)"/><path class="arrow-right-crayon-path" d="M174,58.21c.29.2.5,0,.7-.24a2.09,2.09,0,0,1-.75.08C173.88,58.17,173.87,58.25,174,58.21Z" transform="translate(-1 -2.11)"/><path class="arrow-right-crayon-path" d="M171.55,56.68a3.43,3.43,0,0,0,.49.52C171.91,56.92,171.63,56.46,171.55,56.68Z" transform="translate(-1 -2.11)"/><path class="arrow-right-crayon-path" d="M175.13,57.49l.05,0C175.1,57.27,175.1,57.36,175.13,57.49Z" transform="translate(-1 -2.11)"/><path class="arrow-right-crayon-path" d="M175.13,57.49a2.34,2.34,0,0,0-.46.48,1.73,1.73,0,0,0,.54-.23A1.47,1.47,0,0,1,175.13,57.49Z" transform="translate(-1 -2.11)"/><path class="arrow-right-crayon-path" d="M167.21,62.6c.14-.78,1-1.43,1.64-.51.76-.51.58-3.15.13-4.66,0,.34-.09.65-.85,1,.2.46,1.47,1.18.8,1.83-1,.3-.75-.36-1.16-.83.28,1-1.35,1.3-1.3,2.76l.88-.41C167.34,62,167,62.37,167.21,62.6Z" transform="translate(-1 -2.11)"/><path class="arrow-right-crayon-path" d="M170.33,57.65l.3-.07c-.32-.17-.52-.51-.9-1.17a1.4,1.4,0,0,0-.72.87l1.43.26Z" transform="translate(-1 -2.11)"/><path
      class="cls-1"
      d="M171.94,57.72c-.32.83-1.06,1.12-.72,2.09.86,0,.67-.65,1.22-1-1.4.07.45-.43-.5-1a2.13,2.13,0,0,1,.77-.15,3.85,3.85,0,0,1-.67-.47l0,.06h0v0c.05.11.06.18,0,.11h0a1.5,1.5,0,0,1-.1.32c-.38-.22,0-.23.1-.32l0-.12h0l-1.43.32A2.57,2.57,0,0,0,171.94,57.72Z"
      transform="translate(-1 -2.11)"/><path class="arrow-right-crayon-path" d="M178.48,62.69a.38.38,0,0,1,0-.2C178.35,62.59,178.31,62.66,178.48,62.69Z" transform="translate(-1 -2.11)"/><path class="arrow-right-crayon-path" d="M178,62.12c.12-.11.23-.44.55-.33.26.29,0,.42-.05.7.22-.21.75-.55.17-1l-.11.11c-.53-.34-1.15-1.48-1-1.59A7.86,7.86,0,0,0,178,62.12Z" transform="translate(-1 -2.11)"/><path class="arrow-right-crayon-path" d="M174.88,60.14l-1.2.31.51.8,0-.45C174.85,61,174.76,60.48,174.88,60.14Z" transform="translate(-1 -2.11)"/><polygon class="arrow-right-crayon-path" points="167.85 54.71 168.1 53.82 167.3 55.03 167.85 54.71"/><polygon class="arrow-right-crayon-path" points="166.34 54.66 166.48 53.88 166.03 54.31 166.34 54.66"/><path class="arrow-right-crayon-path" d="M81.15,57.21l-.37.18A1.27,1.27,0,0,0,81.15,57.21Z" transform="translate(-1 -2.11)"/><path class="arrow-right-crayon-path" d="M83.67,57.62l.11-.38C83.64,57.44,83.57,57.59,83.67,57.62Z" transform="translate(-1 -2.11)"/><path class="arrow-right-crayon-path" d="M130.35,53.38c-.4-.79-.81-2-.86-1.11l0,.88A.74.74,0,0,1,130.35,53.38Z" transform="translate(-1 -2.11)"/><path class="arrow-right-crayon-path" d="M104.5,55.19l.11.27.43-.78Z" transform="translate(-1 -2.11)"/><path class="arrow-right-crayon-path" d="M103.76,58.72l-.59-.63A2.27,2.27,0,0,0,103.76,58.72Z" transform="translate(-1 -2.11)"/><path class="arrow-right-crayon-path" d="M67.7,56.45l-.51.83C67.81,57.35,67.6,56.87,67.7,56.45Z" transform="translate(-1 -2.11)"/><path class="arrow-right-crayon-path" d="M151.77,55.51a2.32,2.32,0,0,0-1-.61C151.21,55.44,151.57,56.22,151.77,55.51Z" transform="translate(-1 -2.11)"/><path class="arrow-right-crayon-path" d="M83.48,48.24a.59.59,0,0,0-.36.48C83.35,48.6,83.49,48.45,83.48,48.24Z" transform="translate(-1 -2.11)"/><path class="arrow-right-crayon-path" d="M149.47,54.8c.07.09.14.14.21.22a1.77,1.77,0,0,1,1-.12C150.37,54.5,149.94,54.24,149.47,54.8Z" transform="translate(-1 -2.11)"/><path class="arrow-right-crayon-path" d="M19.15,53s-.07-.06-.1-.11C19,53.05,19.08,53.05,19.15,53Z" transform="translate(-1 -2.11)"/><path class="arrow-right-crayon-path" d="M5.15,43.92a2,2,0,0,1,.59-.07C5.64,43.79,5.46,43.8,5.15,43.92Z" transform="translate(-1 -2.11)"/><path class="arrow-right-crayon-path" d="M161.31,55.74c.33,0,.06-.09,0,0Z" transform="translate(-1 -2.11)"/><path class="arrow-right-crayon-path" d="M162.51,59.32a.75.75,0,0,0-.18.41A.87.87,0,0,1,162.51,59.32Z" transform="translate(-1 -2.11)"/><path class="arrow-right-crayon-path" d="M145.86,60h0C145.91,60.13,145.9,60.09,145.86,60Z" transform="translate(-1 -2.11)"/><path class="arrow-right-crayon-path" d="M161.75,56.19a1.23,1.23,0,0,0-.38-.3A1.88,1.88,0,0,0,161.75,56.19Z" transform="translate(-1 -2.11)"/><path class="arrow-right-crayon-path" d="M161.73,55.77l.27.11C162.06,55.74,162,55.65,161.73,55.77Z" transform="translate(-1 -2.11)"/><path class="arrow-right-crayon-path" d="M160.86,55.74a1.31,1.31,0,0,1,.51.15q-.09-.11-.06-.15Z" transform="translate(-1 -2.11)"/><path class="arrow-right-crayon-path" d="M45.72,51.35a.28.28,0,0,1-.06-.08C45.33,51.63,45.47,51.57,45.72,51.35Z" transform="translate(-1 -2.11)"/><path class="arrow-right-crayon-path" d="M120.94,61.27l0,0,0,0Z" transform="translate(-1 -2.11)"/><path class="arrow-right-crayon-path" d="M119.7,61.76c.64-1,.9-.84,1.24-.56l0-2.53Z" transform="translate(-1 -2.11)"/><path
      class="cls-1"
      d="M75.27,56.72l.69.87c-1.15,1.15-1.78.63-1.19,1.81.5-2.68,3.13.11,3.64-2.56l.44.63c-.15,0-.2.11-.34.06.83,1.42,1-1.85,2.31-1.3.43.27.69.7.33,1,.37-.19.77-.35,1.15-.52a.24.24,0,0,1-.14.46H83.8l0,.08A9.88,9.88,0,0,1,85,56c.36.44-.24.26-.18.61l1-.54c.28.74-.54,1.33-1.15,1.15.5,2.8.83-.59,2.43,1.21l-.88.24c.36,1.6,1.09,1.12,1.94,2.18-.18-.53-1.64-2.62-.59-3.19.25.24.6.38,1.18-.11-.1,1,.43.78,1.07.8l-.18,1.26c.73-.29.74-.94,1.2-1.47.75.2.81,1.2.91,2.05,1.2.32-.69-1.67.78-1.76,1,.58,1.73.13,3-.52.66.51-.2.77,0,1.16l.72-1c.15,0,.07.35,0,.51.56-.35.17-1.27,1-1.54.36-1.38,1.5,2.21,2.66.72.22.38-.19.76-.17,1.26a7.87,7.87,0,0,0,2.55-1.93l.88.94c-.61-1,.42-2.06,1.33-2.9a11.76,11.76,0,0,0-.51-1.13l1.37-.54c.13.23,0,.65-.32,1.16l.27-.28c.41.52.08,1.23-.32,1.9l-.38-.84a5.46,5.46,0,0,0-.8,2.32.84.84,0,0,1,.45-.3.9.9,0,0,0-.15.51c0,.14.19-.13.43-.43l.13,1.45.13-.55,1.55,1.08C107.69,58.25,109,56.29,111,56c-.62,1-.34,1.68-.55,2.9-.33-1.37-1.52.35-2.45,0,.49.2.3.77.15,1l1.87-.95c-.18,1,.26.8.66,1.29-.06-2,1.5-1.14,2.31-1.64,0,.67-.32,1.32-1.17,1,.75,1.63,1.57-2.15,2.34-.75-.22,0-.32-.13-.45.19.58-.52,1.73.12,1.36.66h-.21c1.38.43,4.31.62,4.75-1a21.54,21.54,0,0,1-.59,2.33l3.29-5.33c-.42,1.42,0,5-1.31,5.64a1.14,1.14,0,0,0,1.48.14c-.2-.24-.29-2.18,0-2.27.65,1.73.48.95,1.37,2.46-.3-.36.38-2.58.91-2.44a17.32,17.32,0,0,1-.47,2.46l1.65-2c-.39.36-.3,1.88-.08,2.55-.08-.45,1.18.19,1.57,0l-.51-.59c1.5.53,1.9-3,3.4-2.66-.23.44-.78,2.79,0,3.16.5-1.1,2.21-5.32,3.63-6.06l.19.68,1.1-.64a39.27,39.27,0,0,1-4.17,6.39c.52.58.08.79.95.83.24.64-.57.87-.83.88l2,.62c.06-1.35,1.7-1.18,1.74-2.3l-2.35,1.15c.06-1.34,1.67-3.65,3.07-3.27.31.57-.51,2.35-.53,2.8.24-.44,1.45-.74,1.55-.41l-.68.66c.76.59,1.48-1.65,2.32-.28.32.12.84,1.81,1,1a20.58,20.58,0,0,1,.37-7.43A12.06,12.06,0,0,1,141.5,59c.45,1.24-1.05,2.79-.67,3.86a2.06,2.06,0,0,1,.53-.93c.32.34-.24,1.13.53,1,.24-1.35,1.53.23.45-1.12.77-.33.76.34,1.64.34-.21-.89,1-2.93,1.74-3.27a2.38,2.38,0,0,0,.14,1c1.49.24,2.25.9,3.65,1,.1.34.74.79.4,1.35.22-.22.44-.67.88-.66.73,1.24-1,.1-.46,1.56.12-.78,1.2-1,1.86-1.43-.08-1.24-1.4-.36-2.05.09a5,5,0,0,1,2.9-4c1.2-.31.4,1.14.63.92,2.16.49,2.15-2.76,3.86-1.37.61,1.14-.19,2.13-.1,2.92-1,.31-1.39-.82-2-.84l.74.58c-.33.33-1,.53-1.3.19.5,1,3.66.55,5.25,1.62.34-.33.89-.65.69-1.1l-.54.09c-.4-.91,1.12-1.09.49-1.56.78-.53,1.69-1.4,2.64-.8l.06,1.24c0-.36-.58-.8-.9-.46.47-.49,1.36,1.82,2,.27l-.61-.92c.78-.54,1.81-1.74,2.65-1.25-.27-1.25-.22.11-.7-1.37.36,1.82-2.27-.32-1.58,1.62-.48-1.7-1.05-.81-1.76-2.3,0,.41.22.8-.51.52a1.39,1.39,0,0,1-.2.34l-.05,0,0,.05s0,.07,0,0a1.33,1.33,0,0,1,.32.65c-.47.88-1.66.73-2.11,1.16-.43-.23.23-.44,0-.89l-.68.65c0-.9-1-1.61.08-2l-.95-.14a1.48,1.48,0,0,0-1.77-.51c-.43-.23-1.23.88-.77.22l-1.55.41v-.22c-1.47-.26-3.16,1.2-4.73-.55a2.33,2.33,0,0,1-1.87.11l-.11-.78c-.67.22-1.89-.92-2.19-.13-.52-2.12-3-.66-4-1.13l-.13,1a5.36,5.36,0,0,0-2.45.42l0,.9c-.87.66-2-.83-3.29-.86.12-.34.43-.22.64,0-1.3-2.16-3.36,1.13-4.58-.49a.54.54,0,0,1-.84-.11.14.14,0,0,0,.09,0,.26.26,0,0,0-.14,0c-.13-.17-.27-.37-.42-.53a1.85,1.85,0,0,0,.35.52,2.74,2.74,0,0,0-1.11.23l-.05-1-.09,0c-.35-.4-.37.41-.25,1.16a2.19,2.19,0,0,0-.59.51c-.13-1.58-1.1.4-1.33-1.3-.37.77-2.06.35-2.49,2,0-.22-.09-.34.13-.33-.42-.25-.83-.5-1.29-.07l0-1.24-1.18,1.5c-.49-.81-.67-1.28,0-2.13-1.59,1.24-1.21.38-2.6,1.65l.17-.78c-.43,0-1.26.93-1.43.24-.74-1.62-4.7-.87-7-2.61.15,2.38-1-1.19-1.37.58-.07-.56-.38-.92.1-1.34-1.37.35-1.84-1.12-2.92.27-.08-.56.38-.76.29-1.1-.12.1-.47.42-.57.08s.25-.44.48-.65c-1.33-.07-1.66,1.61-1.93,3.18-.58-.83-.92-.75-1.51.23-.17-.54-.5-1.12.33-1.22-.44-.13-2.7-1.06-2.87.21-.11-.33-.63-.15-.76,0a7.19,7.19,0,0,0-2.09-.27l.25.23c-.54,1.5-.86.26-1.68.37l0-.15c-1.73-1.28-.84.45-2.53-1v1c-.37,2-1.48-1.36-2.6-.68l.32.58c-.64.64-1.31-3-1.84-3.27-.11-.19.22-.27.41-.38-1.35-1.37-.33,1.23-1.47,1.4-.13-.7.45-1.68-.27-1.89-.3-.58-2.4,1.94-3.25.52.16.54.31,1.09-.25,1.41-.81.09-1.83-2.23-2.76-.71a.67.67,0,0,1-.08-.42c-.65.33-2.09.44-2.59,1.27-.08-3.35-4,1.12-3.58-1.9L75,48l.09-.3c-1.18-.35-1.71.32-2.23,1-.25-.25,0-.5,0-.66-1.68-.83-1.88-.72-3.55.6l0-1c-.47.52-2.35-1.86-4.22-.93a.8.8,0,0,1,.24-.42c-2.08.91-4.34-3.32-5.47.18l-1.38.72c1.62.49-.43,1.53.19,2.21-.67.13-1.56-1.29-.74-1.38l.1.2c.51-1.83-2-.92-1.8-2.19-3.38-.27-6.65-1.45-9.8-1.57l.34,1.47-1.09-.1c-.28-.35-.37-1.15.41-1.08-.41-.84-1.32.68-1.34,1-1.51-.6.6-1.7.14-1.74l-.64.1.15.18c-.52.59-.56,1.23-1.49,1.16-.59-.3-.3-.91-.54-1,0-.11-.07-.15-.35,0l-1.36-.12.55,1.15c-.6.57-1.27-.05-.64,1.25-.93-2-5-.68-5.57-1.32a2.78,2.78,0,0,1-2.65.71c.25.24.38,1.54-.49,1.37.37-2.67-1.57-1.2-2.2-3.15.58,1.31-2.46.21-1.56,2.07-.72-.25,0-1-.52-1.66-1.77,1-3.75-.89-5.93-.68-.06.35.27.91-.23,1.41l-1-1.83c-.45.14-.52,2-1.24.73.1.31.24.76-.06.85-2.08-1-4.31-.75-6.54-.65a15.75,15.75,0,0,1-3.36-.11A7.49,7.49,0,0,1,6,43.08c.58.68.2.75-.25.77.29.16,0,.87,0,1.35L4,43.87c-.33,1.32-1.93.09-2.12,1.36L2.44,45c-.76,1.49,1.06,3.32,1,5.23.84-1.7,2.24,2.52,3.64.09.31.39-.26.62-.1,1.06.35-.82.78-1,1.57-.62l-.08.2c2.21-.2,3.08.61,5.49,1.24l-.14-1c.52.14.62.44.85.69.67-1.41-1.47-.14-.86-1.7.62,1.94,3.73.2,4.09,2.42.81.06-.18-1.11.64-1l.18.6.25-.75c.53.16.75.92.74,1.42-.12-.07-.38.12-.52.15.65.74,2-.11,2.21.13l-.77-.42c2.27-.41,5,.55,7.3-.56l-.15-.45c1.73-.75,1.34.55,3.23.23l-.07.1a1.58,1.58,0,0,1,1.39-.59c-.48.51.87,1,.25,1.6,1.85-.87.92-.69,2.13-2.34l.28.74c.41-.67.44-1,1.36-1.22-.75.64.59,1.13-.25,2,1.94,1.62,2.85-1.65,3.74.72.86-2.06-1.67-1.13-1.18-1.58-.41-.66.72-1.53,1.32-1.33.61,0,1.06,2.61,2.58,2.57-.15,0-.16.14-.31.14.57.52,1.11-.71,1.81.13.39-1.24.9.08,1-1.5l-1.39.36c.78-.41,1.54-2.26,2.84-1.35a2.82,2.82,0,0,1-.77,1c.38.47.74-.29,1.12.19-.13,1.58-1.68.32-2.53,1.53.4.67,1.59-1.14,1.16.57.63-2.17,1.47.3,2.51-1.35l-.09,1c.16-.14.5-.58.8-.55l-.57,1.22c.85-1,1.53,1,2.31.42-1.61,0-.31-1.15-1-1.87,2.08-1.19,1,2.52,3.25,2.2-.3.11-1.07-.64-.58-1a2.61,2.61,0,0,1,1.15,1.15c1.45-.08-.14-1,.52-1.53.4,1.2.76-.4,1.45-.7l-.1,1c1.65.82.67-2,2.16-1l-.81,1.25.85-.25-.29,1.07c1-.69,1.23-.45,2.07,0-.13-.71.31-1.73,1.09-1.66.46.63-.4.87.7.87-.31.57-.67,1.29-1,.35-.09.3-.32.57-.4.87.49.72,1.4.33,1.8.37a.69.69,0,0,1-.4-.28l1.74-1.13c.2.39,0,.66-.26.91.33-.06.61-.47,1.09-.49-.22.76-.28,1.57-1,1.85l1.61-.68c.06.35.65,1,.42,1.29.78.56,2.24-1.25,3.27-.51a.76.76,0,0,1,.46-.35c1,.3,1.81,1.37,3.19.46l.51,1.48c1-.19-.71-1.87,1-2.2,1.2-.3.26,1.24.61,1.68.66-.63,1.85-1.93,2.73-.67C75.85,56.9,75.61,56.66,75.27,56.72Zm12.21.94c-.26.18-.81.74-.92.16C87,56.75,87.11,57.3,87.48,57.66Zm18.57-.43c-.21.3-.46.11-.72-.29A.72.72,0,0,1,106.05,57.23Zm51.65-1.07,0,0C157.19,55.78,157.36,55.94,157.7,56.16Zm1.05.53a.41.41,0,0,0,.1-.4c-.1.24-.35.23-.62.13C158.28,56.68,158.4,56.87,158.75,56.69ZM42.3,44.85l.22.26C42,45.39,42.17,45.13,42.3,44.85Z"
      transform="translate(-1 -2.11)"/><path class="arrow-right-crayon-path" d="M103.85,58.31a1.57,1.57,0,0,1,0-.53A.39.39,0,0,0,103.85,58.31Z" transform="translate(-1 -2.11)"/><path class="arrow-right-crayon-path" d="M67.79,56.3l0,0a.58.58,0,0,0-.06.17Z" transform="translate(-1 -2.11)"/><path class="arrow-right-crayon-path" d="M141.23,63.43a1,1,0,0,1-.4-.53C140.8,63.13,140.88,63.34,141.23,63.43Z" transform="translate(-1 -2.11)"/><path class="arrow-right-crayon-path" d="M164.68,55.66l-.72.18c.34,0,.43.21.59.38C164.56,56,164.46,55.66,164.68,55.66Z" transform="translate(-1 -2.11)"/><path class="arrow-right-crayon-path" d="M170,62.25c.12-.11.22,0,.33-.1l0-.45C170,61.68,169.62,62,170,62.25Z" transform="translate(-1 -2.11)"/><path class="arrow-right-crayon-path" d="M165,58.92c0,.81.43.59.93.49h-.08C166.08,58.29,165.53,58.61,165,58.92Z" transform="translate(-1 -2.11)"/><path class="arrow-right-crayon-path" d="M166,59.39a1,1,0,0,1,.45,0C166.58,59,166.3,59.31,166,59.39Z" transform="translate(-1 -2.11)"/><path class="arrow-right-crayon-path" d="M160.19,56.29c.21.24.25-1,.35-.67C160.9,54.62,158.86,56.7,160.19,56.29Z" transform="translate(-1 -2.11)"/><polygon class="arrow-right-crayon-path" points="164.08 59.51 164.01 58.5 163.65 59.27 164.08 59.51"/><path class="arrow-right-crayon-path" d="M161.33,60.48l.74.36a.37.37,0,0,1,.25-.32C161.84,60.44,161.34,60.18,161.33,60.48Z" transform="translate(-1 -2.11)"/><path class="arrow-right-crayon-path" d="M162.32,60.52a.7.7,0,0,0,.64-.1A1.59,1.59,0,0,0,162.32,60.52Z" transform="translate(-1 -2.11)"/><polygon class="arrow-right-crayon-path" points="162.99 59.7 162.78 59.46 162.24 59.33 162.99 59.7"/><path class="arrow-right-crayon-path" d="M153,59.46l-.87.2c-.12.34.09.57.42.46S153.1,59.8,153,59.46Z" transform="translate(-1 -2.11)"/><path class="arrow-right-crayon-path" d="M155.3,62.43c-.21-.23-.2-.46-.3-.8l-.14,1.24Z" transform="translate(-1 -2.11)"/><path class="arrow-right-crayon-path" d="M152.82,62.49c-.12.33-1.31.87-.24.89C152.7,63.05,153.57,62.84,152.82,62.49Z" transform="translate(-1 -2.11)"/><polygon class="arrow-right-crayon-path" points="139.19 57.81 139.41 57.82 139.55 55.78 139.19 57.81"/><path class="arrow-right-crayon-path" d="M128.36,63.6c1,.6.39-1.22,1.23-.51.3-.45-.69-.58-.39-1C128.53,62.56,128.24,62.23,128.36,63.6Z" transform="translate(-1 -2.11)"/><path class="arrow-right-crayon-path" d="M129.2,62.13a3.31,3.31,0,0,0,.34-.27A.94.94,0,0,0,129.2,62.13Z" transform="translate(-1 -2.11)"/><polygon class="arrow-right-crayon-path" points="1.78 40.71 1.14 40.28 1.55 40.97 1.78 40.71"/><path class="arrow-right-crayon-path" d="M1.54,44.33,1.39,43,1,44.21C1.15,44.15,1.43,44,1.54,44.33Z" transform="translate(-1 -2.11)"/><path class="arrow-right-crayon-path" d="M89,60.47l.08-.31c-.06-.34-.22-.39-.52-.47Z" transform="translate(-1 -2.11)"/><polygon class="arrow-right-crayon-path" points="79.16 56.25 79.3 56.3 79.2 55.1 79.16 56.25"/><path class="arrow-right-crayon-path" d="M72.7,58.94c.29.08.68-.13,1,0C73,59,72.82,57.48,72.7,58.94Z" transform="translate(-1 -2.11)"/><path class="arrow-right-crayon-path" d="M145.51,2.19c.34-.09.22-.06.27-.08Z" transform="translate(-1 -2.11)"/><path class="arrow-right-crayon-path" d="M143.35,5l-.29.18A9,9,0,0,1,144,5C143.77,5,143.56,5,143.35,5Z" transform="translate(-1 -2.11)"/><path class="arrow-right-crayon-path" d="M145.15,7.69c1-1.05-.87-1-.76-1.73l.21-.26-1.08.45C144,6.56,145.19,7,145.15,7.69Z" transform="translate(-1 -2.11)"/><path class="arrow-right-crayon-path" d="M143.63,11.11c.4-.42.66.14-.13-.53a.52.52,0,0,1-.07.15A1.38,1.38,0,0,1,143.63,11.11Z" transform="translate(-1 -2.11)"/><path class="arrow-right-crayon-path" d="M143.43,10.73c-.27-.35-.24.5,0,0Z" transform="translate(-1 -2.11)"/><path class="arrow-right-crayon-path" d="M144.8,12.23l-.73-.19c-.21.28,0,.74-.29.72C144.34,13.09,144.54,12.8,144.8,12.23Z" transform="translate(-1 -2.11)"/><path class="arrow-right-crayon-path" d="M146,12.08l-.33-.12C145.53,12.08,145.54,12.17,146,12.08Z" transform="translate(-1 -2.11)"/><path class="arrow-right-crayon-path" d="M144.91,11.7l.71.26c.14-.2.52-.46-.29-.14C145.71,11.62,145.3,11.75,144.91,11.7Z" transform="translate(-1 -2.11)"/><path class="arrow-right-crayon-path" d="M144.89,11.29c.09-.44,0-.88.75-.68C144.9,9.83,144.13,10.49,144.89,11.29Z" transform="translate(-1 -2.11)"/><path class="arrow-right-crayon-path" d="M146.51,7.08l.16-.54-.58,0C146.37,6.52,146.14,7.33,146.51,7.08Z" transform="translate(-1 -2.11)"/><path class="arrow-right-crayon-path" d="M146.19,15.46c.26-.15.54-.62.83-.89l-.52-.11C146.46,14.74,146.53,15.17,146.19,15.46Z" transform="translate(-1 -2.11)"/><path class="arrow-right-crayon-path" d="M147,14.57l.77.17C147.53,14.28,147.27,14.35,147,14.57Z" transform="translate(-1 -2.11)"/><path class="arrow-right-crayon-path" d="M147.31,11.25l-1.46-.2c.53.13,1.06.24,1.58.35Z" transform="translate(-1 -2.11)"/><polygon class="arrow-right-crayon-path" points="146.5 15.17 145.74 15.33 146.94 15.16 146.5 15.17"/><path class="arrow-right-crayon-path" d="M148.47,18.36c-.6.17-.59.86-1,.87a2.3,2.3,0,0,0,1.45.17C148.51,19.3,148.36,19,148.47,18.36Z" transform="translate(-1 -2.11)"/><path class="arrow-right-crayon-path" d="M149.71,19.4a3.62,3.62,0,0,0-.81,0A1.81,1.81,0,0,0,149.71,19.4Z" transform="translate(-1 -2.11)"/><path class="arrow-right-crayon-path" d="M148.27,15.63a1.36,1.36,0,0,0-.42.88l.54-.69Z" transform="translate(-1 -2.11)"/><path class="arrow-right-crayon-path" d="M148.41,15.79l0,0,.26.42Z" transform="translate(-1 -2.11)"/><path class="arrow-right-crayon-path" d="M148.24,15.58l0,.05C148.32,15.56,148.34,15.53,148.24,15.58Z" transform="translate(-1 -2.11)"/><path class="arrow-right-crayon-path" d="M147.58,13c.59,0,1.43.28,1.61-.71C148.57,12.41,148.47,13,147.58,13Z" transform="translate(-1 -2.11)"/><path class="arrow-right-crayon-path" d="M148.92,14.71l-.21-.61c-.18.14-.37.43-.67.43Z" transform="translate(-1 -2.11)"/><polygon class="arrow-right-crayon-path" points="148.32 12.68 147.92 12.6 148 12.82 148.32 12.68"/><path class="arrow-right-crayon-path" d="M149.75,18.11a1.1,1.1,0,0,1,.88.4,2.36,2.36,0,0,0-.41-1C150,17.66,149.5,17.84,149.75,18.11Z" transform="translate(-1 -2.11)"/><path class="arrow-right-crayon-path" d="M149.16,17l.08,0C149.27,16.89,149.27,16.86,149.16,17Z" transform="translate(-1 -2.11)"/><path class="arrow-right-crayon-path" d="M152.63,21.16l.09-.14-.12.08Z" transform="translate(-1 -2.11)"/><path class="arrow-right-crayon-path" d="M150.31,17.4c0-.31-.29-.3-.58-.26a1.69,1.69,0,0,1,.49.4C150.33,17.48,150.39,17.44,150.31,17.4Z" transform="translate(-1 -2.11)"/><path class="arrow-right-crayon-path" d="M150.55,19.85a3.47,3.47,0,0,0,.11-.63C150.52,19.48,150.34,19.94,150.55,19.85Z" transform="translate(-1 -2.11)"/><path class="arrow-right-crayon-path" d="M149.1,17.18h0C149,17.35,149,17.29,149.1,17.18Z" transform="translate(-1 -2.11)"/><path class="arrow-right-crayon-path" d="M149.1,17.18a2.32,2.32,0,0,0,.63,0,1.25,1.25,0,0,0-.49-.17A1.91,1.91,0,0,1,149.1,17.18Z" transform="translate(-1 -2.11)"/><path
      class="cls-1"
      d="M157.52,18.47c-.64.48-1.64.4-1.35-.59-.82-.1-2.66,1.8-3.45,3.14a1.26,1.26,0,0,1,1.3-.2c.19-.45-.09-1.72.81-1.75.83.38.2.69.13,1.27.54-.88,1.76-.12,2.76-1.2l-.84-.2C157.05,18.79,157.48,18.75,157.52,18.47Z"
      transform="translate(-1 -2.11)"/><path class="arrow-right-crayon-path" d="M152,20l-.24-.16a2.73,2.73,0,0,1-.28,1.4,1.33,1.33,0,0,0,1.1-.13c-.25-.36-.49-.74-.73-1.11Z" transform="translate(-1 -2.11)"/><path
      class="cls-1"
      d="M151.1,18.93c.8-.36,1.44-.12,2-.95-.47-.54-.87,0-1.42-.09.85.79-.58,0-.48,1a1.54,1.54,0,0,1-.55-.36,2.8,2.8,0,0,1,0,.71l0,0h0c.06-.11.1-.16.08-.08h0l.29-.15c.05.37-.15.17-.29.15l-.11.07h0c.35.2.7.41,1.09.66A2,2,0,0,0,151.1,18.93Z"
      transform="translate(-1 -2.11)"/><path class="arrow-right-crayon-path" d="M151.06,11.67a.41.41,0,0,1-.14.15C151.05,11.82,151.12,11.8,151.06,11.67Z" transform="translate(-1 -2.11)"/><path class="arrow-right-crayon-path" d="M150.92,12.37c-.14,0-.46.15-.56-.12.07-.35.34-.25.56-.43-.29,0-.85-.1-.88.57h.15a2.92,2.92,0,0,1-.6,1.69A8.69,8.69,0,0,0,150.92,12.37Z" transform="translate(-1 -2.11)"/><path class="arrow-right-crayon-path" d="M151.22,15.57l.92.51.3-.84-.34.29C151.91,15,151.54,15.41,151.22,15.57Z" transform="translate(-1 -2.11)"/><polygon class="arrow-right-crayon-path" points="151.38 19.41 150.58 19.87 151.97 19.54 151.38 19.41"/><polygon class="arrow-right-crayon-path" points="152.33 20.4 151.69 20.87 152.29 20.84 152.33 20.4"/><path class="arrow-right-crayon-path" d="M181.11,73.93l-.12.33A.83.83,0,0,0,181.11,73.93Z" transform="translate(-1 -2.11)"/><path class="arrow-right-crayon-path" d="M183,72.88l-.15-.36C182.89,72.76,182.93,72.92,183,72.88Z" transform="translate(-1 -2.11)"/><path class="arrow-right-crayon-path" d="M173.43,45.56c-.36.78-1,1.83-.32,1.27l.63-.62A.54.54,0,0,1,173.43,45.56Z" transform="translate(-1 -2.11)"/><path class="arrow-right-crayon-path" d="M191.83,58.16l.14-.26c-.3.09-.57.19-.82.29C191.36,58.17,191.59,58.16,191.83,58.16Z" transform="translate(-1 -2.11)"/><path class="arrow-right-crayon-path" d="M195,56.46a11.22,11.22,0,0,1,0,1.16A2.62,2.62,0,0,0,195,56.46Z" transform="translate(-1 -2.11)"/><path class="arrow-right-crayon-path" d="M173.68,81.06l.34.87C174.4,81.59,173.93,81.41,173.68,81.06Z" transform="translate(-1 -2.11)"/><path class="arrow-right-crayon-path" d="M162.7,31.94a1.73,1.73,0,0,0,.23,1C163,32.28,163.3,31.51,162.7,31.94Z" transform="translate(-1 -2.11)"/><path class="arrow-right-crayon-path" d="M177.22,65.55a.72.72,0,0,0,.06.58A.55.55,0,0,0,177.22,65.55Z" transform="translate(-1 -2.11)"/><path class="arrow-right-crayon-path" d="M163.62,33.64a2.65,2.65,0,0,0,0-.27,1.16,1.16,0,0,1-.71-.45C162.87,33.4,163,33.81,163.62,33.64Z" transform="translate(-1 -2.11)"/><path class="arrow-right-crayon-path" d="M142.86,108.24l-.14,0C142.79,108.31,142.82,108.29,142.86,108.24Z" transform="translate(-1 -2.11)"/><path class="arrow-right-crayon-path" d="M128.36,108.28c0-.07.11-.13.19-.2C128.48,108.06,128.4,108.12,128.36,108.28Z" transform="translate(-1 -2.11)"/><path class="arrow-right-crayon-path" d="M156.67,26.78c-.23-.16-.1,0,0,0Z" transform="translate(-1 -2.11)"/><path class="arrow-right-crayon-path" d="M158.24,23.45a.79.79,0,0,0,.39-.21A1,1,0,0,1,158.24,23.45Z" transform="translate(-1 -2.11)"/><path class="arrow-right-crayon-path" d="M169.35,31.89v0C169.43,31.73,169.42,31.76,169.35,31.89Z" transform="translate(-1 -2.11)"/><path class="arrow-right-crayon-path" d="M156.67,26.21a1,1,0,0,0,.06.43A1.82,1.82,0,0,0,156.67,26.21Z" transform="translate(-1 -2.11)"/><path class="arrow-right-crayon-path" d="M156.41,26.53c0-.1-.08-.17-.11-.24C156.17,26.37,156.13,26.45,156.41,26.53Z" transform="translate(-1 -2.11)"/><path class="arrow-right-crayon-path" d="M157,27a.83.83,0,0,1-.24-.39c0,.08,0,.13-.06.14A2.93,2.93,0,0,1,157,27Z" transform="translate(-1 -2.11)"/><path class="arrow-right-crayon-path" d="M158,91.91a.2.2,0,0,1-.1,0C157.94,92.35,158,92.22,158,91.91Z" transform="translate(-1 -2.11)"/><path class="arrow-right-crayon-path" d="M184.79,45.66h0v0Z" transform="translate(-1 -2.11)"/><path class="arrow-right-crayon-path" d="M185.87,46c-1.08.4-1.12.14-1.13-.24L183,47.53Z" transform="translate(-1 -2.11)"/><path
      class="cls-1"
      d="M178,76.38l.52.07a2,2,0,0,1,.43.14c.05.17.1.3.13.42s0,.28,0,.39-.05.39-.06.51.11.37.72.57a1.48,1.48,0,0,1-.47-1.23.69.69,0,0,1,.23-.53c.26-.29.6-.6-.11-1.76l.6.29c-.1,0,0,.18-.12.21,1.26.74-.63-1.94.47-2.14.43,0,.85.21.79.61.13-.33.27-.67.42-1,.25-.09.43.35.18.44l1.12-.91,0,.07a10.82,10.82,0,0,1,.06-1.65c.54.11,0,.34.26.58l.34-1a.92.92,0,0,1-.08,1.61c1.08.91,1.16.66,1.24.22s.18-1,1.37-1c-.15.27-.3.53-.47.8,1.39.89,1.62,0,2.92.15-.49-.23-3-.68-2.68-1.8.33,0,.66-.16.66-.87.63.73.83.25,1.18-.14l.82,1c.18-.65-.29-1.1-.43-1.74.53-.3,1.25.4,1.88,1,.75-.35-1.46-.86-.85-1.67a.77.77,0,0,0,.74-.45A2.71,2.71,0,0,0,190,67a1.42,1.42,0,0,0,.05-.61v-.1c.45.26.33.71.59,1a8.8,8.8,0,0,1-.26-1c.07,0,.18.29.23.44a2.61,2.61,0,0,0-.17-.83.87.87,0,0,1,.1-.9c-.18-.69.33-.34,1-.08s1.51.38,1.76-.72c.53.09.26.76.62,1.12.33-.5.76-1.08,1-1.61a4.47,4.47,0,0,0,.46-.94,5,5,0,0,0,.1-.6,3.57,3.57,0,0,0-.07-1.16,3.45,3.45,0,0,0-.73-1.46,6.75,6.75,0,0,0,.32-1.89c-.19.77-.75.81-1.34.73a17.25,17.25,0,0,0-1.86-.19,8.43,8.43,0,0,1-.62,1,7.56,7.56,0,0,0-1.06-.3,1.92,1.92,0,0,1,1-.65,1.93,1.93,0,0,0-.36.06c.13-.58.77-1,1.53-1.17a7.21,7.21,0,0,1-.35.82,7.33,7.33,0,0,0,2.3-.87,1.18,1.18,0,0,1-.58-.23c.23,0,.43-.09.5-.21s-.25-.1-.66-.1c.31-.38.61-.76.89-1.16l-.49.3c-.2-.71-.42-1.34-.65-2-1.91.19-3.9,1.34-5.5.81,1-.57,1.13-1.28,1.94-2.22-.53,1.26,1.27.29,1.81,1.08-.28-.41.18-.8.4-.88-.67,0-1.33-.05-1.94,0,.66-.77.22-.79.3-1.27-.6.79-.87,1-1.25.87s-.7-.46-1.12-.44c.44-.5,1-.9,1.39-.32.52-1.59-2.35,1-2-.44.13.11.12.25.41,0-.71.14-1.05-.89-.46-1.12l.13.11c-.6-1-2.27-2.53-3.68-1.6.16-.15,1.67-1.2,2-1.37-1.88.72-3.81,1.39-5.75,2,1.26-.77,3.55-3.48,4.78-3.25,0-.35,0-.75-.78-.88-.05.27-1.37,1.67-1.64,1.55a9.33,9.33,0,0,0,1-2.46c-.08.42-2.09,1.56-2.31,1.16A23.09,23.09,0,0,1,183,43.63l-2.46.46c.49,0,1.55-1.1,1.91-1.68-.28.36-.53-.79-.89-.9l-.14.69c-.47-1.22-3.29.85-4-.25.47-.15,2.54-1.37,2.39-2.06-1.1.44-5.26,2.18-6.63,1.79l.4-.56-1.11-.25a44.25,44.25,0,0,1,7.19-1.66c.14-.7.55-.57.08-1.12.35-.56,1-.23,1.15-.08l-.67-1.6c-1,.85-1.86-.26-2.73.46l2.22.67c-1.05.84-3.71,1.38-4.23.28.25-.57,2.06-1.24,2.41-1.52-.46.15-1.39-.4-1.19-.69h.88c0-.85-2.08.18-1.55-1.24-.1-.28.85-1.73.19-1.29a24.69,24.69,0,0,1-5.74,4.73,12.43,12.43,0,0,1,.69-2.73c.65-1.11,2.67-1.25,3.24-2.19a2.31,2.31,0,0,1-1,.3c.06-.43,1-.61.43-1-1.12.77-.76-1.1-1.09.49-.7-.24-.21-.71-.74-1.24a4.83,4.83,0,0,1-3.39,1.27,3,3,0,0,0,.64-.79c-.75-1-.76-1.94-1.57-2.8.17-.31.06-1,.65-1.23-.29.05-.73.26-1,0,.36-1.33.7.46,1.34-.92-.6.52-1.44.08-2.16.06-.76,1,.67,1,1.39,1.05a5.34,5.34,0,0,1-4.51,1.44c-1-.39.48-1.06.19-1-1.07-1.5-3.18,1-3.39-1,.34-1.19,1.5-1.52,2-2.16.85.28.37,1.34.78,1.69l-.1-.82c.43-.07,1,.11,1,.53.34-1-2-2.32-2.37-3.95-.43.07-1,0-1.17.46l.42.22c-.34.9-1.45.21-1.35.91-.86,0-2,.13-2.26-.84l.79-.95c-.25.26-.16.91.28.83-.65.1.34-2.08-1.11-1.3l-.23,1c-.87-.05-2.37.24-2.6-.63-.68,1.07.22.05-.47,1.41,1-1.53,1.3,1.57,2.16-.25-.84,1.53.15,1.19-.37,2.7.28-.29.38-.72.69-.11l.36-.14a.11.11,0,0,0,0,.06v-.06c.06,0,.07,0,0,0a1.44,1.44,0,0,1,.22-.67c.9-.4,1.58.36,2.16.28.13.4-.44.2-.61.65l.88-.13c-.61.66-.36,1.77-1.37,1.49l.54.61c0,.68.28,1.29.83,1.31.12.4,1.37,0,.64.23l1.26.48-.15.17c.77.94,2.8.73,2.56,2.82a1.48,1.48,0,0,1,1.18.88l-.49.62c.53.19.41,1.61,1.14,1.23-1.21,1.78,1.13,2,1.39,3l.82-.6a3.71,3.71,0,0,0,1.69,1.14l.69-.58c1,.09.51,1.75,1.21,2.55-.32.14-.4-.13-.35-.4-.89,2.2,2.77,1.3,2.26,3.12.44,0,.47.28.41.58a.1.1,0,0,0-.08,0,.27.27,0,0,0,.06.1c0,.2-.11.41-.14.61a1.75,1.75,0,0,0,.18-.56,2,2,0,0,0,.82.53l-.69.68s0,0,.07,0c-.09.48.53,0,1-.62a2.2,2.2,0,0,0,.73,0c-1.09,1.14.95.41-.16,1.69.79-.3,1.52,1,3,.13-.17.15-.2.29-.32.15.08.42.16.85.75.82l-.87.88,1.82-.36c-.27.86-.47,1.31-1.53,1.49,1.9.06,1.07.45,2.83.33l-.64.47c.26.28,1.47,0,1.12.63-.3.81.37,1.64,1.18,2.55.43.46.86,1,1.26,1.46A10.42,10.42,0,0,1,185,57.73c.57-1,.61-.67.68-.19s.09,1,.68.3c-.25.5-.23.92-.78,1.1,1.14.21.53,1.54,2,.78-.31.47-.67.48-.83.78.13,0,.49-.19.32.1s-.39.26-.63.37c.29.2.7,0,1.24-.37s1.17-.89,1.78-1.4c-.3.82-.2.77.82.42-.4.37-.86.66-1.1.6,0,.05,0,.11-.06.17s.25-.14.48-.2l.41-.11.24-.07a1.35,1.35,0,0,1,.52,0,.3.3,0,0,1-.15-.06l0,0h0l.88.52h0l-.05,0-.1-.07a1,1,0,0,1-.19-.16,6.46,6.46,0,0,1-.79-.84l-.13-.17h0l-.09,0-.22.06a2.73,2.73,0,0,0-.6.33l.26.11c.35,1.53-.43.56-1,1l0-.15a2.16,2.16,0,0,0-.77-.06,1,1,0,0,0-.41.14c-.17.12-.18.27-.35.39s-.47.19-1.2.17l.63.74c.51.9.06.84-.59.75s-1.49-.21-1.6.39l.61.21c.08.85-2.9-1.21-3.44-1.08-.19-.07-.07-.32,0-.53-1.74-.08.7,1.06.21,1.88-.56-.41-1-1.43-1.49-1.16-.55-.25.21,2.69-1.12,2,.41.35.84.69.75,1.22-.39.49-2.35-.86-2,.86a.8.8,0,0,1-.31-.29c-.22.6-1.15,1.47-1,2.41-1.08-1.28-1.67-.45-2.12.42s-.73,1.75-1.73.59l-1.07,1.16-.17-.26c-.89.5-.68,1.29-.46,2.07-.31,0-.37-.33-.46-.46-1.52.51-1.54.7-1.47,2.66l-.75-.66c.13.66-2.64.26-3,2.11a.85.85,0,0,1-.17-.44c-.44,2-4.83.7-2.78,3.75L162,80.89c1.21-.79.95,1.26,1.78,1.29-.24.53-1.78.22-1.42-.39l.2.06c-1.15-1.53-1.72.76-2.6-.17a17.89,17.89,0,0,1-3.11,2.62,31.67,31.67,0,0,0-3.05,2.13l1.19.89-.69.51c-.39-.1-1-.65-.49-1-.79-.41-.3,1.19-.11,1.45-1.28.34-.77-1.59-1.07-1.38l-.3.41.2,0c.09.72.48,1.22-.13,1.65-.55.07-.77-.54-.94-.46-.07-.08-.15-.08-.24.14l-.91.6,1.06.61c0,.75-.83.61.39,1.3-.93-.54-1.82,0-2.61.56s-1.54,1.5-1.94,1.43A2.35,2.35,0,0,1,146,95.3c.32,0,1.31.88.66,1.27-1.66-2.12-1.79.11-3.56-.86,1.27.56-1.26,1.66.59,2.39-.58.27-.72-.69-1.48-.83-.32,1.74-2.68,1.58-3.69,2.82.2.29.77.53.78,1.18l-1.85-.77c-.18.36,1,1.79-.27,1.25.25.17.64.43.52.67-1.92.45-3.08,1.84-4.37,3a7.3,7.3,0,0,1-2.12,1.46,3.72,3.72,0,0,1-3,.46c.65.37.52.55.32.71.22,0,.48.73.77,1.11a3.67,3.67,0,0,1-1.37-.77c.22.72-.11.75-.36.74h0c0-.18.07-.28.26.18-.11,0-.16,0-.17.07a21.85,21.85,0,0,1,.62,2.54h0a13.39,13.39,0,0,1,1.4,2.55c.2-.91.87-.47,1.84-.4s1.83,0,1.59-1.35c.47.14.18.64.57.9-.23-.85,0-1.24.66-1.3l.08.2a2.69,2.69,0,0,1,.38-.32,4.86,4.86,0,0,1,.53-.31,6.31,6.31,0,0,1,1.06-.42,23.22,23.22,0,0,0,2.56-.88l-.71-.65a1.52,1.52,0,0,1,1,0c-.48-1.45-1.07.74-1.67-.81,1.69,1.15,2.53-2,4.2-.51.55-.42-.84-.73-.3-1.14l.51.35-.34-.71c.43-.18,1.06.26,1.39.64-.12,0-.15.3-.21.41.89.17,1.08-1.17,1.42-1.14-.28.07-.5.08-.75.12a6.41,6.41,0,0,1,1.09-1.15l1.27-1.13a5.43,5.43,0,0,0,1.78-2.67l-.41-.22c.44-1.57,1.16-.44,2-1.76l0,.12a1.18,1.18,0,0,1,.36-1.21c.1.63,1.21.26,1.26,1,.43-1.62,0-1-.39-2.86l.66.41c-.2-.71-.42-1,0-1.62,0,.87,1.07.57,1.12,1.64,2.09.36.74-2.7,2.8-1.33-.71-2.06-1.82,0-1.77-.61-.69-.3-.47-1.58,0-1.73s2.34,1.48,3.34.59c-.11.08,0,.2-.12.28.72.08.28-1.17,1.3-.92-.55-1.16.65-.48-.32-1.73l-.68,1.07c.26-.76-.49-2.57.93-2.65a2.55,2.55,0,0,1,.17,1.16c.56.13.27-.65.85-.53,1,1.24-.87,1.25-.64,2.65.72.26.31-1.8,1.16-.27-1.05-2,1.19-.69.72-2.54l.61.73c0-.21-.09-.75.12-.91l.5,1.22c-.18-1.27,1.69-.35,1.81-1.29-1.06,1.11-1-.56-2-.6.39-2.19,2.55,1,3.65-.86,0,.25-1.15.39-1.15-.25a2.17,2.17,0,0,1,1.51-.06c.68-1-.83-.53-.91-1.31,1.13.5.08-.76.2-1.41l.69.67c1.42-.56-1.17-1.68.27-2.06l.56,1.33.22-.71.68.88c-.06-1.08.25-1.09,1-1.36-.59-.37-1.15-1.33-.71-1.79.71.12.46.84,1,.12.26.58.62,1.28-.27.9.19.26.27.58.46.83.78.16.94-.68,1.17-.91a.58.58,0,0,1-.41.08l0-1.87c.39.13.47.46.54.77.12-.25,0-.7.19-1,.46.64,1,1.23.87,1.87l.32-1.48c.3.2,1.11.27,1.18.59.81-.11.24-2.26,1.34-2.42a.73.73,0,0,1,0-.53c.77-.44,2-.23,2.06-1.72l1.38.67c.4-.78-1.78-.81-1.1-2.11.44-1,1.06.67,1.58.74a5.53,5.53,0,0,1-.07-1.53c.06-.46.42-.89,1-.59a.26.26,0,0,1-.11.27A1,1,0,0,0,178,76.38Zm7.81-6c0,.29,0,1.08-.51.74C184.82,70.11,185.3,70.41,185.8,70.41Zm6.34-14.71c.35-.11.43.21.36.67A.71.71,0,0,1,192.14,55.7ZM159.33,28.4l0,0C159.43,29,159.42,28.74,159.33,28.4Zm-.34-.95a.46.46,0,0,0-.32.25c.22-.13.37,0,.49.23C159.29,27.7,159.34,27.5,159,27.45ZM151.6,88.87l.29.08C151.78,89.41,151.7,89.15,151.6,88.87Z"
      transform="translate(-1 -2.11)"/><path class="arrow-right-crayon-path" d="M194.64,56.64a1.24,1.24,0,0,1-.37.39C194.48,57.06,194.64,56.94,194.64,56.64Z" transform="translate(-1 -2.11)"/><path class="arrow-right-crayon-path" d="M173.61,80.89h0a.86.86,0,0,0,.1.16Z" transform="translate(-1 -2.11)"/><path class="arrow-right-crayon-path" d="M174.66,32.27a1.09,1.09,0,0,1-.16.61A.45.45,0,0,0,174.66,32.27Z" transform="translate(-1 -2.11)"/><path class="arrow-right-crayon-path" d="M154.35,24.93l.61.29c-.24-.18-.15-.41-.14-.62C154.66,24.76,154.5,25.06,154.35,24.93Z" transform="translate(-1 -2.11)"/><path class="arrow-right-crayon-path" d="M155.59,17.07c-.15,0-.12-.13-.27-.13l-.34.29C155.22,17.5,155.66,17.48,155.59,17.07Z" transform="translate(-1 -2.11)"/><path class="arrow-right-crayon-path" d="M156.37,22.37c.58-.58.12-.66-.27-.89,0,0,0,0,.05.06C155.21,22.19,155.79,22.29,156.37,22.37Z" transform="translate(-1 -2.11)"/><path class="arrow-right-crayon-path" d="M156,21.42a.61.61,0,0,1-.27-.28C155.37,21.4,155.78,21.32,156,21.42Z" transform="translate(-1 -2.11)"/><path class="arrow-right-crayon-path" d="M157.78,27c0-.28-.83.63-.67.32C156.21,27.86,158.93,27.38,157.78,27Z" transform="translate(-1 -2.11)"/><polygon class="arrow-right-crayon-path" points="157.15 18.24 156.5 19.01 157.25 18.65 157.15 18.24"/><path class="arrow-right-crayon-path" d="M159.78,23.22l-.24-.66a.36.36,0,0,1-.37.1C159.42,23,159.58,23.44,159.78,23.22Z" transform="translate(-1 -2.11)"/><path class="arrow-right-crayon-path" d="M159.17,22.66a.52.52,0,0,0-.48-.27A1.12,1.12,0,0,0,159.17,22.66Z" transform="translate(-1 -2.11)"/><polygon class="arrow-right-crayon-path" points="157.97 18.7 157.94 18.98 158.19 19.37 157.97 18.7"/><path class="arrow-right-crayon-path" d="M164.53,28.35l.7.31c.3-.19.31-.48,0-.57S164.69,28,164.53,28.35Z" transform="translate(-1 -2.11)"/><path class="arrow-right-crayon-path" d="M165,24.9a1.8,1.8,0,0,1-.32.76l.9-.86Z" transform="translate(-1 -2.11)"/><path class="arrow-right-crayon-path" d="M166.64,26.17c.3-.2,1.43,0,.74-.55C167.09,25.81,166.38,25.5,166.64,26.17Z" transform="translate(-1 -2.11)"/><polygon class="arrow-right-crayon-path" points="171.68 33.15 171.55 33.02 169.96 34.29 171.68 33.15"/><path class="arrow-right-crayon-path" d="M182.21,40c-.1-1-1.14.58-1.08-.38-.51.12,0,.78-.5.87C181.34,40.57,181.26,41,182.21,40Z" transform="translate(-1 -2.11)"/><path class="arrow-right-crayon-path" d="M180.63,40.47a2.25,2.25,0,0,0-.4,0A1.23,1.23,0,0,0,180.63,40.47Z" transform="translate(-1 -2.11)"/><path class="arrow-right-crayon-path" d="M127.2,107.5l0,0h0a3.2,3.2,0,0,1-.09-.49c0,.23.09.48.15.74l0-.11h0Z" transform="translate(-1 -2.11)"/><path class="arrow-right-crayon-path" d="M127.76,108.51q-.15-.56-.33-1.11c.17.33.35.66.54,1C127.88,108.34,127.73,108.25,127.76,108.51Z" transform="translate(-1 -2.11)"/><path class="arrow-right-crayon-path" d="M188.78,71.31l-.17-.27c-.29-.19-.4-.12-.65,0Z" transform="translate(-1 -2.11)"/><polygon class="arrow-right-crayon-path" points="180.2 73.24 180.31 73.2 179.53 72.3 180.2 73.24"/><path class="arrow-right-crayon-path" d="M178.23,79.52c.22-.13.27-.52.5-.65C178.45,79.39,177.21,78.47,178.23,79.52Z" transform="translate(-1 -2.11)"/></g>
  </g>
</svg>
