<svg xmlns="http://www.w3.org/2000/svg" viewBox="0 0 172.25 105.97" id="arrow-left-right-crayon">
  <path class="arrow-left-right-crayon-path" d="M157.55,88.74c0-.3-.78-.14-.93-.18C156.83,89.05,157.76,88.72,157.55,88.74Z" transform="translate(-1.75)"/><polygon class="arrow-left-right-crayon-path" points="161.75 83.67 162.1 83.64 161.09 83.22 161.75 83.67"/><path class="arrow-left-right-crayon-path" d="M162,79.06c-1.13,1,.87,1.67.64,2.66l-.27.23,1.21,0C163.09,81.05,161.92,80,162,79.06Z" transform="translate(-1.75)"/><path class="arrow-left-right-crayon-path" d="M163.63,75.28c-.43.39-.67-.29.1.62,0-.08.06-.11.08-.16A2.15,2.15,0,0,1,163.63,75.28Z" transform="translate(-1.75)"/><path class="arrow-left-right-crayon-path" d="M163.81,75.74c.26.44.28-.51,0,0Z" transform="translate(-1.75)"/><path class="arrow-left-right-crayon-path" d="M162.5,73.79l.74.37c.23-.27,0-.83.34-.74C163,72.93,162.8,73.2,162.5,73.79Z" transform="translate(-1.75)"/><path class="arrow-left-right-crayon-path" d="M161.28,73.7l.35.21C161.72,73.79,161.72,73.69,161.28,73.7Z" transform="translate(-1.75)"/><path class="arrow-left-right-crayon-path" d="M162.35,74.36l-.72-.45c-.17.19-.58.4.29.22C161.51,74.27,161.94,74.22,162.35,74.36Z" transform="translate(-1.75)"/><path class="arrow-left-right-crayon-path" d="M162.34,74.82c-.12.48-.08,1-.82.62C162.26,76.48,163.08,75.87,162.34,74.82Z" transform="translate(-1.75)"/><path class="arrow-left-right-crayon-path" d="M160.51,79.38l-.19.63.6.24C160.63,80.13,160.91,79.18,160.51,79.38Z" transform="translate(-1.75)"/><path class="arrow-left-right-crayon-path" d="M161.25,69.78c-.29.1-.61.57-.93.8l.54.27C160.92,70.53,160.87,70,161.25,69.78Z" transform="translate(-1.75)"/><path class="arrow-left-right-crayon-path" d="M160.32,70.58l-.8-.4C159.77,70.78,160,70.77,160.32,70.58Z" transform="translate(-1.75)"/><polygon class="arrow-left-right-crayon-path" points="158.07 74.31 159.58 74.88 157.95 74.12 158.07 74.31"/><polygon class="arrow-left-right-crayon-path" points="158.2 67.3 159.02 67.32 157.73 67.19 158.2 67.3"/><path class="arrow-left-right-crayon-path" d="M158.94,65.74c.66,0,.65-.85,1.12-.75a2.85,2.85,0,0,0-1.57-.62C158.91,64.6,159.07,65,158.94,65.74Z" transform="translate(-1.75)"/><path class="arrow-left-right-crayon-path" d="M157.6,64.13a4,4,0,0,0,.89.24A2,2,0,0,0,157.6,64.13Z" transform="translate(-1.75)"/><path class="arrow-left-right-crayon-path" d="M159.06,69a1.25,1.25,0,0,0,.49-.92l-.61.66Z" transform="translate(-1.75)"/><path class="arrow-left-right-crayon-path" d="M158.92,68.79l0,0-.26-.56Z" transform="translate(-1.75)"/><path class="arrow-left-right-crayon-path" d="M159.09,69.09l0-.07C159,69.09,159,69.11,159.09,69.09Z" transform="translate(-1.75)"/><path class="arrow-left-right-crayon-path" d="M159.64,72.27c-.62-.15-1.49-.69-1.73.4C158.56,72.67,158.7,72,159.64,72.27Z" transform="translate(-1.75)"/><path class="arrow-left-right-crayon-path" d="M158.32,69.91l.2.77c.19-.12.41-.4.72-.33Z" transform="translate(-1.75)"/><polygon class="arrow-left-right-crayon-path" points="156.16 69.71 156.57 69.91 156.5 69.62 156.16 69.71"/><path class="arrow-left-right-crayon-path" d="M157.56,65.68a1.65,1.65,0,0,1-.95-.73,3.88,3.88,0,0,0,.44,1.28C157.31,66.15,157.82,66.07,157.56,65.68Z" transform="translate(-1.75)"/><path class="arrow-left-right-crayon-path" d="M158.16,67.22l-.08,0C158,67.26,158,67.3,158.16,67.22Z" transform="translate(-1.75)"/><path class="arrow-left-right-crayon-path" d="M154.57,61.47l-.1.13.14-.06Z" transform="translate(-1.75)"/><path class="arrow-left-right-crayon-path" d="M156.94,66.37c0,.37.3.43.63.47a2.37,2.37,0,0,1-.52-.61C156.93,66.26,156.86,66.3,156.94,66.37Z" transform="translate(-1.75)"/><path class="arrow-left-right-crayon-path" d="M156.69,63.35a3.69,3.69,0,0,0-.12.74C156.72,63.8,156.91,63.29,156.69,63.35Z" transform="translate(-1.75)"/><path class="arrow-left-right-crayon-path" d="M158.24,67l0,0C158.4,66.81,158.33,66.86,158.24,67Z" transform="translate(-1.75)"/><path class="arrow-left-right-crayon-path" d="M158.24,67a2.49,2.49,0,0,0-.67-.13,1.75,1.75,0,0,0,.51.34A1.46,1.46,0,0,1,158.24,67Z" transform="translate(-1.75)"/><path class="arrow-left-right-crayon-path" d="M149.25,63.26c.71-.36,1.78,0,1.42,1.06.88.32,2.88-1.42,3.8-2.72-.31.16-.58.32-1.37-.08-.23.45,0,1.95-.95,1.77-.86-.64-.18-.84-.07-1.47-.63.86-1.88-.33-3,.61l.89.47C149.77,63,149.3,63,149.25,63.26Z" transform="translate(-1.75)"/><path class="arrow-left-right-crayon-path" d="M155.14,62.88l.24.22a2.9,2.9,0,0,1,.38-1.48,1.31,1.31,0,0,0-1.15-.08l.69,1.37Z" transform="translate(-1.75)"/><path
    class="a"
    d="M156.09,64.31c-.86.22-1.56-.24-2.13.63.51.75.94.19,1.54.47-.92-1.17.63.13.52-1a2.33,2.33,0,0,1,.59.58,4.13,4.13,0,0,1,0-.86l0,0h0c-.06.11-.1.16-.08.07l0,0a1.92,1.92,0,0,1-.31.11c-.06-.46.16-.17.31-.11l.12,0h0l-1.16-1A3.07,3.07,0,0,0,156.09,64.31Z"
    transform="translate(-1.75)"/><path class="arrow-left-right-crayon-path" d="M155.9,72.85a.42.42,0,0,1,.16-.14C155.92,72.68,155.84,72.68,155.9,72.85Z" transform="translate(-1.75)"/><path class="arrow-left-right-crayon-path" d="M156.08,72.08c.16,0,.5,0,.59.29-.09.39-.37.2-.61.34.3.08.89.36.95-.42l-.15,0a3,3,0,0,1,.72-1.81A8.1,8.1,0,0,0,156.08,72.08Z" transform="translate(-1.75)"/><path class="arrow-left-right-crayon-path" d="M155.91,68.28l-1-.86-.35.91.38-.25C155.16,68.77,155.57,68.37,155.91,68.28Z" transform="translate(-1.75)"/><polygon class="arrow-left-right-crayon-path" points="153.12 61.13 153.99 60.8 152.52 60.85 153.12 61.13"/><polygon class="arrow-left-right-crayon-path" points="152.2 59.81 152.91 59.45 152.28 59.34 152.2 59.81"/><path class="arrow-left-right-crayon-path" d="M80.84,12.2l-.38.1A.91.91,0,0,0,80.84,12.2Z" transform="translate(-1.75)"/><path class="arrow-left-right-crayon-path" d="M83.07,13.06l.19-.34C83.08,12.88,83,13,83.07,13.06Z" transform="translate(-1.75)"/><path class="arrow-left-right-crayon-path" d="M128.63,28.85c.05-.91.29-2.19-.21-1.45l-.42.78A.87.87,0,0,1,128.63,28.85Z" transform="translate(-1.75)"/><path class="arrow-left-right-crayon-path" d="M103.49,18.16v.31l.72-.55Z" transform="translate(-1.75)"/><path class="arrow-left-right-crayon-path" d="M101.39,21.1l-.31-.82A2.41,2.41,0,0,0,101.39,21.1Z" transform="translate(-1.75)"/><path class="arrow-left-right-crayon-path" d="M68.31,10.55l-.41.86C68.45,11.44,68.24,11,68.31,10.55Z" transform="translate(-1.75)"/><path class="arrow-left-right-crayon-path" d="M144.79,46.17a2.38,2.38,0,0,0-.26-1.25C144.47,45.67,144.11,46.47,144.79,46.17Z" transform="translate(-1.75)"/><path class="arrow-left-right-crayon-path" d="M84.82,3.84a.6.6,0,0,0-.48.39C84.61,4.16,84.79,4.05,84.82,3.84Z" transform="translate(-1.75)"/><path class="arrow-left-right-crayon-path" d="M143.72,43.82a1.74,1.74,0,0,0,0,.32,2,2,0,0,1,.82.78C144.58,44.36,144.48,43.83,143.72,43.82Z" transform="translate(-1.75)"/><path class="arrow-left-right-crayon-path" d="M19.83,16.27s-.09,0-.13-.07C19.73,16.32,19.77,16.31,19.83,16.27Z" transform="translate(-1.75)"/><path class="arrow-left-right-crayon-path" d="M3.37,15.66a1.79,1.79,0,0,1,.34-.33C3.61,15.33,3.49,15.44,3.37,15.66Z" transform="translate(-1.75)"/><path class="arrow-left-right-crayon-path" d="M150.92,54.18c.22.26.11,0,0,0Z" transform="translate(-1.75)"/><path class="arrow-left-right-crayon-path" d="M148.87,57.38a.7.7,0,0,0-.43.11A1.16,1.16,0,0,1,148.87,57.38Z" transform="translate(-1.75)"/><path class="arrow-left-right-crayon-path" d="M137.36,44.46v0C137.28,44.62,137.29,44.58,137.36,44.46Z" transform="translate(-1.75)"/><path class="arrow-left-right-crayon-path" d="M150.85,54.82a1.68,1.68,0,0,0,0-.5A1.69,1.69,0,0,0,150.85,54.82Z" transform="translate(-1.75)"/><path class="arrow-left-right-crayon-path" d="M151.16,54.55a2.57,2.57,0,0,0,.09.29C151.39,54.8,151.45,54.72,151.16,54.55Z" transform="translate(-1.75)"/><path class="arrow-left-right-crayon-path" d="M150.63,53.81a1.42,1.42,0,0,1,.21.51c0-.09,0-.14.08-.14A2.63,2.63,0,0,1,150.63,53.81Z" transform="translate(-1.75)"/><path class="arrow-left-right-crayon-path" d="M45.52,9a.44.44,0,0,1-.08-.07C45.17,9.29,45.31,9.21,45.52,9Z" transform="translate(-1.75)"/><path class="arrow-left-right-crayon-path" d="M116.25,30.75h0l0-.06Z" transform="translate(-1.75)"/><path class="arrow-left-right-crayon-path" d="M114.93,30.61c1-.6,1.18-.33,1.35.07l1.13-2.26Z" transform="translate(-1.75)"/><path
    class="a"
    d="M75.35,10.9c.19.31.38.6.56.92-1.18,1-1.68.5-1.26,1.71.71-2.67,2.82.41,3.65-2.16l.33.7c-.13-.07-.2.07-.33,0,.56,1.53,1.27-1.67,2.4-.91.37.35.53.82.14,1L82,11.9c.26.14,0,.56-.23.42.51.09,1,.2,1.52.33l0,.07a8.24,8.24,0,0,1,1.41-.92c.23.51-.29.2-.32.55l1.05-.29A.94.94,0,0,1,84,12.9c-.27,2.8.93-.38,1.91,1.76h-.88c-.12,1.63.67,1.33,1.09,2.59,0-.55-.68-2.93.44-3.19.16.29.44.52,1.13.24-.4.88.15.87.73,1.07l-.58,1.15c.76-.06,1-.67,1.6-1,.62.44.32,1.4.11,2.22,1,.71,0-1.78,1.34-1.38.68.89,1.54.75,3,.63.42.73-.48.64-.42,1.08l1-.6c.13.09-.07.34-.16.47.65-.1.64-1.11,1.55-1,.88-1.14.53,2.64,2.21,1.74.05.44-.49.62-.66,1.09a8.16,8.16,0,0,0,3.18-.71l.46,1.24c-.17-1.21,1.22-1.72,2.41-2.12a10.59,10.59,0,0,0,0-1.24L105,17c0,.27-.3.58-.75.93.13-.05.26-.09.36-.14.18.65-.4,1.16-1,1.61l0-.92a5.27,5.27,0,0,0-1.68,1.79.85.85,0,0,1,.55-.09.9.9,0,0,0-.35.41c0,.14.24,0,.59-.21l-.45,1.38.34-.45,1.05,1.64c1.78-.62,3.79-1.89,5.8-1.35-1,.63-1,1.4-1.66,2.44.23-1.4-1.58-.31-2.31-1.05.38.38,0,.83-.24.94l2.16-.09c-.56.84-.07.85.11,1.45.75-1.9,1.85-.43,2.8-.56-.32.6-.84,1.08-1.51.47,0,1.8,2.34-1.31,2.47.3-.19-.11-.23-.26-.49,0,.75-.22,1.55.85,1,1.19l-.19-.11c1.1,1,3.66,2.45,4.8,1.18a22.2,22.2,0,0,1-1.59,1.82c1.8-1.09,3.6-2.14,5.44-3.18-1,1.05-2.35,4.38-3.81,4.37a1.16,1.16,0,0,0,1.24.81c-.06-.3.77-2.06,1.11-2-.24,1.83,0,1.06,0,2.82-.1-.46,1.58-2.07,2-1.67-.28.22-1.32,1.84-1.63,1.91l2.46-1c-.52.11-1.2,1.48-1.35,2.17.16-.44.91.76,1.33.81l-.13-.77c1,1.22,3.18-1.52,4.33-.42-.44.23-2.17,1.91-1.75,2.62,1-.65,4.8-3.21,6.48-2.91l-.23.68,1.32.16a60.56,60.56,0,0,1-7.15,2.79c.1.77-.38.7.31,1.21-.17.66-1,.41-1.18.27.42.53.83,1.06,1.24,1.6.82-1.07,2,0,2.73-.88-.86-.15-1.72-.27-2.56-.4.8-1.08,3.48-2,4.4-.87-.09.65-1.82,1.58-2.09,1.94.44-.22,1.59.26,1.47.59l-.94.12c.24.89,2.17-.41,2,1.18.19.29-.51,1.91.07,1.38a21.28,21.28,0,0,1,5-5.49,10.1,10.1,0,0,1,0,3.16c-.5,1.22-2.64,1.37-3.07,2.42a2,2,0,0,1,1-.34c0,.46-.93.67-.3,1.1,1.09-.84.92,1.2,1.09-.52.77.29.31.77.92,1.37.48-.79,2.78-1.35,3.59-1a2.23,2.23,0,0,0-.65.8c.89,1.29.91,2.32,1.76,3.49-.19.3-.1,1.09-.75,1.2.32,0,.81-.1,1.09.25-.46,1.38-.72-.69-1.49.66.67-.42,1.54.28,2.31.52.89-.86-.65-1.34-1.42-1.55a4.84,4.84,0,0,1,5-.3c1,.78-.59,1.06-.28,1.1,1,2.06,3.56,0,3.59,2.28-.49,1.23-1.78,1.19-2.34,1.75-.87-.6-.25-1.64-.66-2.18l0,1c-.47-.07-1.06-.47-1-.94-.45,1,1.95,3.32,2.12,5.28.47.07,1.07.33,1.31-.11l-.43-.4c.47-.89,1.58.26,1.55-.56.91.31,2.17.52,2.3,1.67l-.94.82c.3-.21.26-1-.21-1,.69.08-.56,2.24,1.05,1.8l.34-1.07c.92.31,2.51.41,2.67,1.42.81-1-.23-.11.63-1.43-1.2,1.41-1.19-2.06-2.28-.3,1-1.45,0-1.37.7-2.87-.33.24-.49.68-.74-.1a1.9,1.9,0,0,1-.4,0v-.07l0,.07c-.07,0-.08,0,0,0a1.35,1.35,0,0,1-.31.66c-1,.16-1.63-.91-2.27-1-.08-.5.5-.09.73-.53l-.95-.16c.73-.53.59-1.85,1.63-1.2l-.5-.86a1.64,1.64,0,0,0-.77-1.79c-.1-.51-1.49-.46-.68-.5l-1.35-1,.18-.14c-.81-1.38-3-1.81-2.83-4.23a2.72,2.72,0,0,1-1.42-1.44l.51-.62c-.65-.37-.73-2.14-1.56-1.85,1.13-1.95-1.93-2.94-2.53-4.09l-.77.66a6.07,6.07,0,0,0-2.39-1.48L135,36c-1.14-.08-1.2-2-2.31-2.9.3-.19.51.12.55.44.12-2.65-3.6-1.24-3.78-3.32a.61.61,0,0,1-.7-.59.16.16,0,0,0,.1,0,.56.56,0,0,0-.11-.11c0-.22,0-.47-.1-.7a1.83,1.83,0,0,0,0,.65,3.12,3.12,0,0,0-1.12-.46l.46-.86-.09,0c-.11-.55-.55.14-.83.84a2.5,2.5,0,0,0-.81.1c.7-1.43-1.2-.27-.55-1.87-.72.45-2.09-.83-3.29.4.12-.18.09-.35.28-.22-.26-.44-.53-.87-1.16-.74l.56-1.1-1.8.72c-.07-1,0-1.47,1-1.88-2.07.32-1.32-.27-3.19.19l.5-.62c-.39-.23-1.59.23-1.45-.46,0-1.83-4.09-3-5.59-5.51-.78,2.26-.5-1.52-1.53,0,.16-.55,0-1,.62-1.2-1.43-.23-1.29-1.79-2.86-.94.15-.56.65-.56.7-.91-.15.05-.61.2-.56-.15s.4-.3.71-.4c-1.24-.62-2.21.79-3.09,2.12-.22-1-.57-1.07-1.52-.41.06-.57,0-1.24.8-1-.36-.3-2.13-2.09-2.8-1,0-.36-.53-.41-.71-.34a8,8,0,0,0-1.89-1.13l.15.32c-1.1,1.15-.92-.12-1.76-.35l.1-.13c-1.19-1.89-1,.07-2.09-1.94l-.35.9c-1.1,1.76-.94-1.86-2.32-1.64l.12.67c-.85.37-.29-3.29-.77-3.78,0-.22.31-.17.55-.21-1-1.8-.73,1-2,.8.07-.71,1-1.44.28-1.9-.17-.7-3.09,1.05-3.63-.57,0,.57.07,1.14-.61,1.3-.86-.14-1.5-2.72-2.83-1.42a.64.64,0,0,1,0-.43c-.77.16-2.3,0-3,.71.2-1.67-.93-1.62-2-1.43s-2,.41-1.64-1.07l-2.09-.28.11-.29a2,2,0,0,0-2.46.85c-.27-.25,0-.5,0-.65-1.84-.9-2.12-.77-3.85.59l-.09-1C69,2.2,66.65-.07,64.78,1.1A.76.76,0,0,1,65,.65c-2.06,1.13-5.13-2.67-5.76,1l-1.32,1c1.77.19-.17,1.58.58,2.14-.66.24-1.83-1-1-1.22l.15.17c.19-1.91-2.22-.51-2.27-1.8-3.46.38-6.95-.25-10.19.16l.58,1.39-1.12.09c-.35-.3-.57-1.07.24-1.14-.55-.75-1.24.89-1.21,1.21C42,3.25,44,1.8,43.53,1.84l-.63.22.17.14c-.43.68-.37,1.31-1.34,1.4-.65-.19-.46-.84-.7-.85,0-.11-.11-.14-.38,0l-1.42.12.76,1c-.52.67-1.32.17-.44,1.35-.65-.92-2-.86-3.23-.63S34,5.25,33.63,5A3,3,0,0,1,31,6.17c.3.19.67,1.44-.26,1.44-.11-2.7-1.84-.87-2.91-2.64.88,1.14-2.56.78-1.19,2.38-.81-.07-.23-1-.93-1.49C24.11,7.22,21.53,6,19.27,7c.05.35.57.77.22,1.41-.55-.45-1.12-.9-1.69-1.35-.42.3.17,2.07-1,1.16.2.25.51.62.24.82-2.48-.1-4.68,1.14-6.78,2.41l-.79.46c-.31.19-.66.4-.95.6-.61.39-1.14.76-1.69,1.08a6,6,0,0,1-3.41,1c.82.21.59.49.31.74.29,0,.53.69.86,1a5.1,5.1,0,0,1-1.88-.32c.25.71,0,.8-.35.93h0c.25.09.46.27.76.86l-.44-.4a3.74,3.74,0,0,1,.67,2.38h0A8.52,8.52,0,0,1,5.07,22c.18-1,1-.79,2-.82S9,21,8.79,19.53c.51.08.17.66.6.89-.23-.88,0-1.31.84-1.54l.07.21a3.66,3.66,0,0,1,2-1.2,4.54,4.54,0,0,0,.47,0l.66-.1L15,17.5l-.56-.79c.52-.1.73.13,1,.25-.05-1.56-1.32.52-1.5-1.14.72.72,1.52.36,2.35.08s1.67-.48,2.22.47c.75-.23-.57-1,.19-1.2l.38.5,0-.79c.53,0,1,.6,1.16,1.07-.14,0-.3.24-.41.32.82.48,1.72-.75,2-.58L21,15.53C23,14.41,25.76,14.61,27.7,13l-.24-.41c1.52-1.12,1.41.24,3.19-.45l0,.11a1.59,1.59,0,0,1,1.27-.84c-.38.59,1.06.85.53,1.53,1.71-1.19.81-.84,1.75-2.69l.41.68c.3-.74.28-1.09,1.18-1.45-.66.77.81,1,.09,2,2.31,1.23,2.6-2.15,3.93,0,.52-2.18-1.88-.81-1.46-1.34-.54-.58.45-1.64,1.1-1.55.63-.06,1.52,2.39,3.05,2.09-.15,0-.13.17-.29.19.66.41,1-.9,1.86-.17.2-1.29.93-.08.8-1.66l-1.36.59c.73-.54,1.21-2.49,2.68-1.81A2.84,2.84,0,0,1,45.52,9c.46.4.71-.42,1.18,0,.12,1.58-1.67.59-2.34,1.93.51.59,1.44-1.39,1.27.37.29-2.25,1.55,0,2.36-1.75l.06.95c.14-.17.43-.66.73-.68l-.38,1.29c.7-1.15,1.74.7,2.46,0-1.67.24-.52-1.08-1.32-1.68,1.94-1.52,1.51,2.31,3.76,1.6-.3.17-1.24-.44-.8-.93a2.7,2.7,0,0,1,1.4.92c1.51-.34-.32-.95.27-1.59.63,1.1.72-.54,1.37-1l.08,1c1.81.48.32-2,2-1.42L57,9.38l.8-.41-.1,1.11c.84-.86,1.14-.67,2-.41-.24-.67,0-1.75.82-1.81.56.56-.26.93.84.75-.24.61-.48,1.38-1,.51,0,.32-.22.61-.26.93.59.64,1.43.09,1.82.08a.67.67,0,0,1-.43-.22l1.57-1.36c.25.36.06.65-.14.94.32-.11.54-.55,1-.64-.12.79-.09,1.6-.75,2l1.5-.87c.1.34.76.94.56,1.23.41.24.91-.13,1.47-.49s1.08-.64,1.58-.31a.72.72,0,0,1,.41-.39c1,.24,1.69,1.31,3,.38l.43,1.5c.94-.17-.61-1.89,1-2.17,1.17-.26.19,1.24.49,1.7.63-.58,1.89-1.81,2.61-.46C75.88,11.11,75.67,10.86,75.35,10.9ZM86.57,14c-.3.1-1,.49-.89-.1C86.35,13,86.34,13.59,86.57,14Zm17.59,6.66c-.32.19-.48-.09-.56-.56A.73.73,0,0,1,104.16,20.69Zm44.1,30.77h0C148.22,50.79,148.2,51,148.26,51.46Zm.27,1.2a.38.38,0,0,0,.37-.17c-.25.06-.4-.15-.5-.43C148.23,52.26,148.16,52.48,148.53,52.66ZM41,3.12l.26.21C40.77,3.69,40.87,3.42,41,3.12Z"
    transform="translate(-1.75)"/><path class="arrow-left-right-crayon-path" d="M101.64,20.76a1.85,1.85,0,0,1,.17-.5A.37.37,0,0,0,101.64,20.76Z" transform="translate(-1.75)"/><path class="arrow-left-right-crayon-path" d="M68.38,10.39h0a.85.85,0,0,0,0,.17Z" transform="translate(-1.75)"/><path class="arrow-left-right-crayon-path" d="M131.63,43.69a1.15,1.15,0,0,1,.08-.65A.45.45,0,0,0,131.63,43.69Z" transform="translate(-1.75)"/><path class="arrow-left-right-crayon-path" d="M153.12,56.91l-.59-.48c.22.27.11.49.07.72C152.78,57,153,56.73,153.12,56.91Z" transform="translate(-1.75)"/><path class="arrow-left-right-crayon-path" d="M151.28,65.4c.16,0,.13.19.28.21l.38-.25C151.68,65,151.21,64.9,151.28,65.4Z" transform="translate(-1.75)"/><path class="arrow-left-right-crayon-path" d="M150.74,59.16c-.66.48-.19.72.21,1.07a.18.18,0,0,1,0-.07C152,59.69,151.34,59.42,150.74,59.16Z" transform="translate(-1.75)"/><path class="arrow-left-right-crayon-path" d="M151,60.32a1,1,0,0,1,.27.39C151.72,60.52,151.28,60.5,151,60.32Z" transform="translate(-1.75)"/><path class="arrow-left-right-crayon-path" d="M149.76,53.6c0,.31,1-.43.76-.13C151.53,53.15,148.59,52.76,149.76,53.6Z" transform="translate(-1.75)"/><polygon class="arrow-left-right-crayon-path" points="146.93 60.91 147.69 60.23 146.86 60.42 146.93 60.91"/><path class="arrow-left-right-crayon-path" d="M147.21,57.13l.19.84a.35.35,0,0,1,.4,0C147.57,57.53,147.45,57,147.21,57.13Z" transform="translate(-1.75)"/><path class="arrow-left-right-crayon-path" d="M147.8,58a.78.78,0,0,0,.49.47A1.58,1.58,0,0,0,147.8,58Z" transform="translate(-1.75)"/><polygon class="arrow-left-right-crayon-path" points="146.1 60.13 146.15 59.82 145.91 59.3 146.1 60.13"/><path class="arrow-left-right-crayon-path" d="M142.61,49.72l-.74-.57a.33.33,0,0,0-.06.63C142.12,49.82,142.42,50,142.61,49.72Z" transform="translate(-1.75)"/><path class="arrow-left-right-crayon-path" d="M141.83,53.45c0-.31.22-.44.42-.74l-1.05.67Z" transform="translate(-1.75)"/><path class="arrow-left-right-crayon-path" d="M140.17,51.52c-.33.12-1.52-.47-.84.39C139.66,51.78,140.39,52.33,140.17,51.52Z" transform="translate(-1.75)"/><polygon class="arrow-left-right-crayon-path" points="131.43 40.39 131.6 40.53 133.04 39.09 131.43 40.39"/><path class="arrow-left-right-crayon-path" d="M121.46,36.41c.46,1,1-.83,1.29.22.49-.23-.26-.86.19-1C122.15,35.61,122.09,35.19,121.46,36.41Z" transform="translate(-1.75)"/><path class="arrow-left-right-crayon-path" d="M122.94,35.6a2.47,2.47,0,0,0,.44,0A1.24,1.24,0,0,0,122.94,35.6Z" transform="translate(-1.75)"/><path class="arrow-left-right-crayon-path" d="M1.78,15.32l0,0h0A1.47,1.47,0,0,0,1.8,15a4.21,4.21,0,0,1,.11.6l-.13-.2h0Z" transform="translate(-1.75)"/><path class="arrow-left-right-crayon-path" d="M2.87,17.07l-.56-1.28L3,17.15C3,17,2.78,16.81,2.87,17.07Z" transform="translate(-1.75)"/><path class="arrow-left-right-crayon-path" d="M87.09,17.14l.18-.26c0-.35-.07-.43-.32-.61Z" transform="translate(-1.75)"/><polygon class="arrow-left-right-crayon-path" points="77.96 13.15 78.08 13.22 78.19 12.03 77.96 13.15"/><path class="arrow-left-right-crayon-path" d="M72.83,13c.26.09.61-.11.87,0C73.09,13,73,11.51,72.83,13Z" transform="translate(-1.75)"/><path class="arrow-left-right-crayon-path" d="M169.59,57.81c-.08.15.76.12.91.15C170.32,57.7,169.37,57.81,169.59,57.81Z" transform="translate(-1.75)"/><path class="arrow-left-right-crayon-path" d="M161.79,55.15l5.94.27h.32l-.1,0-14.85-5.9,8.45,5.62.7.44Z" transform="translate(-1.75)"/><path class="arrow-left-right-crayon-path" d="M161.76,57.75c.7-.17.63-.38.45-.61s-.48-.52-.22-.75l.32-.07-1.14-.23C161.33,56.72,162.13,57.35,161.76,57.75Z" transform="translate(-1.75)"/><path class="arrow-left-right-crayon-path" d="M158.84,59.41c.54-.16.51.23.13-.34l-.13.08A.72.72,0,0,1,158.84,59.41Z" transform="translate(-1.75)"/><path class="arrow-left-right-crayon-path" d="M158.84,59.15c-.08-.27-.44.23,0,0Z" transform="translate(-1.75)"/><path class="arrow-left-right-crayon-path" d="M159.32,60.29l-.54-.25c-.31.12-.34.42-.59.35C158.51,60.69,158.82,60.56,159.32,60.29Z" transform="translate(-1.75)"/><path class="arrow-left-right-crayon-path" d="M160.4,60.42l-.23-.13C160,60.34,160,60.39,160.4,60.42Z" transform="translate(-1.75)"/><path class="arrow-left-right-crayon-path" d="M159.67,60l.5.28c.22-.08.67-.16-.19-.13C160.41,60.12,160,60.12,159.67,60Z" transform="translate(-1.75)"/><path class="arrow-left-right-crayon-path" d="M159.86,59.77c.28-.23.44-.49,1-.23C160.55,59,159.57,59.17,159.86,59.77Z" transform="translate(-1.75)"/><path class="arrow-left-right-crayon-path" d="M163.24,57.75l.4-.27-.49-.17C163.39,57.4,162.8,57.8,163.24,57.75Z" transform="translate(-1.75)"/><path class="arrow-left-right-crayon-path" d="M158.93,62.29c.3,0,.78-.24,1.15-.33l-.38-.15A1.52,1.52,0,0,1,158.93,62.29Z" transform="translate(-1.75)"/><path class="arrow-left-right-crayon-path" d="M160.08,62l.57.21C160.66,61.88,160.41,61.88,160.08,62Z" transform="translate(-1.75)"/><polygon class="arrow-left-right-crayon-path" points="160.22 60.21 159.05 59.83 160.26 60.31 160.22 60.21"/><polygon class="arrow-left-right-crayon-path" points="157.34 63.39 156.62 63.36 157.71 63.45 157.34 63.39"/><path class="arrow-left-right-crayon-path" d="M159.31,64c-.59,0-1,.26-1.33.22a2.8,2.8,0,0,0,1.1.23C158.82,64.39,158.86,64.25,159.31,64Z" transform="translate(-1.75)"/><path class="arrow-left-right-crayon-path" d="M159.75,64.57a3.87,3.87,0,0,0-.67-.11A3.63,3.63,0,0,0,159.75,64.57Z" transform="translate(-1.75)"/><path class="arrow-left-right-crayon-path" d="M160.6,62.7a2.16,2.16,0,0,0-.82.38l.82-.26Z" transform="translate(-1.75)"/><path class="arrow-left-right-crayon-path" d="M160.63,62.81h0a1.77,1.77,0,0,1,0,.24Z" transform="translate(-1.75)"/><path class="arrow-left-right-crayon-path" d="M160.6,62.67v0C160.68,62.68,160.7,62.66,160.6,62.67Z" transform="translate(-1.75)"/><path class="arrow-left-right-crayon-path" d="M161.36,61.19c.51.11,1.08.4,1.73-.11C162.49,61.06,162.12,61.35,161.36,61.19Z" transform="translate(-1.75)"/><path class="arrow-left-right-crayon-path" d="M161.62,62.34l.14-.36a2.11,2.11,0,0,1-.79.12Z" transform="translate(-1.75)"/><polygon class="arrow-left-right-crayon-path" points="160.17 62.44 159.87 62.34 159.82 62.47 160.17 62.44"/><path class="arrow-left-right-crayon-path" d="M160.5,64.08c.38.07.42.17.5.29a.56.56,0,0,0,.2-.46C160.93,63.93,160.44,63.93,160.5,64.08Z" transform="translate(-1.75)"/><path class="arrow-left-right-crayon-path" d="M160.65,63.48l0,0C160.77,63.47,160.79,63.46,160.65,63.48Z" transform="translate(-1.75)"/><path class="arrow-left-right-crayon-path" d="M161.14,66l.15,0h-.15Z" transform="translate(-1.75)"/><path class="arrow-left-right-crayon-path" d="M161.35,63.86c.15-.14-.06-.17-.34-.2a.42.42,0,0,1,.19.25C161.32,63.9,161.4,63.89,161.35,63.86Z" transform="translate(-1.75)"/><path class="arrow-left-right-crayon-path" d="M160.19,65a3,3,0,0,0,.44-.28C160.37,64.79,160,65,160.19,65Z" transform="translate(-1.75)"/><path class="arrow-left-right-crayon-path" d="M160.47,63.58h0C160.26,63.63,160.34,63.61,160.47,63.58Z" transform="translate(-1.75)"/><path class="arrow-left-right-crayon-path" d="M160.47,63.58a3.46,3.46,0,0,0,.54.08.82.82,0,0,0-.31-.16Z" transform="translate(-1.75)"/><path class="arrow-left-right-crayon-path" d="M166.65,66.09c-.79,0-1.55-.28-.73-.67-.62-.27-3.2.16-4.63.54a1.81,1.81,0,0,1,1.16.24c.42-.15,1-.79,1.68-.58.44.39-.25.37-.65.61,1-.25,1.47.44,2.91.24l-.53-.34C166.08,66.1,166.45,66.21,166.65,66.09Z" transform="translate(-1.75)"/><path class="arrow-left-right-crayon-path" d="M161.32,65.36l-.11-.12a2.94,2.94,0,0,1-1,.53,2.16,2.16,0,0,0,1,.2l.06-.65Z" transform="translate(-1.75)"/><path
    class="a"
    d="M161.16,64.66c.86,0,1.26.3,2.17,0-.1-.37-.74-.22-1.14-.38.27.57-.49-.14-.94.35a.93.93,0,0,1-.25-.28l-.37.32.06,0h0c.1,0,.16,0,.1,0h.35c-.16.19-.22,0-.33,0h-.13l.52.57C161.32,65.1,161.28,64.94,161.16,64.66Z"
    transform="translate(-1.75)"/><path class="arrow-left-right-crayon-path" d="M165,61.09a.77.77,0,0,1-.19,0C164.89,61.17,165,61.17,165,61.09Z" transform="translate(-1.75)"/><path class="arrow-left-right-crayon-path" d="M164.51,61.44c-.13,0-.47,0-.41-.16.23-.18.4-.08.68-.14a1,1,0,0,0-1,.16l.13,0a3.51,3.51,0,0,1-1.37.8A14.28,14.28,0,0,0,164.51,61.44Z" transform="translate(-1.75)"/><path class="arrow-left-right-crayon-path" d="M163.1,63.16l.49.42.71-.35-.45.08C164,63,163.45,63.14,163.1,63.16Z" transform="translate(-1.75)"/><polygon class="arrow-left-right-crayon-path" points="158.97 66.09 158.05 66.1 159.36 66.29 158.97 66.09"/><polygon class="arrow-left-right-crayon-path" points="159.13 66.75 158.34 66.78 158.82 66.92 159.13 66.75"/><path class="arrow-left-right-crayon-path" d="M165.88,102.58l-.08.22A.35.35,0,0,0,165.88,102.58Z" transform="translate(-1.75)"/><path class="arrow-left-right-crayon-path" d="M167.06,102.91l-.13-.42A.9.9,0,0,0,167.06,102.91Z" transform="translate(-1.75)"/><path class="arrow-left-right-crayon-path" d="M162.76,83.83c-.72.16-1.88.24-1,.2l.88-.06C162.49,83.93,162.58,83.88,162.76,83.83Z" transform="translate(-1.75)"/><path class="arrow-left-right-crayon-path" d="M170,95l.23.18-.38-.48-.5-.6C169.61,94.41,169.9,94.8,170,95Z" transform="translate(-1.75)"/><path class="arrow-left-right-crayon-path" d="M173.08,98.53l-.53-.22A1.28,1.28,0,0,0,173.08,98.53Z" transform="translate(-1.75)"/><path class="arrow-left-right-crayon-path" d="M158.55,100l-.36.85C158.6,101.19,158.47,100.53,158.55,100Z" transform="translate(-1.75)"/><path class="arrow-left-right-crayon-path" d="M161.63,73.8c-.32.22-.46.39-.49.54C161.62,74.06,162.36,73.82,161.63,73.8Z" transform="translate(-1.75)"/><path class="arrow-left-right-crayon-path" d="M161.91,89.68c.06.25.14.54.25.87A6,6,0,0,0,161.91,89.68Z" transform="translate(-1.75)"/><path class="arrow-left-right-crayon-path" d="M161.19,74.93c.08,0,.12-.08.19-.12-.15-.14-.28-.28-.24-.47C160.78,74.55,160.57,74.77,161.19,74.93Z" transform="translate(-1.75)"/><path class="arrow-left-right-crayon-path" d="M138.55,82.9s0-.07,0-.11S138.52,82.89,138.55,82.9Z" transform="translate(-1.75)"/><path class="arrow-left-right-crayon-path" d="M138.69,71.69a1.09,1.09,0,0,1,.38.18C139,71.78,139,71.72,138.69,71.69Z" transform="translate(-1.75)"/><path class="arrow-left-right-crayon-path" d="M160.68,69.49c-.07-.14-.1,0,0,0Z" transform="translate(-1.75)"/><path class="arrow-left-right-crayon-path" d="M164.06,68.58a1.55,1.55,0,0,0,.42,0A1.92,1.92,0,0,1,164.06,68.58Z" transform="translate(-1.75)"/><path class="arrow-left-right-crayon-path" d="M166.69,76h0C166.85,76,166.82,76,166.69,76Z" transform="translate(-1.75)"/><path class="arrow-left-right-crayon-path" d="M161.06,69.25a.88.88,0,0,0-.25.2A.77.77,0,0,0,161.06,69.25Z" transform="translate(-1.75)"/><path class="arrow-left-right-crayon-path" d="M160.65,69.3l.07-.13C160.58,69.16,160.49,69.18,160.65,69.3Z" transform="translate(-1.75)"/><path class="arrow-left-right-crayon-path" d="M160.73,69.69a.33.33,0,0,1,.08-.24c-.06,0-.11,0-.13,0S160.71,69.59,160.73,69.69Z" transform="translate(-1.75)"/><path class="arrow-left-right-crayon-path" d="M149.33,88.82s0,0,0-.08C149,88.93,149.1,88.92,149.33,88.82Z" transform="translate(-1.75)"/><path class="arrow-left-right-crayon-path" d="M173,88.59l-.05,0,0,0Z" transform="translate(-1.75)"/><path class="arrow-left-right-crayon-path" d="M173.88,89.64c-1.24-.8-1.13-.9-.92-1.07-.9-.23-1.79-.47-2.69-.74C171.47,88.39,172.68,89,173.88,89.64Z" transform="translate(-1.75)"/><path
    class="a"
    d="M163,102l.65,1.28c-.28,1.37-.87.54-.14,2.23-.17-1.23,0-1.51.28-1.51.45-.24,1.28.36.76-1.81l.44.76c-.08,0,0,.15-.13.1,1,1.68-.25-2.32.48-1.65a1.88,1.88,0,0,1,.55,1.14l.23-.64c.16.1.31.61.15.52l.64,0,0,.08a3,3,0,0,1,0-.44c0-.36-.07-.71-.08-.89.35.46,0,.27.22.65l.12-.58c.47.77.43,1.4.1,1.23,1.55,2.94.05-.62,1.58,1.17l-.24.29c.94,1.6,1,1.07,1.91,2-.35-.47-2-2.51-1.87-3.11.22.23.43.35.41-.13.45.94.57.75.82.76l.59,1.21c.12-.31-.22-.91-.33-1.4a7,7,0,0,1,1.37,1.85c.54.27-1.07-1.48-.67-1.55a1.46,1.46,0,0,0,.22.17,1,1,0,0,0,.25,0c.3-.24.33-.84.31-1.65.46.11.4.73.68.95l-.38-1.13c.06,0,.23.26.31.41-.08-.55-.73-1.14-.76-1.78-.41-.67,0-.39.39-.17s.86.38.38-.57a11,11,0,0,1,.9,1.19,11.2,11.2,0,0,0-1.33-3l.76.33A13.34,13.34,0,0,1,170,95c-.15-.1-.51-.44-.72-.63l-.54-.5c-.3-.5-.6-1-.91-1.45a17.71,17.71,0,0,1,1.52,1.68l-.4-.52a4.5,4.5,0,0,1,.5.44l.53.54c.29.33.62.73.93,1.14l-.68-.52c.67.87,1.38,1.81,2,2.48a2.36,2.36,0,0,1-.27-.52,4.48,4.48,0,0,0,.45.54c.12.1-.11-.22-.38-.62l1.26,1.18-.49-.56c.29,0,.62,0,.93,0-1.24-1.93-3.32-4.34-4.06-5.71a32.19,32.19,0,0,0,3,2.53c-1.32-.83.57,1.27.26,1.56.15-.14.72.44.92.69-.36-.67-.73-1.32-1.15-2,1,.89.78.44,1.22.53-2.06-1.46-1.4-1.83-2.08-2.7.71.49,1.45,1.11,1.29,1.49.79.32.17-.34-.5-1s-1.39-1.28-.72-1.08c0,.13-.08.12.29.42-.67-.71-.23-1,.43-.5l0,.13a3.67,3.67,0,0,0-2.23-3.54c.23.09,2.27,1.07,2.65,1.29a41.66,41.66,0,0,0-6.55-3.66c.82.3,2.18.68,3.42,1A7.55,7.55,0,0,1,173,88.55c.19-.14.41-.36-.25-1a6.25,6.25,0,0,1-2.4-.52c1.66,0,.88-.06,2.22-.42a6.19,6.19,0,0,1-2.78-.85c.38.11,2.4.37,2.68.55a25.17,25.17,0,0,0-2.56-1.17,5.8,5.8,0,0,0,2.64.12c-.44.06-.14-.81-.43-1.07l-.45.37c.1-1-3.46-.88-3.51-1.57.48,0,2.93-.07,3.08-.63-.6,0-2,0-3.41,0a10.63,10.63,0,0,1-3.23-.1l.62-.27-.85-.31c.88,0,2.26-.07,3.6-.08a13.82,13.82,0,0,1,3.42.19,2.11,2.11,0,0,1,.5-.4c.11-.07.12-.21,0-.37.57-.26,1-.06,1.05.21a2.24,2.24,0,0,1,.06-.61l.09-.48c-1.3.35-1.46-.32-2.55,0l1.58.61c-1.29.35-3.85.33-3.75-.34a21.21,21.21,0,0,1,2.79-.52c-.47,0-1-.32-.65-.38l.74,0c.22-.17-.22-.13-.58-.17s-.63-.19,0-.47c.07-.15,1.67-.63.88-.56a46.08,46.08,0,0,1-7.37,1,11.31,11.31,0,0,1,2.1-1.23c1.17-.37,2.89,0,3.89-.27a3.56,3.56,0,0,1-1-.09c.3-.18,1.14-.06.94-.37-1.36.09.05-.68-1.16,0-.42-.29.24-.37.15-.75a7.11,7.11,0,0,1-3.44-.38,5.33,5.33,0,0,0,1-.18c.06-.7.65-1.12.62-1.76a2.47,2.47,0,0,1,1.29-.32c-.24-.08-.71-.13-.75-.33,1.15-.46.21.43,1.6,0-.79,0-1.12-.43-1.64-.68-1.21.16-.19.67.32.91a7.15,7.15,0,0,1-4.3-.89c-.45-.52,1.08-.3.83-.38.24-1-3-.69-1.83-1.6a11.16,11.16,0,0,1,2.91-.25c.43.41-.64.7-.58,1l.49-.4c.36.12.65.4.35.57.94-.33.08-1.7.93-2.53a1.85,1.85,0,0,0-1.18-.2l.16.24c-.85.27-1.22-.39-1.61-.06-.62-.29-1.6-.6-1.14-1.08l1.21-.17c-.35,0-.71.35-.32.45-.56-.15,1.61-.81,0-.91l-.83.37c-.63-.28-2-.6-1.6-1-1.19.27.15.08-1.25.47,1.74-.37,0,1,1.82.5-1.62.4-.67.56-2,1,.4,0,.76-.19.58.16l.36.06,0,0,0,0c.06,0,.08,0,0,0a2.12,2.12,0,0,1,.6-.21c.94.11.94.66,1.43.82-.18.21-.47-.06-.89.07l.73.24c-.89.08-1.45.63-2,.17v.44c-.49.28-.67.65-.28.84-.18.22,1,.47.31.33l.6.66h-.23c-.07.7,1.57,1.31,0,2.22.24.22.54.43.31.85l-.76.13c.29.28-.71,1,.11,1-2,.52-.31,1.55-.62,2.13l1-.09c0,.38.32.71.78,1.13l.89-.14c.74.15-.43,1.48-.19,2-.35,0-.3-.16-.12-.32-.9.63-.45.93.06,1.2a2.6,2.6,0,0,1,.66.41c.12.11.08.17-.27.32.34,0,.25.09,0,.16h-.05a0,0,0,0,0,0,0l-.46.14a4.48,4.48,0,0,0,.46-.12,1,1,0,0,0,.41.18l-1,.08h0c-.35.07.48,0,1.21,0l.63.12c-.79,0-.65.09-.51.16s.27.15-.59.13c.86.11.73.46,2.59.9-.24,0-.35,0-.38-.1-.17.1-.36.17.19.42l-1.33-.3c.62.24,1.25.51,1.88.81a6.35,6.35,0,0,1-2.34-.68,5.64,5.64,0,0,1,1.18.69,14,14,0,0,0,1.19.79l-.91-.41c.06.12,1.33.92.59.64s-.84,0-.82.3.06.75-.76.33c1.43,1.1,1.12.92.73.68s-.87-.58.26.41a17.92,17.92,0,0,1-1.67-1.43c.35.41.09.27,0,.23s-.08,0,.9,1.08c-.7-.66-1-1-1.44-1.43.15.16.61.66.2.27s-.59-.62-.9-.94c.13.25,2.3,2.54,4.33,4.71-.94-.81-.81-.62.54,1a10,10,0,0,1-1.61-1.84c-.08,0-1-.46.67,1.58-.41-.47-.12,0,.06.31-.12.18-.25,0-.15.51l.28.28c1.93,2.81.4.89.56,1.47l-.19-.3c-.77-.73-.64-.45-.52-.16s.2.53-.71-.49L167,95.58c1.23,2.08.74,1.59,0,.73l-.51-.62-.45-.68c-.24-.37-.37-.52-.23-.18l.7,1.16c.3.64-.6-.83-1.54-2.5l-2.13-3.79c-.19-.36-.25-.54-.36-.79-1.38-2.44,1.22,2.41,1.26,2.85-.66-1.3-1.56-3.25-1.77-3.54-.27-.53.17.48.45,1.28s.39,1.37-.17.15a22.43,22.43,0,0,1,1,2.58c0,.07-.22-.28-.43-.69-.49-.93-1-2.15-.43-.27-.11-.26-.19-.5-.27-.72a21,21,0,0,0,.28,2.31c-.65-2.16-.76-2.28-.81-2s0,1-.2.71a8,8,0,0,1-.37-1.6l-.32,0-.05-.44c-.24-.45-.22.51-.26,1.42a3.75,3.75,0,0,1-.07-.89c-.41-1.12-.31-.88-.78.71l0-1.24c-.07.32-.18-.27-.27-.76s-.18-.87-.5-.38c0-.12.1-.32.16-.45-.34.48-.35-.42-.32-.89s0-.59-1,.91a7.5,7.5,0,0,1-.78.51c.12.27-.1.6-.39.92s-.67.62-.72,1c-.38,0,.09-1.31.46-1.26l-.08.17c.59-.73.6-.94.43-1.19s-.35-.41,0-.91c-1.22-.83-1.69-2.54-2.71-3.48l-.8,1.24-.33-.37c.12-.35.6-1,.83-.73.38-.76-.89.17-1.1.41-.15-.89,1.28-1.15,1.14-1.31l-.28-.1-.06.18c-.56.31-1,.79-1.25.47,0-.39.47-.78.42-.89s.07-.14-.09-.14L152,82l-.55,1c-.57.27-.41-.41-1,.78,1-1.82-1.31-2-1.11-2.68-.83.4-1.11.15-1.41-.23-.06.26-.84,1.3-1.05.92,1.83-2,.18-1.37,1.16-3.06-.59,1.17-1.09-.5-1.9,1.19-.12-.39.63-.79.83-1.44-1.28.28-.94-1.66-1.94-2-.24.26-.45.78-.95,1l.7-1.69c-.26,0-1.42,1.45-.93.27-.15.27-.37.66-.55.66a2.16,2.16,0,0,0-.81-1.37,5.42,5.42,0,0,0-.64-.42c-.22-.12-.48-.26-.59-.3a2.52,2.52,0,0,1-1-1,6.43,6.43,0,0,1-.59-2.3c-.08.79-.33.68-.59.53.06.24-.51.71-.75,1.12a9.23,9.23,0,0,0-.33-1.76c-.79,1-1.24-.46-1.84.73l.42-.12a5.43,5.43,0,0,0-.86,2.3,10.65,10.65,0,0,1-.92,2.6c.5-.71.43,0,.26.5s-.3,1,.64.18c-.16.37-.45.42-.68.81.6-.57.84-.6.83-.12l-.16.13a1.5,1.5,0,0,1,.68,1c.07.23.14.49.26.79.06.15.18.35.24.49s.1.27.17.41l.53-.79c.11.25,0,.51-.1.77,1.12-1-.48-.49.71-1.57-1,1.7,1.32,1.1.11,2.94.28.24.6-.92.89-.68l-.3.53.55-.53c.11.25-.26.9-.57,1.29,0-.08-.22,0-.3,0-.19.74.85.38.79.63l-.05-.51c1.14.22,1.61,1.62,3.15,1.33l.22-.39c1.12-.15.16.76,1.05,1l-.1.06c.42-.23.73-.26.88-.08-.5.27-.35,1-.93,1.31,1.2-.15.76-.27,2.25-1.2l-.38.65c.57-.39.81-.65,1.25-.53-.67.27-.51,1-1.35,1.44-.36,1.81,2.06-.42.85,1.66,1.63-1.32.14-1.37.6-1.56.28-.64,1.24-1,1.32-.63s-1.31,2.33-.73,2.75c-.05,0-.15.07-.2,0-.13.57.85-.22.57.65.93-.84.28.32,1.32-.87l-.73-.13c.55-.08,2-1.3,1.89-.22a3.32,3.32,0,0,1-.89.53c-.15.48.46,0,.31.47-1,1.2-.84-.23-1.91.45-.28.64,1.31-.41.07.79,1.6-1.51.37.66,1.8-.33l-.62.72c.15-.06.56-.31.65-.21l-1,.8c1-.57,0,1.19.68,1-.64-.48.57-1,.74-1.76,1.56-.38-1.11,2.29,0,2.63-.2,0-.09-.8.37-1a2.38,2.38,0,0,1-.17,1.22c.7.3.51-.84,1.12-1.11-.52,1.07.57-.14,1.05-.24l-.59.76c.28,1,1.39-1.46,1.52-.41-.38.27-.71.57-1.07.86a1.63,1.63,0,0,1,.55,0l-.77.79c1-.22,1,0,1.39.74.24-.68,1-1.47,1.37-1.19,0,.75-.6.71.06,1.06-.39.46-.92,1-.77,0-.18.26-.44.43-.62.68,0,.87.81.86,1,1a.66.66,0,0,1-.16-.42,9.67,9.67,0,0,0,1.43-.56,1,1,0,0,1-.42.87c.23,0,.51-.29.79-.17-.32.75-.56,1.6-1.12,1.63.43,0,.84-.08,1.23-.14-.05.41.23,1.39,0,1.6.22.47.66.32,1.08.19s.81-.29,1.12.32a.42.42,0,0,1,.29-.31c.58.65,1.2,2.26,1.9,1.39.17.68.35,1.36.54,2,.3,0,.1-.68,0-1.33s-.21-1.31.2-1.37c.56-.21.4,1.68.69,2.32.25-.7.46-2.18,1.22-.66l.09.17a.39.39,0,0,1,0,.09C163.3,102.29,163.13,102,163,102Zm5.62.8c0,.17,0,.76-.29.17C168,101.91,168.28,102.48,168.61,102.84Zm3.07-6.93c.28.38.13.36-.2.17C171.41,95.9,171.45,95.82,171.68,95.91ZM161.55,71.05h0C161.24,71.32,161.38,71.23,161.55,71.05Zm.39-.52a.77.77,0,0,0-.4,0c.24,0,.27.13.21.26C162,70.74,162.17,70.67,161.94,70.53Zm-9.7,12.28-.09.25C151.8,83.14,152,83,152.24,82.81Z"
    transform="translate(-1.75)"/><path class="arrow-left-right-crayon-path" d="M172.73,98.12a6.1,6.1,0,0,1-.45-.44A1.25,1.25,0,0,0,172.73,98.12Z" transform="translate(-1.75)"/><path class="arrow-left-right-crayon-path" d="M158.61,99.88s0,0,0,0a1.06,1.06,0,0,0,0,.19Z" transform="translate(-1.75)"/><path class="arrow-left-right-crayon-path" d="M170.66,77.58a1.28,1.28,0,0,1-.48.24C170.42,77.8,170.61,77.74,170.66,77.58Z" transform="translate(-1.75)"/><path class="arrow-left-right-crayon-path" d="M160.15,68l.27.29c-.06-.14.15-.21.3-.3C160.49,68,160.17,68.13,160.15,68Z" transform="translate(-1.75)"/><path class="arrow-left-right-crayon-path" d="M165.9,64.87c-.13,0,0-.1-.15-.14l-.44.06A.36.36,0,0,0,165.9,64.87Z" transform="translate(-1.75)"/><path class="arrow-left-right-crayon-path" d="M163.33,67.53c.81-.08.52-.26.35-.47,0,0,0,0,0,0C162.55,67.11,162.94,67.32,163.33,67.53Z" transform="translate(-1.75)"/><path class="arrow-left-right-crayon-path" d="M163.65,67a.18.18,0,0,1,0-.2C163.16,66.82,163.53,66.9,163.65,67Z" transform="translate(-1.75)"/><path class="arrow-left-right-crayon-path" d="M161.37,69.93c.2-.11-1,0-.72-.08C159.62,69.79,161.94,70.48,161.37,69.93Z" transform="translate(-1.75)"/><polygon class="arrow-left-right-crayon-path" points="164.24 67.17 163.24 67.31 164.06 67.39 164.24 67.17"/><path class="arrow-left-right-crayon-path" d="M165.36,69l.26-.38a.5.5,0,0,1-.35-.07C165.25,68.75,165.07,69,165.36,69Z" transform="translate(-1.75)"/><path class="arrow-left-right-crayon-path" d="M165.27,68.53a.24.24,0,0,0-.18-.28A.41.41,0,0,0,165.27,68.53Z" transform="translate(-1.75)"/><polygon class="arrow-left-right-crayon-path" points="164.57 67.64 164.37 67.75 164.31 68.01 164.57 67.64"/><path class="arrow-left-right-crayon-path" d="M165.39,72.83l.32.38c.34,0,.54-.1.4-.24S165.72,72.75,165.39,72.83Z" transform="translate(-1.75)"/><path class="arrow-left-right-crayon-path" d="M168.06,71.49a2.7,2.7,0,0,1-.75.22l1.24-.06Z" transform="translate(-1.75)"/><path class="arrow-left-right-crayon-path" d="M168.42,72.6c.35,0,1,.5.91,0C169,72.6,168.68,72.23,168.42,72.6Z" transform="translate(-1.75)"/><polygon class="arrow-left-right-crayon-path" points="165.59 78.54 165.56 78.44 163.54 78.69 165.59 78.54"/><path class="arrow-left-right-crayon-path" d="M173.34,83.39c.3-.81-1.32-.08-.86-.8-.52-.1-.37.58-.83.45C172.26,83.4,172,83.66,173.34,83.39Z" transform="translate(-1.75)"/><path class="arrow-left-right-crayon-path" d="M171.65,83a1.73,1.73,0,0,0-.36-.17A1.24,1.24,0,0,0,171.65,83Z" transform="translate(-1.75)"/><path class="arrow-left-right-crayon-path" d="M137.67,69.93c-.09-.19-.19-.39-.29-.56l0,.73Z" transform="translate(-1.75)"/><path class="arrow-left-right-crayon-path" d="M136.27,71.07l.34-1.25c-.22.35-.44.71-.65,1.07C136.07,70.85,136.3,70.78,136.27,71.07Z" transform="translate(-1.75)"/><path class="arrow-left-right-crayon-path" d="M170.67,105.52l-.12-.3c-.21-.33-.29-.36-.46-.43Z" transform="translate(-1.75)"/><polygon class="arrow-left-right-crayon-path" points="164.2 103.99 164.28 104.03 163.73 102.62 164.2 103.99"/><path class="arrow-left-right-crayon-path" d="M162,104.57c.21.16.41-.06.61.11C162.24,104.73,161.8,102.66,162,104.57Z" transform="translate(-1.75)"/></svg>
