<svg xmlns="http://www.w3.org/2000/svg" viewBox="0 0 120.2 143.14" preserveAspectRatio="xMidYMid meet" id="arrow-double-down-crayon">
  <title>arrow-double-down-crayon</title><path class="arrow-double-down-crayon-path" d="M75,117.32c.07-.16-.77-.1-.92-.13C74.29,117.46,75.24,117.31,75,117.32Z" transform="translate(-1.46)"/><polygon class="arrow-double-down-crayon-path" points="81.32 115.5 81.67 115.53 80.81 115.17 81.32 115.5"/><path class="arrow-double-down-crayon-path" d="M82.64,113c-1.4.34.3.89-.18,1.37l-.32.1,1.16.13C83.08,114,82.27,113.39,82.64,113Z" transform="translate(-1.46)"/><path class="arrow-double-down-crayon-path" d="M85.61,111.37c-.55.14-.51-.25-.15.34l.13-.07A.69.69,0,0,1,85.61,111.37Z" transform="translate(-1.46)"/><path class="arrow-double-down-crayon-path" d="M85.59,111.64c.07.26.46-.22,0,0Z" transform="translate(-1.46)"/><path class="arrow-double-down-crayon-path" d="M85.17,110.44l.52.3c.32-.1.37-.42.62-.33C86,110.08,85.68,110.19,85.17,110.44Z" transform="translate(-1.46)"/><path class="arrow-double-down-crayon-path" d="M84.1,110.21l.22.16C84.46,110.33,84.5,110.27,84.1,110.21Z" transform="translate(-1.46)"/><path class="arrow-double-down-crayon-path" d="M84.8,110.71l-.48-.34c-.22.07-.68.12.18.16C84.08,110.54,84.49,110.58,84.8,110.71Z" transform="translate(-1.46)"/><path class="arrow-double-down-crayon-path" d="M84.6,110.94c-.29.23-.46.5-1,.19C83.87,111.78,84.86,111.59,84.6,110.94Z" transform="translate(-1.46)"/><path class="arrow-double-down-crayon-path" d="M81.16,113l-.4.28.5.19C81,113.35,81.6,112.91,81.16,113Z" transform="translate(-1.46)"/><path class="arrow-double-down-crayon-path" d="M85.69,108.24c-.3,0-.79.19-1.18.26l.38.21A1.42,1.42,0,0,1,85.69,108.24Z" transform="translate(-1.46)"/><path class="arrow-double-down-crayon-path" d="M84.51,108.5l-.55-.32C83.93,108.51,84.18,108.55,84.51,108.5Z" transform="translate(-1.46)"/><polygon class="arrow-double-down-crayon-path" points="81.05 110.3 82.2 110.82 81.03 110.19 81.05 110.3"/><polygon class="arrow-double-down-crayon-path" points="84.14 106.86 84.86 106.99 83.76 106.73 84.14 106.86"/><path class="arrow-double-down-crayon-path" d="M85.39,106c.6.1,1-.29,1.34-.16-.13-.24-.65-.4-1.11-.55C85.88,105.44,85.84,105.65,85.39,106Z" transform="translate(-1.46)"/><path class="arrow-double-down-crayon-path" d="M84.94,105a4,4,0,0,0,.68.27A1.89,1.89,0,0,0,84.94,105Z" transform="translate(-1.46)"/><path class="arrow-double-down-crayon-path" d="M84.05,107.54a1.8,1.8,0,0,0,.83-.37l-.83.23Z" transform="translate(-1.46)"/><path class="arrow-double-down-crayon-path" d="M84,107.41h0a1.67,1.67,0,0,1,0-.31Z" transform="translate(-1.46)"/><path class="arrow-double-down-crayon-path" d="M84.05,107.58v0C84,107.56,83.94,107.57,84.05,107.58Z" transform="translate(-1.46)"/><path class="arrow-double-down-crayon-path" d="M83.19,109.24c-.5-.17-1.06-.57-1.74-.06C82.05,109.28,82.44,109,83.19,109.24Z" transform="translate(-1.46)"/><path class="arrow-double-down-crayon-path" d="M83,107.86l-.16.41a1.76,1.76,0,0,1,.79,0Z" transform="translate(-1.46)"/><polygon class="arrow-double-down-crayon-path" points="81.25 107.7 81.54 107.86 81.6 107.71 81.25 107.7"/><path class="arrow-double-down-crayon-path" d="M84.2,105.71a.68.68,0,0,1-.51-.51,1.09,1.09,0,0,0-.2.68C83.76,105.89,84.25,105.94,84.2,105.71Z" transform="translate(-1.46)"/><path class="arrow-double-down-crayon-path" d="M84,106.54l-.06,0C83.91,106.54,83.89,106.56,84,106.54Z" transform="translate(-1.46)"/><path class="arrow-double-down-crayon-path" d="M83.55,103.19l-.15,0h.14Z" transform="translate(-1.46)"/><path class="arrow-double-down-crayon-path" d="M83.34,105.93c-.15.18.06.26.34.33a.72.72,0,0,1-.19-.38C83.37,105.88,83.29,105.88,83.34,105.93Z" transform="translate(-1.46)"/><path class="arrow-double-down-crayon-path" d="M84.5,104.47a3.12,3.12,0,0,0-.44.32C84.32,104.68,84.73,104.48,84.5,104.47Z" transform="translate(-1.46)"/><path class="arrow-double-down-crayon-path" d="M84.22,106.43l0,0C84.43,106.38,84.34,106.4,84.22,106.43Z" transform="translate(-1.46)"/><path class="arrow-double-down-crayon-path" d="M84.22,106.43a3.13,3.13,0,0,0-.54-.17,1,1,0,0,0,.3.25A1.12,1.12,0,0,1,84.22,106.43Z" transform="translate(-1.46)"/><path class="arrow-double-down-crayon-path" d="M78,102.92c.79,0,1.55.38.72.82.63.34,3.2-.09,4.64-.51a1.59,1.59,0,0,1-1.16-.32c-.42.16-.95.92-1.69.64-.44-.48.25-.43.66-.71-1,.28-1.48-.56-2.92-.37l.54.43C78.61,102.92,78.24,102.78,78,102.92Z" transform="translate(-1.46)"/><path class="arrow-double-down-crayon-path" d="M83.37,104l.11.15c.12-.19.43-.34,1-.62a1.81,1.81,0,0,0-1-.26l-.05.77Z" transform="translate(-1.46)"/><path
    class="a"
    d="M83.53,104.81c-.86-.06-1.26-.41-2.17-.11.09.46.74.27,1.14.52-.27-.73.49.17.94-.4a.8.8,0,0,1,.25.38,2.33,2.33,0,0,1,.37-.41l-.06,0h0c-.11,0-.17.06-.11,0a0,0,0,0,1,0,0h-.33c.16-.23.22-.06.33,0H84l-.52-.7C83.37,104.27,83.41,104.47,83.53,104.81Z"
    transform="translate(-1.46)"/><path class="arrow-double-down-crayon-path" d="M79.57,109a.77.77,0,0,1,.19,0C79.65,108.88,79.58,108.86,79.57,109Z" transform="translate(-1.46)"/><path class="arrow-double-down-crayon-path" d="M80.05,108.59c.13,0,.48.06.41.25-.25.18-.41,0-.7.07a.86.86,0,0,0,1-.06l-.12,0a3.3,3.3,0,0,1,1.42-.8A13.29,13.29,0,0,0,80.05,108.59Z" transform="translate(-1.46)"/><path class="arrow-double-down-crayon-path" d="M81.56,106.67l-.48-.58-.71.38.45,0C80.67,106.79,81.22,106.66,81.56,106.67Z" transform="translate(-1.46)"/><polygon class="arrow-double-down-crayon-path" points="82.51 103.09 83.42 103.11 82.12 102.84 82.51 103.09"/><polygon class="arrow-double-down-crayon-path" points="82.36 102.3 83.15 102.28 82.66 102.1 82.36 102.3"/><path class="arrow-double-down-crayon-path" d="M74.39,55.89l-.22-.19A.77.77,0,0,0,74.39,55.89Z" transform="translate(-1.46)"/><path class="arrow-double-down-crayon-path" d="M74.33,57.23l.39,0C74.51,57.2,74.35,57.18,74.33,57.23Z" transform="translate(-1.46)"/><path class="arrow-double-down-crayon-path" d="M83.53,82.4c.74-.25,1.9-.52,1-.51l-.87.06C83.82,82.14,83.72,82.28,83.53,82.4Z" transform="translate(-1.46)"/><path class="arrow-double-down-crayon-path" d="M78.79,68.35l-.27.07.83.21Z" transform="translate(-1.46)"/><path class="arrow-double-down-crayon-path" d="M75.2,68.06l.57-.34A2.45,2.45,0,0,0,75.2,68.06Z" transform="translate(-1.46)"/><path class="arrow-double-down-crayon-path" d="M73.44,48.52l-.88-.21C72.57,48.65,73,48.5,73.44,48.52Z" transform="translate(-1.46)"/><path class="arrow-double-down-crayon-path" d="M83.2,94.06a1.11,1.11,0,0,0,.52-.58C83.22,93.76,82.48,94,83.2,94.06Z" transform="translate(-1.46)"/><path class="arrow-double-down-crayon-path" d="M83.6,56.43a.85.85,0,0,0-.53-.16A.69.69,0,0,0,83.6,56.43Z" transform="translate(-1.46)"/><path class="arrow-double-down-crayon-path" d="M83.71,92.82a1.76,1.76,0,0,0-.2.12.63.63,0,0,1,.21.54C84.09,93.27,84.31,93,83.71,92.82Z" transform="translate(-1.46)"/><path class="arrow-double-down-crayon-path" d="M74,21.62l.1-.06C74,21.55,74,21.58,74,21.62Z" transform="translate(-1.46)"/><path class="arrow-double-down-crayon-path" d="M82.87,13.56A1.26,1.26,0,0,1,83,14C83,13.94,83,13.81,82.87,13.56Z" transform="translate(-1.46)"/><path class="arrow-double-down-crayon-path" d="M84,99.06c.06.16.1,0,0,0Z" transform="translate(-1.46)"/><path class="arrow-double-down-crayon-path" d="M80.64,100a1.16,1.16,0,0,0-.43-.05A1.34,1.34,0,0,1,80.64,100Z" transform="translate(-1.46)"/><path class="arrow-double-down-crayon-path" d="M78.3,91.11h0C78.13,91.15,78.17,91.14,78.3,91.11Z" transform="translate(-1.46)"/><path class="arrow-double-down-crayon-path" d="M83.65,99.33a1.12,1.12,0,0,0,.25-.23A1,1,0,0,0,83.65,99.33Z" transform="translate(-1.46)"/><path class="arrow-double-down-crayon-path" d="M84.06,99.28a.74.74,0,0,0-.08.15C84.12,99.44,84.21,99.42,84.06,99.28Z" transform="translate(-1.46)"/><path class="arrow-double-down-crayon-path" d="M84,98.82a.41.41,0,0,1-.07.28.15.15,0,0,1,.13,0A1.15,1.15,0,0,1,84,98.82Z" transform="translate(-1.46)"/><path class="arrow-double-down-crayon-path" d="M76.39,36l.08,0C76.11,35.83,76.17,35.9,76.39,36Z" transform="translate(-1.46)"/><path class="arrow-double-down-crayon-path" d="M74.65,77.57l0,0,0,0Z" transform="translate(-1.46)"/><path class="arrow-double-down-crayon-path" d="M74,76.92c1.07.31.93.45.7.65l2.51-.13Z" transform="translate(-1.46)"/><path
    class="a"
    d="M74.14,52.66l-.78.44c-1.29-.52-.85-.91-1.94-.49,2.72,0,.28,1.7,3,1.76l-.57.29c0-.08-.13-.1-.1-.18-1.3.57,2,.42,1.58,1.15a.8.8,0,0,1-.93.26l.67.56c0,.17-.52.12-.47,0l.21.86h-.08a9.79,9.79,0,0,1,1.37.54c-.39.22-.29-.11-.63-.06l.66.48c-.71.19-1.39-.2-1.29-.53-2.71.43.69.4-.9,1.35l-.35-.45c-1.54.28-1,.63-2,1.13.51-.12,2.43-1,3.1-.48-.2.14-.3.34.24.62-1,0-.73.27-.67.61l-1.28,0c.36.37,1,.35,1.59.57-.13.41-1.12.49-2,.57-.21.66,1.59-.43,1.83.35-.5.54,0,.92.78,1.59-.45.37-.79-.08-1.15,0l1,.36c0,.08-.34,0-.5,0,.39.29,1.28,0,1.62.5,1.41.15-2.07.89-.48,1.47-.37.13-.79-.08-1.28-.05a7.27,7.27,0,0,0,2.14,1.33l-.85.51c1-.37,2.1.16,3,.63.47-.13.88-.24,1.07-.32l.67.73a2.61,2.61,0,0,1-1.18-.13l.3.13a3,3,0,0,1-1.92-.11l.79-.23a9,9,0,0,0-2.37-.36.72.72,0,0,1,.34.24,1.6,1.6,0,0,0-.53-.07c-.14,0,.15.1.47.22L75,68.57l.56.06-.92.88c1.42.7,3.52,1.34,4.07,2.41a11.61,11.61,0,0,0-2.95-.17c1.33-.24-.52-.83-.24-1.36-.15.28-.74.2-.94.12l1.16,1c-1-.06-.77.18-1.19.42,2-.12,1.3.77,1.9,1.18-.67,0-1.35-.12-1.17-.59-1.53.48,2.32.77,1,1.24,0-.12.09-.17-.25-.23.59.29.09,1-.49.77v-.12a1.89,1.89,0,0,0,1.6,2.55c-.22,0-2-.17-2.39-.23l5.68,1.58c-1.46-.17-5,.19-5.75-.48-.22.18-.47.4,0,.81A5.74,5.74,0,0,1,77,78.34a10.07,10.07,0,0,0-2.28.84c.32-.18,2.6.1,2.52.4-.34,0-2.26,0-2.5-.16l2.23.82a6.33,6.33,0,0,0-2.55.06c.45-.07-.05.65.16.86l.53-.31c-.36.84,3.14.92,3,1.76-.46-.12-2.85-.33-3.14.1,1.14.22,5.52,1,6.39,1.74l-.66.13.73.58a58.39,58.39,0,0,1-6.75-2c-.53.3-.78.07-.73.55a.79.79,0,0,1-1-.43l-.42,1.11c1.35,0,1.33.88,2.45.86L73.62,84c1.35,0,3.8.78,3.55,1.55a14.64,14.64,0,0,1-2.84-.18c.47.11.88.76.55.83l-.72-.35c-.51.44,1.77.75.48,1.26-.09.18-1.73.52-.94.56a37.87,37.87,0,0,1,7.43-.07A11.7,11.7,0,0,1,78.9,88.7c-1.2.29-2.86-.47-3.9-.22a2.92,2.92,0,0,1,1,.25c-.32.19-1.14-.09-1,.33,1.36.08-.12.84,1.15.2.39.41-.28.43-.22.91A6.27,6.27,0,0,1,79.3,91a4.54,4.54,0,0,0-1,.11c-.13.83-.74,1.27-.74,2-.33.08-.73.46-1.32.3.25.11.71.21.74.45-1.17.47-.18-.53-1.6-.16.8,0,1.1.6,1.6.93,1.22-.12.23-.78-.27-1.12A6.55,6.55,0,0,1,81,94.88c.44.62-1.08.29-.84.4-.27,1.2,3,.94,1.78,1.94-1.06.43-2.14.09-2.91.2-.43-.51.65-.82.6-1.17l-.5.45c-.36-.16-.63-.5-.33-.69-1,.35-.13,2-1,3,.37.15.76.42,1.18.27L78.79,99c.85-.3,1.22.5,1.61.12.63.36,1.6.75,1.14,1.32l-1.22.16c.36,0,.71-.39.33-.53.55.2-1.62.92,0,1.09l.83-.42c.63.35,2,.76,1.6,1.25,1.2-.28-.14-.1,1.25-.52-1.75.39,0-1.21-1.82-.65,1.63-.43.67-.63,2-1.15-.4,0-.76.2-.58-.21a2.88,2.88,0,0,1-.36-.07s0,0,0,0l-.05,0c-.06,0-.07,0,0,0a2,2,0,0,1-.61.23c-.94-.16-.94-.8-1.42-1,.18-.25.46.08.89-.06l-.73-.3c.9-.07,1.47-.68,2-.14l0-.51c.49-.31.68-.72.3-1,.18-.24-1-.57-.3-.38l-.58-.78h.23c.09-.78-1.52-1.59.1-2.51-.23-.26-.51-.53-.26-1l.77-.09c-.27-.34.78-1,0-1.16,2.09-.36.46-1.64.84-2.24l-1,0c.06-.41-.23-.81-.63-1.32h-.9c-.72-.45.66-1.13.58-1.83.34.06.25.23,0,.36,2-.8-1.44-1.8,0-2.53-.32-.2-.2-.33,0-.46,0,0,0,0,0,0a.11.11,0,0,0,0-.08c.16-.08.34-.16.49-.25a2.19,2.19,0,0,0-.49.21,1.1,1.1,0,0,0-.34-.6l1-.06s0,0,0,0c.36-.21-.45-.19-1.18-.09a2.18,2.18,0,0,0-.57-.31c1.56-.13-.51-.58,1.16-.77-.81-.17-.58-1.12-2.28-1.29.23,0,.33-.06.34.06.21-.24.41-.47-.07-.71l1.23-.06-1.63-.59a2.4,2.4,0,0,1,2.13-.06c-1.43-.83-.53-.65-1.94-1.36l.79.06c0-.24-1.07-.65-.41-.77,1.52-.48.29-2.61,1.74-3.92-2.34.19,1.06-.59-.74-.71.55-.06.87-.24,1.34,0-.51-.72.91-1-.6-1.56.56-.06.81.18,1.13.11-.11-.06-.47-.23-.14-.3s.46.12.7.24c-.07-.72-1.77-.84-3.36-.94.77-.34.66-.52-.38-.81.53-.11,1.08-.31,1.26.14.08-.25.8-1.51-.48-1.56.32-.07.1-.35,0-.42.08-.55.2-.6.09-1.15l-.21.15c-1.54-.25-.34-.47-.52-.91h.16c1.13-1-.52-.44.76-1.42l-1,0c-2.06-.12,1.23-.87.44-1.46l-.55.2c-.7-.32,2.82-.85,3.08-1.17.18-.07.29.11.42.21,1.22-.83-1.26-.12-1.55-.74.68-.11,1.73.16,1.86-.26.55-.21-2.2-1.23-.89-1.8a1.71,1.71,0,0,1-1.44,0c-.19-.44,2-1.19.33-1.59a1,1,0,0,1,.41-.08c-.42-.34-.7-1.1-1.6-1.3,3.32-.32-1.61-2.1,1.44-2.09l-.16-1,.31,0c.2-.66-.54-.89-1.27-1.12.21-.15.49,0,.65,0,.61-1,.48-1.07-1-1.87l1-.09c-.58-.22,1.54-1.41.38-2.35a1.11,1.11,0,0,1,.44.1c-1.17-1.06,2.73-2.58-.88-2.94l-.9-.7c-.27.92-1.56-.12-2.16.26-.22-.35,1.08-.93,1.27-.49l-.18.07c1.88.14.66-1.14,1.94-1.13-.11-1.79.92-3.54,1-5.21l-1.47.2L81.9,36c.34-.16,1.15-.21,1.09.2.83-.22-.7-.69-1-.7.59-.82,1.71.31,1.74.06l-.11-.34-.17.08c-.6-.28-1.23-.3-1.16-.8.29-.31.9-.16,1-.29s.15,0,0-.19l.12-.73-1.16.29c-.57-.32.06-.69-1.24-.34,2-.51.71-2.74,1.34-3a1.15,1.15,0,0,1-.73-1.47c-.24.14-1.54.23-1.38-.26,2.68.18,1.16-.88,3.09-1.27-1.28.35-.31-1.37-2.13-.82.22-.4,1,0,1.63-.33-1-1,.68-2.11.33-3.29a3,3,0,0,1-1.42-.08L83.48,22c-.17-.23-2-.22-.81-.64-.29.06-.74.15-.85,0,.86-1.16.5-2.34.34-3.53A5.38,5.38,0,0,1,82.1,17a2.15,2.15,0,0,1,.17-.75,6.65,6.65,0,0,1,1.46-2c-.67.45-.74.15-.78-.18-.15.23-.86,0-1.34.08a6.2,6.2,0,0,0,1.18-1.58c-.71,0-.79-.51-1-1l-1.75-4.6-3.3,3.28c-.17.17-.31.34,0,.83l.08-.38a6,6,0,0,0,2,2l-.1,0a7.5,7.5,0,0,1-2.29.9c.85-.11.28.25-.25.48s-1,.46.25.81c-.4.13-.61-.13-1.06-.07.82.18,1,.39.59.78l-.2-.06a3.23,3.23,0,0,1-.36,1.66,12,12,0,0,0-.86,1.6l1-.1c-.13.3-.42.36-.66.5,1.44.34.08-.83,1.67-.52-1.93.39,0,2.08-2.22,2.33,0,.46,1.09-.13,1.08.33l-.59.11.76.12c-.13.3-.87.44-1.37.45.06-.07-.14-.2-.18-.28-.7.38.24,1.09,0,1.22l.36-.43c.56,1.23-.22,2.74,1,3.93l.44-.09c.83.91-.49.73-.1,1.73l-.11,0c.44.21.67.47.62.75-.52-.26-1,.47-1.6.14.89,1,.7.49,2.36,1.14l-.74.15c.67.22,1,.24,1.22.74-.64-.41-1.13.32-2-.14-1.62,1.06,1.64,1.56-.73,2.05,2,.47,1.13-.91,1.57-.64.67-.23,1.54.39,1.34.72,0,.33-2.63.58-2.58,1.42,0-.08-.15-.09-.14-.17-.53.32.71.61-.14,1,1.24.21-.07.5,1.52.55L76,34.89c.41.44,2.27.84,1.37,1.56a2.93,2.93,0,0,1-1-.41c-.47.21.31.4-.17.63-1.58-.06-.35-.94-1.56-1.4-.67.23,1.15.88-.56.65,2.18.33-.27.84,1.39,1.4l-.94,0c.15.08.59.27.57.43l-1.23-.29c1,.46-.91.9-.34,1.34,0-.93,1.14-.22,1.83-.62,1.28,1.14-2.47.68-2,2-.13-.17.57-.66,1-.39a2.24,2.24,0,0,1-1,.73c.2.84,1-.14,1.56.21-1.15.3.47.41.85.78h-1c-.61,1,2,.24,1.27,1.12l-1.34-.36.35.45L74,42.58c.82.48.61.64.31,1.13.68-.12,1.75,0,1.79.47-.58.3-.92-.16-.78.45-.61-.13-1.36-.28-.48-.55-.31,0-.6-.13-.91-.15-.66.32-.15.79-.14,1A.38.38,0,0,1,74,44.7l1.34.87a1.21,1.21,0,0,1-.94-.08c.11.18.55.3.64.56-.79-.06-1.6,0-2-.41l.88.83c-.34.06-.94.44-1.23.33-.45.47,1.53,1.13.93,1.74a.71.71,0,0,1,.41.23c-.17.57-1.13,1.09,0,1.77l-1.41.39c.32.53,1.77-.53,2.3.36.46.62-1.19.24-1.58.46.71.31,2.15.85,1,1.43C74,53,74.24,52.84,74.14,52.66Zm.61,6.58c-.2-.13-.82-.39-.25-.48C75.6,58.91,75.07,59,74.75,59.24Zm2.16,10c-.32-.11-.16-.25.21-.4C77.2,69,77.16,69.12,76.91,69.27Zm6.27,27.94h-.05C83.5,96.91,83.36,97,83.18,97.21Zm-.4.6a.72.72,0,0,0,.41,0c-.25,0-.27-.16-.21-.31C82.73,97.56,82.56,97.64,82.78,97.81Zm.09-63.68-.25.11C82.34,34,82.59,34.06,82.87,34.13Z"
    transform="translate(-1.46)"/><path class="arrow-double-down-crayon-path" d="M75.62,68.1a2.93,2.93,0,0,1,.53,0A.62.62,0,0,0,75.62,68.1Z" transform="translate(-1.46)"/><path class="arrow-double-down-crayon-path" d="M73.61,48.56s0,0,0,0l-.18,0Z" transform="translate(-1.46)"/><path class="arrow-double-down-crayon-path" d="M74.5,88.71a1.15,1.15,0,0,1,.5-.23C74.77,88.47,74.57,88.52,74.5,88.71Z" transform="translate(-1.46)"/><path class="arrow-double-down-crayon-path" d="M84.55,100.79l-.27-.35c0,.17-.15.25-.3.34C84.2,100.76,84.52,100.68,84.55,100.79Z" transform="translate(-1.46)"/><path class="arrow-double-down-crayon-path" d="M78.79,104.4c.12,0,0,.11.14.16l.45,0A.33.33,0,0,0,78.79,104.4Z" transform="translate(-1.46)"/><path class="arrow-double-down-crayon-path" d="M81.36,101.3c-.81.07-.52.3-.35.55a.09.09,0,0,1,0,0C82.14,101.82,81.75,101.56,81.36,101.3Z" transform="translate(-1.46)"/><path class="arrow-double-down-crayon-path" d="M81,101.91a.26.26,0,0,1,0,.24C81.53,102.15,81.16,102.05,81,101.91Z" transform="translate(-1.46)"/><path class="arrow-double-down-crayon-path" d="M83.34,98.52c-.2.13,1,0,.72.12C85.09,98.74,82.78,97.87,83.34,98.52Z" transform="translate(-1.46)"/><polygon class="arrow-double-down-crayon-path" points="77.24 101.66 78.24 101.51 77.42 101.4 77.24 101.66"/><path class="arrow-double-down-crayon-path" d="M79.34,99.53l-.26.43a.49.49,0,0,1,.35.1C79.45,99.8,79.63,99.5,79.34,99.53Z" transform="translate(-1.46)"/><path class="arrow-double-down-crayon-path" d="M79.43,100.06a.27.27,0,0,0,.18.33A.64.64,0,0,0,79.43,100.06Z" transform="translate(-1.46)"/><polygon class="arrow-double-down-crayon-path" points="76.91 101.09 77.11 100.96 77.17 100.65 76.91 101.09"/><path class="arrow-double-down-crayon-path" d="M79.4,95l-.3-.46c-.34,0-.55.09-.41.26S79.07,95,79.4,95Z" transform="translate(-1.46)"/><path class="arrow-double-down-crayon-path" d="M76.68,96.43a2.54,2.54,0,0,1,.76-.23l-1.24,0Z" transform="translate(-1.46)"/><path class="arrow-double-down-crayon-path" d="M76.36,95.07c-.34,0-1-.67-.91-.07C75.79,95,76.09,95.5,76.36,95.07Z" transform="translate(-1.46)"/><polygon class="arrow-double-down-crayon-path" points="76.45 88.02 76.47 88.14 78.5 88.14 76.45 88.02"/><path class="arrow-double-down-crayon-path" d="M73.16,81.71c-.5.54,1.25.16.63.65.48.14.51-.4.92-.25C74.21,81.76,74.5,81.59,73.16,81.71Z" transform="translate(-1.46)"/><path class="arrow-double-down-crayon-path" d="M74.71,82.11a3.28,3.28,0,0,0,.31.18A1.18,1.18,0,0,0,74.71,82.11Z" transform="translate(-1.46)"/><polygon class="arrow-double-down-crayon-path" points="74.14 8.88 73.59 8.79 74.22 9.16 74.14 8.88"/><path class="arrow-double-down-crayon-path" d="M76.08,10.47l-.92-.93.62,1C75.8,10.47,75.84,10.28,76.08,10.47Z" transform="translate(-1.46)"/><path class="arrow-double-down-crayon-path" d="M72.13,60.19l.31,0c.34,0,.37-.13.42-.29Z" transform="translate(-1.46)"/><polygon class="arrow-double-down-crayon-path" points="71.66 55.44 71.63 55.52 72.81 55.37 71.66 55.44"/><path class="arrow-double-down-crayon-path" d="M71.61,51.44c0,.17.22.36.17.52C71.57,51.61,73.08,51.39,71.61,51.44Z" transform="translate(-1.46)"/><path class="arrow-double-down-crayon-path" d="M41.85,120c.07-.19-.76-.12-.92-.15C41.12,120.2,42.07,120,41.85,120Z" transform="translate(-1.46)"/><polygon class="arrow-double-down-crayon-path" points="42.29 123.17 41.95 123.11 42.46 123.39 48.05 123.39 47.73 123.22 47.95 123.39 42.57 123.39 42.29 123.17"/><path class="arrow-double-down-crayon-path" d="M49.72,120.72c-1.43.26.22,1-.29,1.57l-.32.08,1.14.24C50.07,122,49.32,121.16,49.72,120.72Z" transform="translate(-1.46)"/><path class="arrow-double-down-crayon-path" d="M52.83,119.22c-.56.09-.48-.34-.19.36l.15-.07A.58.58,0,0,1,52.83,119.22Z" transform="translate(-1.46)"/><path class="arrow-double-down-crayon-path" d="M52.79,119.51c0,.31.47-.19,0,0Z" transform="translate(-1.46)"/><path class="arrow-double-down-crayon-path" d="M52.49,118.11l.49.41c.33-.08.41-.43.65-.3C53.36,117.81,53,117.89,52.49,118.11Z" transform="translate(-1.46)"/><path class="arrow-double-down-crayon-path" d="M51.46,117.71l.2.21C51.8,117.89,51.85,117.84,51.46,117.71Z" transform="translate(-1.46)"/><path class="arrow-double-down-crayon-path" d="M52.1,118.37l-.44-.45c-.23.06-.69.06.16.21C51.4,118.09,51.8,118.18,52.1,118.37Z" transform="translate(-1.46)"/><path class="arrow-double-down-crayon-path" d="M51.88,118.62c-.32.22-.52.5-1,.09C51.06,119.48,52.06,119.38,51.88,118.62Z" transform="translate(-1.46)"/><path class="arrow-double-down-crayon-path" d="M48.24,120.56l-.42.3.48.26C48.06,121,48.69,120.55,48.24,120.56Z" transform="translate(-1.46)"/><path class="arrow-double-down-crayon-path" d="M53.29,115.64c-.31,0-.82.12-1.21.14l.34.3A1.41,1.41,0,0,1,53.29,115.64Z" transform="translate(-1.46)"/><path class="arrow-double-down-crayon-path" d="M52.08,115.78l-.51-.46C51.5,115.71,51.75,115.79,52.08,115.78Z" transform="translate(-1.46)"/><polygon class="arrow-double-down-crayon-path" points="48.41 117.61 49.49 118.36 48.4 117.47 48.41 117.61"/><polygon class="arrow-double-down-crayon-path" points="51.91 113.96 52.6 114.23 51.55 113.75 51.91 113.96"/><path class="arrow-double-down-crayon-path" d="M53.28,112.84c.58.2,1-.23,1.35,0-.1-.31-.59-.58-1-.83C53.84,112.25,53.77,112.51,53.28,112.84Z" transform="translate(-1.46)"/><path class="arrow-double-down-crayon-path" d="M53,111.57a3.94,3.94,0,0,0,.64.42A1.85,1.85,0,0,0,53,111.57Z" transform="translate(-1.46)"/><path class="arrow-double-down-crayon-path" d="M51.74,114.57a1.56,1.56,0,0,0,.88-.32l-.86.15Z" transform="translate(-1.46)"/><path class="arrow-double-down-crayon-path" d="M51.73,114.4h0l.06-.38Z" transform="translate(-1.46)"/><path class="arrow-double-down-crayon-path" d="M51.74,114.61v0C51.66,114.58,51.63,114.59,51.74,114.61Z" transform="translate(-1.46)"/><path class="arrow-double-down-crayon-path" d="M50.67,116.46c-.47-.27-1-.83-1.71-.32C49.54,116.34,50,116.05,50.67,116.46Z" transform="translate(-1.46)"/><path class="arrow-double-down-crayon-path" d="M50.67,114.8l-.21.47a1.53,1.53,0,0,1,.79,0Z" transform="translate(-1.46)"/><polygon class="arrow-double-down-crayon-path" points="48.94 114.56 49.2 114.8 49.28 114.63 48.94 114.56"/><path class="arrow-double-down-crayon-path" d="M52.13,112.35a.83.83,0,0,1-.44-.69,1.61,1.61,0,0,0-.28.8C51.68,112.51,52.15,112.64,52.13,112.35Z" transform="translate(-1.46)"/><path class="arrow-double-down-crayon-path" d="M51.86,113.35l0,0C51.74,113.32,51.72,113.35,51.86,113.35Z" transform="translate(-1.46)"/><path class="arrow-double-down-crayon-path" d="M51.79,109.18l-.16,0,.15,0Z" transform="translate(-1.46)"/><path class="arrow-double-down-crayon-path" d="M51.25,112.5c-.17.2,0,.33.29.45a1,1,0,0,1-.13-.49C51.29,112.44,51.21,112.44,51.25,112.5Z" transform="translate(-1.46)"/><path class="arrow-double-down-crayon-path" d="M52.59,110.87a3,3,0,0,0-.49.33C52.38,111.11,52.81,110.91,52.59,110.87Z" transform="translate(-1.46)"/><path class="arrow-double-down-crayon-path" d="M52.05,113.24l0,0C52.28,113.21,52.18,113.21,52.05,113.24Z" transform="translate(-1.46)"/><path class="arrow-double-down-crayon-path" d="M52.05,113.24a2.44,2.44,0,0,0-.51-.29,1,1,0,0,0,.27.35Z" transform="translate(-1.46)"/><path class="arrow-double-down-crayon-path" d="M46.34,108.2c.79.07,1.5.63.63,1.07.58.48,3.19.28,4.66-.06a1.4,1.4,0,0,1-1.11-.53c-.43.15-1.05,1-1.75.58-.38-.64.3-.5.73-.78-1,.21-1.4-.86-2.86-.78l.49.57C46.91,108.27,46.55,108.05,46.34,108.2Z" transform="translate(-1.46)"/><path class="arrow-double-down-crayon-path" d="M51.52,110.1l.09.19c.14-.21.47-.36,1.1-.62a1.55,1.55,0,0,0-.93-.44l-.15.94Z" transform="translate(-1.46)"/><path
    class="a"
    d="M51.58,111.15c-.85-.18-1.2-.65-2.14-.4,0,.56.7.42,1.06.77-.18-.92.47.28,1-.36a1.06,1.06,0,0,1,.21.5,2.51,2.51,0,0,1,.41-.46l-.05,0h0c-.11,0-.18,0-.11,0l0,0-.32,0c.18-.26.22,0,.32,0h.14l-.44-.93C51.48,110.48,51.5,110.72,51.58,111.15Z"
    transform="translate(-1.46)"/><path class="arrow-double-down-crayon-path" d="M47.12,115.61a.51.51,0,0,1,.2,0C47.22,115.52,47.14,115.5,47.12,115.61Z" transform="translate(-1.46)"/><path class="arrow-double-down-crayon-path" d="M47.65,115.24c.12.07.46.14.37.35-.27.18-.42,0-.7,0,.23.14.61.48,1,.08l-.12-.07a3.19,3.19,0,0,1,1.51-.74A11.75,11.75,0,0,0,47.65,115.24Z" transform="translate(-1.46)"/><path class="arrow-double-down-crayon-path" d="M49.39,113.16l-.4-.78-.75.37h.44C48.49,113.17,49.05,113.09,49.39,113.16Z" transform="translate(-1.46)"/><polygon class="arrow-double-down-crayon-path" points="50.76 109.11 51.67 109.24 50.4 108.75 50.76 109.11"/><polygon class="arrow-double-down-crayon-path" points="50.7 108.12 51.48 108.19 51.02 107.91 50.7 108.12"/><path class="arrow-double-down-crayon-path" d="M43.89,51.72l-.23-.23A.72.72,0,0,0,43.89,51.72Z" transform="translate(-1.46)"/><path class="arrow-double-down-crayon-path" d="M43.81,53.35l.39,0C44,53.32,43.83,53.28,43.81,53.35Z" transform="translate(-1.46)"/><path class="arrow-double-down-crayon-path" d="M53.22,83.68c.75-.3,1.91-.63,1-.63l-.87.07C53.51,83.36,53.41,83.53,53.22,83.68Z" transform="translate(-1.46)"/><path class="arrow-double-down-crayon-path" d="M48.32,66.75l-.26.1.83.22Z" transform="translate(-1.46)"/><path class="arrow-double-down-crayon-path" d="M44.73,66.51l.56-.43A2.15,2.15,0,0,0,44.73,66.51Z" transform="translate(-1.46)"/><path class="arrow-double-down-crayon-path" d="M43,42.84l-.88-.27C42.16,43,42.61,42.81,43,42.84Z" transform="translate(-1.46)"/><path class="arrow-double-down-crayon-path" d="M52.32,98a1.35,1.35,0,0,0,.56-.67C52.36,97.6,51.6,97.84,52.32,98Z" transform="translate(-1.46)"/><path class="arrow-double-down-crayon-path" d="M53.09,52.46a.78.78,0,0,0-.53-.2A.62.62,0,0,0,53.09,52.46Z" transform="translate(-1.46)"/><path class="arrow-double-down-crayon-path" d="M52.92,96.47a1.64,1.64,0,0,0-.22.14.85.85,0,0,1,.18.68C53.26,97.05,53.5,96.78,52.92,96.47Z" transform="translate(-1.46)"/><path class="arrow-double-down-crayon-path" d="M43,10.86s0,0,.1-.08C43,10.78,43,10.82,43,10.86Z" transform="translate(-1.46)"/><path class="arrow-double-down-crayon-path" d="M51.43,1.17a1,1,0,0,1,.08.37C51.56,1.47,51.56,1.36,51.43,1.17Z" transform="translate(-1.46)"/><path class="arrow-double-down-crayon-path" d="M52.71,104.16c0,.21.1,0,0,0Z" transform="translate(-1.46)"/><path class="arrow-double-down-crayon-path" d="M49.24,105a1,1,0,0,0-.42-.1A1.5,1.5,0,0,1,49.24,105Z" transform="translate(-1.46)"/><path class="arrow-double-down-crayon-path" d="M47.63,94.1v0C47.46,94.13,47.49,94.12,47.63,94.1Z" transform="translate(-1.46)"/><path class="arrow-double-down-crayon-path" d="M52.3,104.46a1,1,0,0,0,.27-.26A1.21,1.21,0,0,0,52.3,104.46Z" transform="translate(-1.46)"/><path class="arrow-double-down-crayon-path" d="M52.71,104.43c0,.07-.06.13-.09.18C52.77,104.65,52.86,104.63,52.71,104.43Z" transform="translate(-1.46)"/><path class="arrow-double-down-crayon-path" d="M52.68,103.87a.51.51,0,0,1-.11.33.18.18,0,0,1,.14,0C52.7,104.1,52.69,104,52.68,103.87Z" transform="translate(-1.46)"/><path class="arrow-double-down-crayon-path" d="M46,27.94l.08-.05C45.73,27.69,45.79,27.78,46,27.94Z" transform="translate(-1.46)"/><path class="arrow-double-down-crayon-path" d="M44.39,77.9l0,0,0,0Z" transform="translate(-1.46)"/><path class="arrow-double-down-crayon-path" d="M43.76,77.13c1.07.34.93.52.7.76L47,77.7Z" transform="translate(-1.46)"/><path
    class="a"
    d="M43.67,47.82l-.78.53c-1.28-.66-.83-1.11-1.93-.63,2.71.1.26,2.07,3,2.17l-.58.35c0-.1-.13-.12-.1-.22-1.31.67,2,.53,1.56,1.4a.7.7,0,0,1-.92.3l.66.69c-.06.2-.53.15-.47,0l.2,1H44.2a10.15,10.15,0,0,1,1.36.67c-.39.26-.28-.14-.62-.07l.65.58c-.71.23-1.39-.26-1.28-.65-2.72.51.68.48-.92,1.63L43.05,55c-1.54.34-1,.77-1.95,1.37.5-.14,2.43-1.21,3.1-.57-.21.17-.31.4.24.75-1,0-.74.32-.68.74l-1.28,0c.36.45,1,.42,1.59.69-.13.49-1.13.59-2,.7-.21.8,1.59-.54,1.82.41-.49.66,0,1.13.79,1.93-.45.46-.78-.09-1.15.08l1,.42c0,.1-.34.06-.5,0,.39.35,1.28,0,1.62.59,1.41.16-2.07,1.11-.47,1.79-.36.17-.78-.08-1.28,0a6.88,6.88,0,0,0,2.17,1.56l-.84.65c1-.47,2.1.14,3,.67.46-.17.87-.31,1.06-.41l.69.85a2.21,2.21,0,0,1-1.18-.12,2.79,2.79,0,0,0,.3.15,2.44,2.44,0,0,1-1.92-.07l.79-.3a8.08,8.08,0,0,0-2.39-.37.66.66,0,0,1,.35.28,1.4,1.4,0,0,0-.53-.07c-.14,0,.15.12.47.26l-1.42.19.56,0-.89,1.12c1.44.8,3.55,1.48,4.13,2.74A9.46,9.46,0,0,0,45.4,71c1.31-.34-.56-1-.29-1.62-.14.35-.73.27-.93.18l1.19,1.15c-1,0-.76.25-1.19.55,2-.22,1.34.86,2,1.33-.67,0-1.36-.09-1.2-.66-1.51.62,2.36.83,1.06,1.44,0-.14.09-.21-.25-.27.6.33.11,1.13-.47.93v-.14c-.26.93-.06,2.82,1.63,3-.22,0-2-.16-2.39-.23l5.68,1.81c-1.46-.19-5,.28-5.75-.51-.22.22-.47.48,0,1a5,5,0,0,1,2.25-.11,9.7,9.7,0,0,0-2.29,1c.32-.22,2.6.1,2.52.46-.34-.07-2.26,0-2.5-.18l2.22,1a5.3,5.3,0,0,0-2.55.07c.45-.08-.06.77.15,1l.54-.35c-.38,1,3.13,1.1,3,2.1-.46-.14-2.85-.4-3.15.09,1.14.28,5.49,1.25,6.34,2.19l-.66.14L51,87a58.81,58.81,0,0,1-6.7-2.55c-.54.35-.78.07-.75.64a.76.76,0,0,1-.95-.51l-.45,1.29c1.35,0,1.3,1.06,2.43,1.06l-1.34-1.49c1.35,0,3.78,1,3.5,1.91-.54.22-2.38-.28-2.83-.28.46.14.84.92.51,1l-.7-.43c-.53.49,1.74.93.43,1.49-.09.21-1.75.56-1,.64a31.87,31.87,0,0,1,7.43.16,11.13,11.13,0,0,1-2.29,1.28c-1.22.3-2.84-.67-3.88-.42a2.57,2.57,0,0,1,1,.34c-.33.21-1.13-.15-1,.35,1.36.15-.17,1,1.14.29.36.5-.31.49-.28,1.06A5.57,5.57,0,0,1,48.64,94a3.35,3.35,0,0,0-1,.09c-.17,1-.82,1.48-.88,2.4-.33.07-.75.49-1.33.27.23.15.69.29.71.58-1.21.49-.15-.64-1.59-.3.79.08,1.06.79,1.53,1.22,1.23-.06.28-.92-.19-1.35A5.8,5.8,0,0,1,50,98.8c.38.79-1.1.28-.87.42-.37,1.43,2.88,1.37,1.61,2.51-1.1.42-2.14-.09-2.92,0-.38-.64.73-.92.71-1.35l-.54.5c-.34-.22-.6-.65-.27-.86-1,.35-.31,2.42-1.25,3.49.35.21.71.57,1.14.43l-.13-.36c.88-.28,1.17.72,1.59.29.59.5,1.52,1.07,1,1.71l-1.23.07c.36,0,.75-.4.39-.6.53.3-1.71.94-.12,1.31l.87-.42c.6.5,1.87,1.13,1.46,1.7,1.22-.21-.13-.14,1.3-.49-1.78.28.14-1.49-1.73-1,1.66-.35.73-.7,2.15-1.2-.4,0-.78.16-.56-.32a1.8,1.8,0,0,1-.35-.12l0,0,0,0c-.06,0-.07,0,0,0a1.48,1.48,0,0,1-.63.22c-.92-.28-.85-1.06-1.32-1.35.21-.28.46.14.9,0l-.7-.43c.9,0,1.53-.7,2,0l.07-.61c.52-.34.75-.83.38-1.16.21-.28-1-.79-.26-.5l-.51-1h.22c.17-1-1.38-2,.29-3.06-.21-.34-.47-.69-.18-1.21l.78-.07c-.25-.43.84-1.21,0-1.43,2.11-.34.55-2,1-2.72l-1-.07a2.63,2.63,0,0,0-.56-1.65h-.9c-.71-.58.7-1.36.65-2.22.34.07.24.28,0,.43,2.08-.94-1.38-2.23.14-3.09-.32-.25-.2-.41,0-.56,0,0,0,0,0,.06a.16.16,0,0,0,0-.1c.16-.1.34-.19.49-.3a1.8,1.8,0,0,0-.49.25,1.38,1.38,0,0,0-.33-.73l1-.08s0,0,0-.06c.37-.25-.45-.23-1.18-.11a2.39,2.39,0,0,0-.56-.38c1.56-.15-.5-.71,1.16-.94-.8-.21-.56-1.36-2.26-1.55.23,0,.33-.08.34.06.21-.29.41-.58-.06-.86L52,79.19l-1.63-.69a2,2,0,0,1,2.13-.11c-1.43-1-.53-.78-1.94-1.61l.79,0c0-.28-1.08-.76-.42-.92,1.51-.62.27-3.17,1.66-4.82-2.33.32,1-.76-.76-.83.55-.1.86-.33,1.34-.06-.53-.85.88-1.26-.64-1.83.55-.1.8.18,1.13.09-.12-.06-.48-.26-.15-.35s.46.12.7.25c-.09-.84-1.79-.93-3.38-1,.75-.43.65-.64-.4-1,.52-.15,1.07-.4,1.25.13.08-.3.78-1.81-.5-1.85.32-.09.09-.41,0-.49a3.23,3.23,0,0,0,.07-1.38L51,63c-1.54-.27-.34-.54-.52-1.07h.16c1.12-1.2-.53-.52.75-1.71l-1,.06c-2.07-.13,1.22-1,.44-1.75l-.55.25c-.7-.39,2.82-1,3.08-1.41.18-.08.28.13.42.25,1.22-1-1.26-.14-1.55-.88.68-.13,1.73.19,1.86-.31.55-.24-2.19-1.47-.88-2.14-.53.15-1.05.29-1.44-.06-.18-.53,2-1.4.35-1.9a1,1,0,0,1,.41-.09c-.42-.41-.69-1.32-1.58-1.57,3.32-.34-1.59-2.53,1.47-2.49L52.3,47l.31,0c.21-.8-.52-1.09-1.26-1.37.21-.19.5,0,.66,0,.62-1.16.49-1.28-1-2.26l1-.1c-.57-.27,1.56-1.67.41-2.82a1,1,0,0,1,.45.12C51.68,39.25,55.59,37.45,52,37l-.89-.85c-.28,1.1-1.57-.16-2.17.3-.21-.43,1.09-1.12,1.27-.59l-.18.08c1.89.19.67-1.36,2-1.34-.11-2.16.91-4.28,1-6.32l-1.46.26.07-.71c.34-.19,1.14-.27,1.09.24.82-.29-.71-.84-1-.85.57-1,1.72.36,1.74.05l-.11-.41-.17.1c-.61-.33-1.24-.34-1.18-1,.28-.39.89-.22,1-.37s.15-.06,0-.24l.1-.89-1.14.38c-.58-.38,0-.84-1.26-.39,2-.66.62-3.35,1.24-3.74A1.49,1.49,0,0,1,51,19c-.24.18-1.53.33-1.39-.26,2.68.1,1.11-1.12,3-1.68-1.26.48-.4-1.64-2.18-.89.19-.5,1-.08,1.61-.48-1.09-1.1.54-2.58.12-4-.35,0-.88.26-1.42,0l1.72-.84c-.18-.27-2-.16-.84-.73-.3.09-.74.22-.86,0,1.58-2.84-1.66-5.62,1.51-8.47-.67.39-.75.14-.77-.15-.17.19-.87,0-1.35.06L51.47.42C51,.35,50.87.19,50.81,0L44.42,0c.12.38-.14.88.7,1L44.89.61C46.18,1,47.7.21,49.33,0H45.9a4.25,4.25,0,0,1-.8.05c1.71.54-2.5,1.53-.05,2.43-.38.21-.62-.17-1.06,0,.83.22,1,.5.65,1l-.2,0c.24,1.47-.55,2.13-1,3.82l.94-.16c-.11.36-.41.45-.64.63,1.46.34,0-1,1.64-.7-1.91.55.08,2.5-2.09,2.93,0,.54,1.09-.22,1.1.33l-.58.17.77.1c-.11.37-.84.58-1.34.62.05-.09-.15-.24-.2-.33-.68.5.3,1.3.08,1.47l.34-.54c.63,1.45,0,3.3,1.22,4.66l.44-.13c.88,1-.44.89,0,2.06l-.11,0c.46.22.7.53.66.86-.54-.28-1,.6-1.59.23.94,1.14.72.55,2.42,1.26l-.74.21c.68.24,1,.25,1.25.84-.66-.47-1.12.42-2-.1-1.58,1.3,1.7,1.8-.66,2.44,2.07.52,1.11-1.11,1.56-.8.66-.29,1.55.43,1.35.83,0,.4-2.6.75-2.54,1.75,0-.1-.15-.11-.14-.21-.52.39.72.72-.12,1.2,1.25.23-.05.6,1.53.64l-.39-.91c.43.51,2.29,1,1.41,1.84a2.89,2.89,0,0,1-1-.48c-.47.26.31.48-.16.75-1.59-.05-.36-1.11-1.58-1.65-.67.28,1.16,1-.56.79,2.19.36-.26,1,1.42,1.64l-1,0c.15.1.6.32.58.52l-1.24-.34c1.06.53-.89,1.07-.32,1.58,0-1.1,1.14-.26,1.83-.73,1.28,1.35-2.48.81-2,2.32-.13-.2.57-.77,1-.46a2.16,2.16,0,0,1-1,.86c.21,1,1-.16,1.56.27-1.15.35.48.49.85.93h-1c-.61,1.15,2,.3,1.27,1.34l-1.34-.44.35.54-1.1-.1c.82.58.61.77.3,1.34.68-.13,1.75.08,1.78.59-.57.35-.92-.2-.78.53-.6-.17-1.36-.35-.47-.66-.31,0-.61-.16-.92-.2-.66.38-.15.95-.14,1.21a.44.44,0,0,1,.23-.28l1.33,1a1.06,1.06,0,0,1-.94-.1c.11.21.55.36.63.67-.78-.08-1.59-.06-2-.5l.87,1c-.34.06-.94.51-1.23.38-.46.55,1.52,1.36.91,2.1a.62.62,0,0,1,.4.27c-.18.69-1.14,1.3-.08,2.12l-1.4.46c.31.64,1.77-.62,2.29.46.45.76-1.2.27-1.59.53.7.39,2.14,1.06,1,1.74C43.57,48.22,43.78,48,43.67,47.82Zm.55,8c-.2-.15-.83-.47-.26-.57C45.07,55.39,44.54,55.52,44.22,55.78Zm2.25,12.14c-.32-.11-.17-.29.2-.49C46.75,67.57,46.71,67.74,46.47,67.92ZM52,101.82l0,0C52.38,101.48,52.23,101.59,52,101.82Zm-.46.69a.6.6,0,0,0,.41.06c-.25-.06-.25-.22-.18-.4C51.56,102.21,51.38,102.29,51.58,102.51Zm.88-77-.25.14C51.92,25.38,52.18,25.47,52.46,25.55Z"
    transform="translate(-1.46)"/><path class="arrow-double-down-crayon-path" d="M45.15,66.54a2.85,2.85,0,0,1,.52-.06A.55.55,0,0,0,45.15,66.54Z" transform="translate(-1.46)"/><path class="arrow-double-down-crayon-path" d="M43.2,42.89l0,0-.18,0Z" transform="translate(-1.46)"/><path class="arrow-double-down-crayon-path" d="M44,91.07a1,1,0,0,1,.51-.26C44.24,90.79,44,90.85,44,91.07Z" transform="translate(-1.46)"/><path class="arrow-double-down-crayon-path" d="M53.05,106.35l-.23-.47c0,.23-.18.29-.34.4C52.71,106.28,53,106.21,53.05,106.35Z" transform="translate(-1.46)"/><path class="arrow-double-down-crayon-path" d="M46.92,110.05c.11.07,0,.14.12.21h.45C47.47,110,47.12,109.76,46.92,110.05Z" transform="translate(-1.46)"/><path class="arrow-double-down-crayon-path" d="M49.82,106.63c-.81,0-.54.3-.41.62,0,0,0,0,0,0C50.55,107.34,50.18,107,49.82,106.63Z" transform="translate(-1.46)"/><path class="arrow-double-down-crayon-path" d="M49.44,107.33a.37.37,0,0,1,0,.29C49.9,107.68,49.54,107.51,49.44,107.33Z" transform="translate(-1.46)"/><path class="arrow-double-down-crayon-path" d="M52.08,103.44c-.22.14,1,.14.7.21C53.8,103.87,51.58,102.59,52.08,103.44Z" transform="translate(-1.46)"/><polygon class="arrow-double-down-crayon-path" points="45.68 106.77 46.69 106.7 45.89 106.48 45.68 106.77"/><path class="arrow-double-down-crayon-path" d="M48,104.28l-.3.49a.4.4,0,0,1,.34.16C48.07,104.61,48.29,104.28,48,104.28Z" transform="translate(-1.46)"/><path class="arrow-double-down-crayon-path" d="M48,104.93a.37.37,0,0,0,.14.42A.72.72,0,0,0,48,104.93Z" transform="translate(-1.46)"/><polygon class="arrow-double-down-crayon-path" points="45.41 106.06 45.63 105.92 45.72 105.56 45.41 106.06"/><path class="arrow-double-down-crayon-path" d="M48.45,98.79l-.25-.57c-.34-.08-.56.07-.44.28S48.12,98.86,48.45,98.79Z" transform="translate(-1.46)"/><path class="arrow-double-down-crayon-path" d="M45.63,100.34a2.2,2.2,0,0,1,.77-.21l-1.24-.08Z" transform="translate(-1.46)"/><path class="arrow-double-down-crayon-path" d="M45.42,98.7c-.34-.07-1-.86-.9-.15C44.85,98.62,45.11,99.2,45.42,98.7Z" transform="translate(-1.46)"/><polygon class="arrow-double-down-crayon-path" points="45.95 90.37 45.96 90.51 47.99 90.59 45.95 90.37"/><path class="arrow-double-down-crayon-path" d="M42.86,82.78c-.51.64,1.25.2.62.77.47.18.52-.46.92-.29C43.91,82.84,44.21,82.65,42.86,82.78Z" transform="translate(-1.46)"/><path class="arrow-double-down-crayon-path" d="M44.4,83.26a1.66,1.66,0,0,0,.31.21A1,1,0,0,0,44.4,83.26Z" transform="translate(-1.46)"/><polygon class="arrow-double-down-crayon-path" points="41.26 0.38 40.83 0.81 41.52 0.53 41.26 0.38"/><path class="arrow-double-down-crayon-path" d="M44.23,1.2l-1.3.1,1.17.25C44.05,1.46,43.93,1.27,44.23,1.2Z" transform="translate(-1.46)"/><path class="arrow-double-down-crayon-path" d="M41.59,56.94l.31,0c.34-.07.37-.16.42-.36Z" transform="translate(-1.46)"/><polygon class="arrow-double-down-crayon-path" points="41.16 51.17 41.13 51.27 42.31 51.1 41.16 51.17"/><path class="arrow-double-down-crayon-path" d="M41.17,46.32c-.05.2.21.43.16.63C41.12,46.52,42.63,46.28,41.17,46.32Z" transform="translate(-1.46)"/><path class="arrow-double-down-crayon-path" d="M121.12,93.6c-.21.12.44.65.52.78C121.79,94,121,93.45,121.12,93.6Z" transform="translate(-1.46)"/><polygon class="arrow-double-down-crayon-path" points="112.5 89.62 112.31 89.33 112.48 90.31 112.5 89.62"/><path class="arrow-double-down-crayon-path" d="M111.34,91.86c1.16.89.82-1,1.61-1l.29.18-.54-1C112.27,90.62,112,91.83,111.34,91.86Z" transform="translate(-1.46)"/><path class="arrow-double-down-crayon-path" d="M108,90.61c.44.36,0,.62.45-.13l-.15-.06A1.19,1.19,0,0,1,108,90.61Z" transform="translate(-1.46)"/><path class="arrow-double-down-crayon-path" d="M108.26,90.42c.26-.26-.48-.22,0,0Z" transform="translate(-1.46)"/><path class="arrow-double-down-crayon-path" d="M107.12,91.71l.08-.69c-.28-.19-.67,0-.69-.27C106.29,91.27,106.57,91.46,107.12,91.71Z" transform="translate(-1.46)"/><path class="arrow-double-down-crayon-path" d="M107.39,92.82l.08-.32C107.35,92.42,107.26,92.42,107.39,92.82Z" transform="translate(-1.46)"/><path class="arrow-double-down-crayon-path" d="M107.62,91.82l-.15.68c.19.14.48.5.09-.28C107.79,92.58,107.62,92.2,107.62,91.82Z" transform="translate(-1.46)"/><path class="arrow-double-down-crayon-path" d="M108,91.8c.41.08.81,0,.73.7C109.33,91.77,108.6,91.07,108,91.8Z" transform="translate(-1.46)"/><path class="arrow-double-down-crayon-path" d="M112.13,93.12l.55.08-.06-.57C112.65,92.92,111.83,92.79,112.13,93.12Z" transform="translate(-1.46)"/><path class="arrow-double-down-crayon-path" d="M104.21,93c.16.26.63.53.9.82l.08-.51C104.91,93.31,104.5,93.38,104.21,93Z" transform="translate(-1.46)"/><path class="arrow-double-down-crayon-path" d="M105.11,93.86l-.13.75C105.42,94.35,105.34,94.1,105.11,93.86Z" transform="translate(-1.46)"/><polygon class="arrow-double-down-crayon-path" points="106.83 94.13 106.87 92.71 106.7 94.25 106.83 94.13"/><polygon class="arrow-double-down-crayon-path" points="101 94.36 100.82 93.61 101.02 94.81 101 94.36"/><path class="arrow-double-down-crayon-path" d="M101.38,95.4c-.17-.61-.89-.55-.91-1a2.4,2.4,0,0,0-.16,1.5C100.4,95.5,100.73,95.31,101.38,95.4Z" transform="translate(-1.46)"/><path class="arrow-double-down-crayon-path" d="M100.32,96.75a4,4,0,0,0,0-.84A2,2,0,0,0,100.32,96.75Z" transform="translate(-1.46)"/><path class="arrow-double-down-crayon-path" d="M104.13,95.09a1.4,1.4,0,0,0-.89-.4l.71.53Z" transform="translate(-1.46)"/><path class="arrow-double-down-crayon-path" d="M104,95.24l0,0-.41.27S103.72,95.38,104,95.24Z" transform="translate(-1.46)"/><path class="arrow-double-down-crayon-path" d="M104.18,95.06l-.05,0C104.2,95.14,104.23,95.16,104.18,95.06Z" transform="translate(-1.46)"/><path class="arrow-double-down-crayon-path" d="M106.68,94.4c0,.58-.19,1.4.78,1.57C107.28,95.37,106.73,95.27,106.68,94.4Z" transform="translate(-1.46)"/><path class="arrow-double-down-crayon-path" d="M105.06,95.73l.59-.22c-.15-.17-.44-.36-.46-.65Z" transform="translate(-1.46)"/><polygon class="arrow-double-down-crayon-path" points="103.53 96.12 103.59 95.73 103.37 95.81 103.53 96.12"/><path class="arrow-double-down-crayon-path" d="M101.67,96.67a1.19,1.19,0,0,1-.39.93,2.51,2.51,0,0,0,1-.49C102.13,96.87,101.94,96.4,101.67,96.67Z" transform="translate(-1.46)"/><path class="arrow-double-down-crayon-path" d="M102.84,96a.25.25,0,0,0,0,.07C102.89,96.13,102.93,96.13,102.84,96Z" transform="translate(-1.46)"/><path class="arrow-double-down-crayon-path" d="M98.83,99.76l.14.08-.09-.12Z" transform="translate(-1.46)"/><path class="arrow-double-down-crayon-path" d="M102.41,97.19c.31,0,.3-.3.25-.6a1.68,1.68,0,0,1-.4.52C102.32,97.22,102.37,97.28,102.41,97.19Z" transform="translate(-1.46)"/><path class="arrow-double-down-crayon-path" d="M99.88,97.66a3.07,3.07,0,0,0,.67,0C100.27,97.6,99.77,97.46,99.88,97.66Z" transform="translate(-1.46)"/><path class="arrow-double-down-crayon-path" d="M102.6,96a.13.13,0,0,1,0-.06C102.43,95.82,102.49,95.89,102.6,96Z" transform="translate(-1.46)"/><path class="arrow-double-down-crayon-path" d="M102.6,96a2,2,0,0,0,.06.62,1.4,1.4,0,0,0,.16-.5A1,1,0,0,1,102.6,96Z" transform="translate(-1.46)"/><path
    class="a"
    d="M101.85,104.44c-.51-.61-.52-1.61.48-1.37,0-.81-2-2.5-3.36-3.23a1.27,1.27,0,0,1,.31,1.25c.45.17,1.66-.14,1.77.72-.3.83-.66.23-1.22.18.9.51.25,1.73,1.37,2.67l.14-.83C101.5,104,101.57,104.41,101.85,104.44Z"
    transform="translate(-1.46)"/><path class="arrow-double-down-crayon-path" d="M99.88,99.12l.13-.24a2.64,2.64,0,0,1-1.37-.22,1.38,1.38,0,0,0,.24,1.06l1-.74Z" transform="translate(-1.46)"/><path
    class="a"
    d="M100.86,98.13c.41.78.2,1.45,1.09,1.91.51-.52-.08-.88,0-1.45-.76.94,0-.59-1-.39a1.51,1.51,0,0,1,.35-.6,3.58,3.58,0,0,1-.73.11l0,0h0c.11.05.17.08.08.07s0,0,0,0a1.53,1.53,0,0,1,.18.29c-.38.09-.19-.14-.18-.29a.61.61,0,0,0-.07-.1h0L100,98.88C100.28,98.8,100.49,98.57,100.86,98.13Z"
    transform="translate(-1.46)"/><path class="arrow-double-down-crayon-path" d="M108.11,97.81a.67.67,0,0,1-.15-.13C108,97.8,108,97.88,108.11,97.81Z" transform="translate(-1.46)"/><path class="arrow-double-down-crayon-path" d="M107.42,97.69c0-.15-.16-.46.1-.56.35.06.26.33.44.55,0-.28.07-.84-.59-.86V97a3,3,0,0,1-1.68-.57A10.21,10.21,0,0,0,107.42,97.69Z" transform="translate(-1.46)"/><path class="arrow-double-down-crayon-path" d="M104.28,98l-.48.94.86.27-.31-.33C104.89,98.7,104.45,98.34,104.28,98Z" transform="translate(-1.46)"/><polygon class="arrow-double-down-crayon-path" points="97 99.52 96.47 98.76 96.93 100.09 97 99.52"/><polygon class="arrow-double-down-crayon-path" points="96.13 100.47 95.63 99.85 95.71 100.43 96.13 100.47"/><path class="arrow-double-down-crayon-path" d="M45.69,131.8l-.36,0A1,1,0,0,0,45.69,131.8Z" transform="translate(-1.46)"/><path class="arrow-double-down-crayon-path" d="M47.23,133.22l.29-.26C47.31,133.06,47.17,133.15,47.23,133.22Z" transform="translate(-1.46)"/><path class="arrow-double-down-crayon-path" d="M75,120.22c-.8-.28-1.91-.82-1.28-.19l.68.56A.52.52,0,0,1,75,120.22Z" transform="translate(-1.46)"/><path class="arrow-double-down-crayon-path" d="M62.67,137.44l.17.2c0-.37,0-.7,0-1A7.47,7.47,0,0,1,62.67,137.44Z" transform="translate(-1.46)"/><path class="arrow-double-down-crayon-path" d="M63.26,141.36c-.25-.07-.5-.15-.73-.24A1.22,1.22,0,0,0,63.26,141.36Z" transform="translate(-1.46)"/><path class="arrow-double-down-crayon-path" d="M37,124.88l-.84.42C36.5,125.64,36.64,125.17,37,124.88Z" transform="translate(-1.46)"/><path class="arrow-double-down-crayon-path" d="M88.77,109a1.62,1.62,0,0,0-1,.13C88.42,109.27,89.15,109.63,88.77,109Z" transform="translate(-1.46)"/><path class="arrow-double-down-crayon-path" d="M52.4,125.44a.74.74,0,0,0-.52.25A.54.54,0,0,0,52.4,125.44Z" transform="translate(-1.46)"/><path class="arrow-double-down-crayon-path" d="M87,109.77a2.51,2.51,0,0,0,.27,0,1.17,1.17,0,0,1,.48-.67C87.32,109.05,86.91,109.09,87,109.77Z" transform="translate(-1.46)"/><path class="arrow-double-down-crayon-path" d="M7.1,97.92a.68.68,0,0,1,0-.14C7,97.85,7,97.89,7.1,97.92Z" transform="translate(-1.46)"/><path class="arrow-double-down-crayon-path" d="M6.52,82.76a1.85,1.85,0,0,1,.5.39C7,83,6.85,82.9,6.52,82.76Z" transform="translate(-1.46)"/><path class="arrow-double-down-crayon-path" d="M93.73,103.62c.14-.22,0-.1,0,0Z" transform="translate(-1.46)"/><path class="arrow-double-down-crayon-path" d="M97,105.24a1,1,0,0,0,.22.37A1,1,0,0,1,97,105.24Z" transform="translate(-1.46)"/><path class="arrow-double-down-crayon-path" d="M88.43,115.58h0C88.58,115.68,88.55,115.66,88.43,115.58Z" transform="translate(-1.46)"/><path class="arrow-double-down-crayon-path" d="M94.28,103.64a1.16,1.16,0,0,0-.42,0A1.45,1.45,0,0,0,94.28,103.64Z" transform="translate(-1.46)"/><path class="arrow-double-down-crayon-path" d="M94,103.38a2.35,2.35,0,0,0,.22-.1C94.1,103.16,94,103.11,94,103.38Z" transform="translate(-1.46)"/><path class="arrow-double-down-crayon-path" d="M93.5,103.9a.75.75,0,0,1,.36-.22c-.07,0-.12,0-.13-.06S93.62,103.77,93.5,103.9Z" transform="translate(-1.46)"/><path class="arrow-double-down-crayon-path" d="M25.06,111.14s0,0,0-.09C24.64,111.17,24.77,111.2,25.06,111.14Z" transform="translate(-1.46)"/><path class="arrow-double-down-crayon-path" d="M76,131.46a.43.43,0,0,0,0-.05h0Z" transform="translate(-1.46)"/><path class="arrow-double-down-crayon-path" d="M75.76,132.57c-.42-1.07-.16-1.12.22-1.16l-1.91-1.65Z" transform="translate(-1.46)"/><path
    class="a"
    d="M41.9,128.64l0,1c-1.47.38-1.59-.34-1.89.89,1.93-1.92,2.11,1.59,4-.34l-.06.72c-.08-.1-.2,0-.28-.1-.23,1.54,1.8-1,2.37,0,.15.42.09.89-.33,1l1.1.07c.16.21-.2.52-.36.32l1.15.71-.06.06c.21-.11.52-.2.78-.3a6.77,6.77,0,0,1,.66-.25c-.06.46-.29.12-.47.42.29,0,.58-.06.88-.08-.32.68-1.14.81-1.34.51-1.48,2.32.8-.22.51,1.76l-.62-.15c-.87,1.31-.2,1.21-.48,2.34.28-.44.93-2.57,1.86-2.56,0,.28.08.53.74.45-.72.65-.3.76.06,1.1l-1,.81c.62.15,1.09-.3,1.73-.43.3.54-.38,1.27-.8,2.06.52.75.6.23.76-.27s.41-1,1.11-.37c.53,1.33,1.58,1.69,3,1.93.43,1-.48.63-.43,1.17.37-.15.72-.31,1.05-.47.13.14,0,.4-.13.53.65,0,.57-1.18,1.4-1,.33-.62.49.12.84.9s1,1.49,1.59.8c.24.42-.21.75-.19,1.27a4.75,4.75,0,0,0,1.51-.89,4.88,4.88,0,0,0,1-1.57,7.28,7.28,0,0,0,1,.44c-.79-.65-.11-2.3.14-3.68-.29-.35-.51-.69-.63-.84.19-.44.37-.85.52-1.25a2.54,2.54,0,0,1,.26,1.28,3.41,3.41,0,0,0,0-.42c.44.28.58,1.09.55,2a5.09,5.09,0,0,1-.58-.56,11.09,11.09,0,0,0,.16,2.77,1.55,1.55,0,0,1,.29-.59,1.17,1.17,0,0,0,.05.6c.07.12.13-.26.22-.72.23.43.46.86.71,1.27l-.11-.63q.95-.12,2-.36a17.34,17.34,0,0,0,.33-3.22,4.78,4.78,0,0,1,.46-2.58c.35,1.06,1,1.39,1.76,2.37-.58-.37-.74-.08-.86.36a4.64,4.64,0,0,1-.19.68.85.85,0,0,1-.17.29.84.84,0,0,1-.34.24.58.58,0,0,1,.81.57c.23-.67.32-1.26.48-1.89.61.82.72.4,1.29.48-1.49-1.38,0-1.73.09-2.59.45.49.79,1.11.11,1.46,1.6.64-.7-2.48.73-2-.13.13-.27.11-.1.42-.07-.73,1-1,1.21-.43l-.13.13c1.06-.59,2.71-2.35,1.7-3.73a23.65,23.65,0,0,1,1.43,1.93l-2.29-5.64c.85,1.21,3.71,3.32,3.54,4.58.35,0,.77-.09.85-.86-.28,0-1.77-1.25-1.67-1.52a8.74,8.74,0,0,0,2.53.75c-.42,0-1.73-1.94-1.35-2.19A21.86,21.86,0,0,1,78,129.52l-.7-2.4c.07.48,1.25,1.44,1.86,1.74-.38-.25.73-.61.8-1l-.7-.07c1.15-.59-1.22-3.17-.22-3.91.2.44,1.64,2.37,2.29,2.16-.56-1-2.75-5-2.49-6.38l.59.36.15-1.13a55.72,55.72,0,0,1,2.4,7c.69.08.62.49,1.09,0a.75.75,0,0,1,.22,1.11l1.44-.75c-.94-1,0-1.81-.75-2.62l-.38,2.19c-1-1-1.77-3.53-.74-4.1.57.21,1.39,2,1.7,2.28-.19-.45.24-1.37.53-1.18l.1.85c.8,0-.37-2,1-1.52.25-.1,1.7.84,1.23.2a26.67,26.67,0,0,1-4.9-5.59,10.26,10.26,0,0,1,2.74.63c1.09.66,1.29,2.64,2.23,3.21a2.46,2.46,0,0,1-.33-1c.42.06.63,1,1,.44-.78-1.12,1-.68-.5-1.07.22-.68.67-.18,1.17-.66a4.82,4.82,0,0,1-1.17-3.41,2.89,2.89,0,0,0,.76.68c1-.67,1.93-.6,2.82-1.31.29.19,1,.14,1.16.75,0-.3-.2-.75,0-1,1.28.47-.49.65.81,1.4-.47-.63,0-1.43.08-2.13-.9-.83-1,.57-1.12,1.27A5.47,5.47,0,0,1,91.09,110c.43-.91,1,.57,1,.29,1.51-.93-.85-3.17,1-3.22,1.14.4,1.47,1.55,2.08,2-.29.82-1.32.29-1.68.66l.82-.05c.06.43-.15,1-.56.93,1,.4,2.34-1.87,3.94-2.17-.07-.43,0-1-.46-1.17l-.21.41c-.89-.36-.24-1.43-.91-1.35,0-.84-.2-2,.73-2.19l1,.78c-.26-.24-.89-.15-.8.27-.13-.62,2,.34,1.22-1.08l-1-.22c0-.85-.37-2.3.44-2.53-1.08-.65,0,.22-1.39-.45,1.54,1-1.41,1.25.39,2.09-1.51-.83-1.14.13-2.61-.41.3.28.71.39.14.66a2.45,2.45,0,0,1,.15.35h0c0,.06,0,.07,0,0a1.51,1.51,0,0,1,.65.24c.43.88-.29,1.52-.19,2.09-.39.1-.21-.44-.65-.62l.14.85c-.65-.62-1.7-.45-1.46-1.4l-.56.48c-.66-.08-1.23.17-1.24.69-.38.08,0,1.31-.23.59l-.47,1.16-.16-.16c-.89.63-.83,2.66-2.88,2.24a1.48,1.48,0,0,1-1,1.11l-.59-.52c-.22.53-1.68.35-1.34,1.12-1.74-1.29-2.23,1.2-3.18,1.5l.61.81a3.86,3.86,0,0,0-1.16,1.78l.61.66c0,1-1.76.63-2.52,1.42-.17-.31.1-.42.38-.39-2.32-.68-1.08,2.89-2.92,2.56,0,.43-.22.49-.52.46,0,0,0,0,0-.09l-.1.07a6,6,0,0,0-.61-.08,2,2,0,0,0,.57.13,2,2,0,0,0-.42.86l-.75-.62a.43.43,0,0,0,0,.07c-.48,0,.12.51.73.93a2,2,0,0,0,.07.72c-1.24-1-.28,1-1.66,0,.38.75-.8,1.55.22,2.92-.16-.15-.3-.17-.18-.3-.4.11-.79.21-.71.78l-.94-.81.53,1.75c-.86-.23-1.3-.42-1.58-1.44.13,1.84-.32,1-.08,2.74l-.49-.62c-.24.25,0,1.41-.54,1.06-1.56-.62-3,2.36-5.41,2.47,1.75,1.59-1.35-.25-.29,1.21-.43-.37-.83-.45-.88-1a.94.94,0,0,1-.44.49c-.14.07-.23,0-.33,0s-.26.11,0,.91c-.3-.47-.3-.79-.5-1,0,.13.12.51-.06.23a2.48,2.48,0,0,1-.24-.69c-.15.22.4,1.92.9,3.53-.55-.53-.58-.38-.57.93-.24-.47-.47-1-.21-1.42a1.83,1.83,0,0,0-.61.17c-.23.14-.48.4-.51,1.19-.07-.37-.32-.07-.4.09-.53-.21-.52-.41-1-.57l.06.33c-.6,1.63-.5.08-.9,0l.08-.16c-.17-.93-.27-.86-.42-.83s-.28,0-.25-.89l-.51.86c-.63.85-.67.36-.59-.25s.32-1.29-.18-1.26l-.25.55c-.37.11-.06-.6.35-1.39a5.71,5.71,0,0,0,.85-1.92c.07-.19.33-.06.53,0,.08-1.77-1.06.7-1.91.16.38-.58,1.45-.95,1.1-1.55.09-.31-.66-.32-1.4-.44s-1.47-.33-1.41-1.15c-.19.54-.4,1-1,1-.77-.44-.06-2.67-1.59-1.83a.84.84,0,0,1,.18-.38c-.64,0-1.64-.52-2.46-.07,1.91-2.73-3.34-.89-1.24-3.12L47,121.57l.24-.19c-.57-.82-1.32-.53-2.08-.23,0-.31.3-.4.43-.51-.62-1.43-.81-1.44-2.73-1.16l.59-.81c-.63.2-.45-2.57-2.3-2.69a.8.8,0,0,1,.42-.22c-1.94-.22-1.08-4.68-3.91-2.35l-1.39,0c.86,1.11-1.17,1.07-1.13,1.89-.53-.18-.36-1.72.27-1.44l0,.2c1.41-1.29-.9-1.6-.06-2.57a24.28,24.28,0,0,1-3-2.84,25.22,25.22,0,0,0-2.68-2.69L29,107.28l-.63-.57c0-.41.45-1.1.9-.69.24-.85-1.24,0-1.44.19-.59-1.19,1.39-1.08,1.13-1.33l-.46-.21,0,.2c-.67.24-1.09.72-1.62.22-.19-.51.36-.86.25-1,.07-.08.05-.16-.19-.2l-.76-.75-.38,1.17c-.72.15-.75-.67-1.17.66.67-2-2.65-3.06-2.57-3.84a1.87,1.87,0,0,1-2.06-.84c0,.32-.78,1.37-1.21.78,2-1.81-.16-1.72.75-3.51-.52,1.28-1.61-1.1-2.31.74-.27-.56.67-.75.8-1.5-1.7-.22-1.6-2.57-2.92-3.55-.28.21-.5.78-1.13.85.25-.61.49-1.2.76-1.8-.33-.13-1.74,1.07-1.18-.16-.18.25-.44.63-.67.53a5.66,5.66,0,0,0-1.06-2.25c-.38-.53-1-1.24-1.54-1.94A10.33,10.33,0,0,1,7.76,82.8c0,.92-.4.66-.74.35.09.33-.63.6-.92,1A7.71,7.71,0,0,0,5.89,83a5.74,5.74,0,0,0-.39-1.17c-.56.4-1,.09-1.59-.19-.14-.07-.28-.14-.41-.19a1.56,1.56,0,0,0-.36,0,.64.64,0,0,0-.58.38h.67c-.69.55-.69,1.41-.82,2.33a5.58,5.58,0,0,1-1,2.64c.64-.57.58.14.48.78s-.16,1.22,1.07.78c-.16.41-.59.28-.85.65.77-.38,1.11-.23,1.16.43l-.2.08a3.44,3.44,0,0,1,.93,1.8,20.11,20.11,0,0,0,.58,2.41l.7-.65c.14.44,0,.69-.12,1,1.48-.36-.65-1.12.94-1.59-.64.77-.23,1.44.3,2.21s.86,1.3.13,2.15c.45.57.73-.84,1.17-.29l-.34.53.71-.35c.19.44-.22,1.1-.59,1.43,0-.12-.32-.16-.43-.23-.15.94,1.31,1.17,1.27,1.48l-.18-.76c1.68,1.12,2.78,3.37,5,3.8l.21-.42c1.58.38.47,1.14,1.86,1.91l-.11,0a1.25,1.25,0,0,1,1.26.29c-.64.14-.13,1.25-.9,1.35,1.73.34,1,0,2.86-.64l-.3.71c.69-.29.93-.54,1.63-.21-.88.1-.35,1.18-1.42,1.38.2,2.28,2.86.23,1.94,2.53,1.85-1.15-.36-1.75.23-1.83a1,1,0,0,1,1.68-.36c.36.35-.95,2.59.08,3.35-.09-.09-.19,0-.29-.06.06.72,1.17,0,1.12,1,1-.79.56.52,1.59-.69l-1.14-.41c.77.07,2.37-1,2.7.32a2.81,2.81,0,0,1-1.09.4c0,.57.68.12.65.7-1,1.22-1.33-.56-2.62,0-.13.75,1.76-.11.44,1,1.72-1.44.84,1,2.52.14l-.61.73c.2,0,.69-.23.88-.07l-1.09.73c1.18-.44.53,1.53,1.41,1.46-1.14-.8.42-1.11.35-2,2.11,0-.61,2.61,1,3.28-.27,0-.37-1,.19-1.12a2.31,2.31,0,0,1,.15,1.43c1,.56.45-.89,1.2-1-.4,1.16.74,0,1.39,0l-.6.76c.66,1.33,1.55-1.34,2,0l-1.26.7.72.13-.81.76c1.05-.18,1.09.13,1.4.8.33-.61,1.22-1.27,1.7-.88-.06.71-.78.54,0,1-.55.32-1.2.75-.9-.17-.24.21-.54.33-.78.54-.1.79.74.85,1,1a.49.49,0,0,1-.1-.39l1.82-.16c-.09.4-.4.51-.71.62.26.09.69-.12,1,.07-.6.52-1.13,1.13-1.76,1l1.46.16c-.17.31-.18,1.11-.49,1.22.17.78,2.24,0,2.47,1.06a.7.7,0,0,1,.53-.07c.49.71.37,1.93,1.84,1.85L38.93,128c.8.32.66-1.83,2-1.29,1,.32-.57,1.11-.6,1.62.84-.19,2.42-.67,2.27.76C42.19,129.05,42.16,128.75,41.9,128.64Zm7.41,6c-.27,0-.94.21-.61-.26C49.62,133.73,49.35,134.21,49.31,134.63Zm15.33,3.68c0,.4-.32.43-.69.25A.61.61,0,0,1,64.64,138.31Zm27.61-32.22a.08.08,0,0,0,0,0C91.71,106.13,91.92,106.14,92.25,106.09Zm.9-.27a.46.46,0,0,0-.24-.33c.12.22,0,.36-.21.46C92.91,106.1,93.11,106.15,93.15,105.82ZM26.79,104.3l0,.3C26.3,104.59,26.54,104.46,26.79,104.3Z"
    transform="translate(-1.46)"/><path class="arrow-double-down-crayon-path" d="M63.21,140.9a1.69,1.69,0,0,1-.21-.49C63,140.63,63,140.83,63.21,140.9Z" transform="translate(-1.46)"/><path class="arrow-double-down-crayon-path" d="M37.13,124.8l0,0-.14.11Z" transform="translate(-1.46)"/><path class="arrow-double-down-crayon-path" d="M88.1,120.74a1.13,1.13,0,0,1-.59-.17A.44.44,0,0,0,88.1,120.74Z" transform="translate(-1.46)"/><path class="arrow-double-down-crayon-path" d="M95.37,101.45l-.24.57c.16-.22.38-.13.59-.12C95.55,101.75,95.25,101.59,95.37,101.45Z" transform="translate(-1.46)"/><path class="arrow-double-down-crayon-path" d="M103.07,102.45c0-.15.12-.13.1-.27l-.31-.32C102.61,102.11,102.67,102.54,103.07,102.45Z" transform="translate(-1.46)"/><path class="arrow-double-down-crayon-path" d="M98,103.41c.59.56.66.11.85-.27,0,0,0,0,0,0C98.06,102.28,98,102.85,98,103.41Z" transform="translate(-1.46)"/><path class="arrow-double-down-crayon-path" d="M98.86,103.05a.53.53,0,0,1,.25-.26C98.83,102.42,98.94,102.82,98.86,103.05Z" transform="translate(-1.46)"/><path class="arrow-double-down-crayon-path" d="M93.58,104.68c.27,0-.63-.83-.33-.66C92.69,103.12,93.22,105.76,93.58,104.68Z" transform="translate(-1.46)"/><polygon class="arrow-double-down-crayon-path" points="98.57 105.13 97.78 104.5 98.18 105.23 98.57 105.13"/><path class="arrow-double-down-crayon-path" d="M97.27,106.75l.65-.24a.37.37,0,0,1-.11-.36C97.5,106.39,97.06,106.54,97.27,106.75Z" transform="translate(-1.46)"/><path class="arrow-double-down-crayon-path" d="M97.81,106.15a.52.52,0,0,0,.25-.47A1,1,0,0,0,97.81,106.15Z" transform="translate(-1.46)"/><polygon class="arrow-double-down-crayon-path" points="98.16 105.94 97.88 105.92 97.5 106.17 98.16 105.94"/><path class="arrow-double-down-crayon-path" d="M92.17,111.14l-.34.66c.17.31.45.35.55.08S92.46,111.32,92.17,111.14Z" transform="translate(-1.46)"/><path class="arrow-double-down-crayon-path" d="M95.55,111.83a1.94,1.94,0,0,1-.74-.36l.81.94Z" transform="translate(-1.46)"/><path class="arrow-double-down-crayon-path" d="M94.19,113.4c.17.31-.14,1.41.49.78C94.51,113.88,94.87,113.19,94.19,113.4Z" transform="translate(-1.46)"/><polygon class="arrow-double-down-crayon-path" points="83.67 118.76 83.79 118.64 82.48 117.08 83.67 118.76"/><path class="arrow-double-down-crayon-path" d="M81.51,128.34c.92-.18-.7-1.06.24-1.09-.18-.49-.77,0-.91-.42C80.82,127.54,80.44,127.5,81.51,128.34Z" transform="translate(-1.46)"/><path class="arrow-double-down-crayon-path" d="M80.84,126.83a1.81,1.81,0,0,0,0-.39A1.1,1.1,0,0,0,80.84,126.83Z" transform="translate(-1.46)"/><path class="arrow-double-down-crayon-path" d="M4.58,80c-.27-.31-.47-.53-.69-.76.09.28.17.55.25.83Z" transform="translate(-1.46)"/><path class="arrow-double-down-crayon-path" d="M2.5,80.87l.22-1.28c-.28.34-.55.68-.8,1C2.1,80.6,2.47,80.56,2.5,80.87Z" transform="translate(-1.46)"/><path class="arrow-double-down-crayon-path" d="M48.21,137.33l.26-.18c.21-.27.16-.37.05-.57Z" transform="translate(-1.46)"/><polygon class="arrow-double-down-crayon-path" points="42.87 132.28 42.95 132.39 43.56 131.36 42.87 132.28"/><path class="arrow-double-down-crayon-path" d="M38.82,129.19c.15.2.53.21.68.42C39,129.39,39.78,128.08,38.82,129.19Z" transform="translate(-1.46)"/></svg>
