<svg id="Ebene_1" data-name="Ebene 1" xmlns="http://www.w3.org/2000/svg" width="166.49" height="82.5" viewBox="0 0 166.49 82.5">
  <defs>
    <style>
      .cls-1 {
        fill: #f7d100;
      }

      .cls-2 {
        fill: #e3001b;
      }
    </style>
  </defs>
  <title>bmwi_logo_de_01</title>
  <path id="path11797" class="cls-1" d="M40,111.4h5v-27H40Z" transform="translate(0.1 -28.9)"/>
  <path id="path11799" class="cls-2" d="M40,84.4h5v-27H40Z" transform="translate(0.1 -28.9)"/>
  <path id="path11801" d="M40,57.5h5v-27H40Z" transform="translate(0.1 -28.9)"/>
  <path id="path11805" d="M12.6,58h0M25.2,35.1a4.82,4.82,0,0,0-1.5-3.2l-.3.1a4.2,4.2,0,0,1,1.2,2.5c0,2.3-2.4,4.2-5.1,4.3v.6a3.4,3.4,0,0,1-.1,1C22.5,40.4,25.2,37.8,25.2,35.1ZM21,53.9c-.7,0-1.3-.1-2-.1-.2,0-.4,0-.4.3a1.16,1.16,0,0,0,.5.7,1.79,1.79,0,0,1,1.4-.4,3.4,3.4,0,0,1,1,.1c0,.3-.1.5-.1.8v.6a2,2,0,0,1-.3,1.5c.1,0,.2.1.3.1.5,0,.6-.3.6-1.6V55a3.28,3.28,0,0,1,1.4,2.2c.3-.2.5-.4.5-.7,0-.5-.8-1.2-1.6-2a1.7,1.7,0,0,1,.7-.1,1.74,1.74,0,0,1,1.5.5,1.88,1.88,0,0,0,.2-.8c0-.4-.2-.4-.4-.4a16.35,16.35,0,0,0-2.2.2A19.39,19.39,0,0,1,20,50.5c-.1,0-.2-.1-.4-.1-.4,0-.4.2-.5.6A16,16,0,0,1,21,53.9Zm-8-2.7c-.1-.3-.2-.6-.5-.6a.6.6,0,0,0-.4.1,23.29,23.29,0,0,1-2,3.4,16.35,16.35,0,0,0-2.2-.2c-.2,0-.4,0-.4.4a2.35,2.35,0,0,0,.2.8,2.1,2.1,0,0,1,1.5-.5c.2,0,.5.1.7.1-.8.9-1.6,1.6-1.6,2a.75.75,0,0,0,.5.7,3.68,3.68,0,0,1,1.4-2.2v.9c0,1.3.1,1.6.6,1.6a.37.37,0,0,0,.3-.1,2.6,2.6,0,0,1-.4-1.5v-.6a2.2,2.2,0,0,0-.1-.8,3.4,3.4,0,0,1,1-.1A1.79,1.79,0,0,1,13,55a1.79,1.79,0,0,0,.5-.7c0-.3-.2-.3-.4-.3a13.4,13.4,0,0,1-2,.1A10.41,10.41,0,0,1,13,51.2ZM7.6,34.6A4.2,4.2,0,0,1,8.8,32l-.3-.1A4.41,4.41,0,0,0,7,35.1c0,2.7,2.8,5.3,5.9,5.3,0-.3-.1-.7-.1-1v-.6C10,38.8,7.6,36.8,7.6,34.6ZM16,32.5a2.28,2.28,0,0,0,.3-1.1c0-1.2-1-1.8-2.3-1.8-.7,0-1,.2-1,.4l.3.9a2.92,2.92,0,0,1,.9-.2C15.1,30.6,15.8,31.6,16,32.5Zm.6-1.6c.8.1,1.3-.8.6-1,.1.3-.4.6-.4.6a.63.63,0,0,1,.1-.7c-.5-.2-.6,0-.6.3a1.33,1.33,0,0,1,.3.8Zm2.5,6.8h.4c2.2,0,4.3-1.4,4.3-3.2a4.29,4.29,0,0,0-1-2.4c-.3,0-.5.1-.8.1-1,0-1.5-.5-1.6-1a.82.82,0,0,1,.9-.8h.1c.9,0,2.6.9,4.3.9a2,2,0,0,1-.8.4A6.53,6.53,0,0,1,26.8,35l2.6,4.1a11.39,11.39,0,0,0,2.7,3.1c-1.7,0-2.8,0-4.2-2.2l-1.3-2.1a3,3,0,0,1-.4.8l2.6,4.2A11.39,11.39,0,0,0,31.5,46c-1.7,0-2.8,0-4.2-2.2L25,40.2c-.2.2-.4.3-.5.5l3.2,5.1a11.39,11.39,0,0,0,2.7,3.1c-1.7,0-2.8,0-4.2-2.2l-3.1-5-.5.3,3.8,6.1a11.39,11.39,0,0,0,2.7,3.1c-1.7,0-2.8,0-4.2-2.2L21,42.8l-.7.2,4.4,7.1a11.39,11.39,0,0,0,2.7,3.1c-1.7,0-2.8,0-4.2-2.2l-4.7-7.5h-.1a5,5,0,0,0-.2,1.2c0,2.4,1.5,4.5,3.4,6.1a.9.9,0,0,1-.5.1h-.8a17.48,17.48,0,0,0,1.8,2.9,14.92,14.92,0,0,1,2.1-.2c.6,0,.7.3.7.7a1.43,1.43,0,0,1-.6,1.2c-.1-.3-.3-.7-1.5-.7h-.1c.3.4,1.4,1.2,1.4,1.9A1.2,1.2,0,0,1,23,57.9v-.4a2.6,2.6,0,0,0-.9-1.6v.3c0,1.3-.1,1.9-.9,1.9a1.14,1.14,0,0,1-.8-.3,1.66,1.66,0,0,0,.6-1.6V55.1h-.6s-1.2-.1-1.4.5c-.3-.3-.8-.7-.8-1.1s.1-.6.7-.6c.2,0,.9.1,1.5.1a10.71,10.71,0,0,0-1.5-2.2,2.36,2.36,0,0,1-.6.9,6.06,6.06,0,0,0-1.1-2.9,21.05,21.05,0,0,0-.2,2.5c0,3.2.8,5.5,2.4,6a1.36,1.36,0,0,1-1.1.7c-.6,0-.9-.7-1.2-1.3-.1.1-.6,1.3-1,1.3s-1-1.1-1.1-1.6c-.3.6-.6,1.3-1.2,1.3a1.23,1.23,0,0,1-1.1-.7c1.6-.5,2.4-2.8,2.4-6a21.05,21.05,0,0,0-.2-2.5,6.47,6.47,0,0,0-1.1,2.9,1.46,1.46,0,0,1-.6-.9,17,17,0,0,0-1.5,2.2c.6,0,1.3-.1,1.5-.1.6,0,.7.3.7.6,0,.5-.5.9-.8,1.1-.3-.6-1.4-.5-1.4-.5h-.6V56a1.66,1.66,0,0,0,.6,1.6,1.14,1.14,0,0,1-.8.3c-.8,0-.9-.6-.9-1.9v-.3a2.6,2.6,0,0,0-.9,1.6v.4a1.16,1.16,0,0,1-1-1.1c0-.7,1-1.5,1.4-1.9H9.2c-1.1,0-1.3.4-1.5.7a1.56,1.56,0,0,1-.6-1.2.62.62,0,0,1,.7-.7,14.92,14.92,0,0,1,2.1.2,17.48,17.48,0,0,0,1.8-2.9,2.15,2.15,0,0,1-.8,0,.75.75,0,0,1-.5-.1c1.9-1.6,3.4-3.7,3.4-6.1a5,5,0,0,0-.2-1.2h-.1L8.8,51c-1.4,2.2-2.5,2.2-4.2,2.2a11.39,11.39,0,0,0,2.7-3.1L11.7,43l-.7-.2L7.1,49C5.7,51.3,4.6,51.2,3,51.2a11.39,11.39,0,0,0,2.7-3.1L9.5,42l-.6-.4-3.1,5c-1.4,2.2-2.5,2.2-4.2,2.2a11.39,11.39,0,0,0,2.7-3.1l3.2-5.1c-.2-.2-.4-.3-.5-.5L4.7,43.7C3.3,46,2.2,45.9.5,45.9a11.39,11.39,0,0,0,2.7-3.1l2.6-4.2c-.1-.3-.3-.5-.4-.8L4.1,39.9c-1.4,2.2-2.5,2.2-4.2,2.2A11.39,11.39,0,0,0,2.6,39l2.6-4.1a5.8,5.8,0,0,1,1.9-3.3,3,3,0,0,1-.8-.4c1.7,0,3.3-.9,4.3-.9a.82.82,0,0,1,1,.7v.1c0,.5-.6,1-1.6,1a2.2,2.2,0,0,1-.8-.1,4.29,4.29,0,0,0-1,2.4c0,1.8,2.2,3.2,4.3,3.2H13a10.32,10.32,0,0,1,2.1-3.3c-.9-.3-1.9-1.2-1.9-1.5a14.62,14.62,0,0,1,2,.5h.1a.78.78,0,0,0,.4-.4,14.16,14.16,0,0,1-2-.4c-.6-.2-.8-.6-.8-.7a5.66,5.66,0,0,0,1.8.3,2.2,2.2,0,0,0,.8-.1,1.48,1.48,0,0,0-1.3-1.1,4.51,4.51,0,0,0-1.1.3,3,3,0,0,1-.5-1.3c0-.4.4-.8,1.4-.8a2.2,2.2,0,0,1,.8.1,4.33,4.33,0,0,1,.5.1v-.1c0-.1.1-.3.6-.3.8,0,1.7.3,2.7.3a1.27,1.27,0,0,0,.6-.1,5.55,5.55,0,0,1-.6.8,2.45,2.45,0,0,1,.6,1.6c0,1.4-.9,2.6-.9,4a5.84,5.84,0,0,0,.8,2.2" transform="translate(0.1 -28.9)"/>
  <g>
    <path d="M55.39,41.5V30.38H59a2.51,2.51,0,0,1,2.48,1.14A3,3,0,0,1,61.93,33,2.31,2.31,0,0,1,60,35.63v.08a2.36,2.36,0,0,1,2.28,2.66c0,2.85-2.08,3.13-3.34,3.13Zm1.42-6.44h2.06a1.56,1.56,0,0,0,1.65-1.77,1.56,1.56,0,0,0-1.71-1.68h-2Zm0,5.2h2a1.88,1.88,0,0,0,2-1.89c0-1.77-1.09-2.08-2.54-2.08H56.8Z" transform="translate(0.1 -28.9)"/>
    <path d="M68.22,33.73h1.26v6.16c0,.54,0,1.08.08,1.62H68.22v-.94h0a2.23,2.23,0,0,1-2,1.09,1.83,1.83,0,0,1-2.09-2V33.73h1.26v5.39c0,.94.43,1.57,1.32,1.57a1.6,1.6,0,0,0,1.52-1.8Z" transform="translate(0.1 -28.9)"/>
    <path d="M75.57,41.5V36.11c0-.83-.29-1.51-1.37-1.51-1.39,0-1.59,1.23-1.59,2.29v4.6H71.35V35.34c0-.54,0-1.08-.08-1.62h1.34v1h.06a2,2,0,0,1,2.08-1.15c1.66,0,2.08,1,2.08,2.54V41.5Z" transform="translate(0.1 -28.9)"/>
    <path d="M82.79,30.38H84V41.5H82.79v-.92h0A1.93,1.93,0,0,1,81,41.65c-1.25,0-2.51-.49-2.51-3.91,0-1.94.06-4.17,2.57-4.17a2,2,0,0,1,1.71.94h0ZM81.32,34.6c-1.35,0-1.54,1.08-1.54,3.16,0,1.17,0,2.86,1.59,2.86,1.42,0,1.42-1.76,1.42-3.33C82.79,36.27,82.72,34.6,81.32,34.6Z" transform="translate(0.1 -28.9)"/>
    <path d="M87.12,38c0,2.17.58,2.6,1.57,2.6A1.4,1.4,0,0,0,90,39.14h1.39c0,1.72-1.08,2.51-2.71,2.51s-3-.49-3-3.93c0-2.28.26-4.16,3-4.16,2.22,0,2.77,1.22,2.77,3.79V38Zm3-1c0-2.26-.63-2.54-1.56-2.54s-1.46.39-1.48,2.54Z" transform="translate(0.1 -28.9)"/>
    <path d="M95.52,41.65c-1.68,0-2.72-.74-2.68-2.52h1.43c0,.45,0,1.49,1.29,1.49.75,0,1.34-.39,1.34-1.19C96.91,38.05,93,38,93,35.7c0-.82.49-2.12,2.68-2.12,1.39,0,2.57.66,2.46,2.2h-1.4a1.09,1.09,0,0,0-1.22-1.25,1.06,1.06,0,0,0-1.2,1c0,1.37,3.88,1.34,3.88,3.71C98.23,41,97.06,41.65,95.52,41.65Z" transform="translate(0.1 -28.9)"/>
    <path d="M103.54,41.5V36.11c0-.79-.22-1.51-1.23-1.51a1.47,1.47,0,0,0-1.09.52,2.32,2.32,0,0,0-.29,1.14V41.5H99.67V35.34c0-.54,0-1.08-.08-1.62h1.34v1h0a1.88,1.88,0,0,1,1.94-1.12,1.9,1.9,0,0,1,1.82,1,1.86,1.86,0,0,1,1.85-1,1.84,1.84,0,0,1,2.13,2V41.5h-1.26V36.11c0-.79-.22-1.51-1.23-1.51a1.15,1.15,0,0,0-1,.29,2,2,0,0,0-.43,1.37V41.5Z" transform="translate(0.1 -28.9)"/>
    <path d="M110.39,30.38h1.42v1.35h-1.42Zm1.34,11.12h-1.26V33.73h1.26Z" transform="translate(0.1 -28.9)"/>
    <path d="M117.76,41.5V36.11c0-.83-.29-1.51-1.37-1.51-1.39,0-1.59,1.23-1.59,2.29v4.6h-1.26V35.34c0-.54,0-1.08-.08-1.62h1.34v1h.06a2,2,0,0,1,2.08-1.15c1.66,0,2.08,1,2.08,2.54V41.5Z" transform="translate(0.1 -28.9)"/>
    <path d="M120.75,30.38h1.42v1.35h-1.42Zm1.34,11.12h-1.26V33.73h1.26Z" transform="translate(0.1 -28.9)"/>
    <path d="M126.18,41.65c-1.68,0-2.72-.74-2.68-2.52h1.43c0,.45,0,1.49,1.29,1.49.75,0,1.34-.39,1.34-1.19,0-1.39-3.88-1.42-3.88-3.74,0-.82.49-2.12,2.68-2.12,1.39,0,2.57.66,2.46,2.2h-1.4a1.09,1.09,0,0,0-1.22-1.25,1.06,1.06,0,0,0-1.2,1c0,1.37,3.88,1.34,3.88,3.71C128.89,41,127.72,41.65,126.18,41.65Z" transform="translate(0.1 -28.9)"/>
    <path d="M131,33.73V32.23l1.26-.57v2.06h1.69v1h-1.69v4.76c0,.49,0,1.12,1.15,1.12.09,0,.29,0,.57-.06v1c-.42,0-.83.12-1.25.12-1.2,0-1.74-.49-1.74-1.39V34.68h-1.28v-1Z" transform="translate(0.1 -28.9)"/>
    <path d="M136.13,38c0,2.17.58,2.6,1.57,2.6a1.4,1.4,0,0,0,1.36-1.48h1.39c0,1.72-1.08,2.51-2.71,2.51s-3-.49-3-3.93c0-2.28.26-4.16,3-4.16,2.22,0,2.77,1.22,2.77,3.79V38Zm3-1c0-2.26-.63-2.54-1.55-2.54s-1.46.39-1.48,2.54Z" transform="translate(0.1 -28.9)"/>
    <path d="M143.46,34.9h0c.52-1.19,1.17-1.32,2.4-1.32v1.31l-.34,0a2.26,2.26,0,0,0-.34,0c-1.4,0-1.75,1.06-1.75,2.11V41.5H142.2V33.73h1.26Z" transform="translate(0.1 -28.9)"/>
    <path d="M147,30.38h1.42v1.35H147Zm1.34,11.12h-1.26V33.73h1.26Z" transform="translate(0.1 -28.9)"/>
    <path d="M154.27,33.73h1.26v6.16c0,.54,0,1.08.08,1.62h-1.34v-.94h0a2.23,2.23,0,0,1-2,1.09,1.83,1.83,0,0,1-2.09-2V33.73h1.26v5.39c0,.94.43,1.57,1.32,1.57a1.6,1.6,0,0,0,1.52-1.8Z" transform="translate(0.1 -28.9)"/>
    <path d="M161.25,41.5V36.11c0-.79-.22-1.51-1.23-1.51a1.47,1.47,0,0,0-1.09.52,2.32,2.32,0,0,0-.29,1.14V41.5h-1.26V35.34c0-.54,0-1.08-.08-1.62h1.34v1h0a1.88,1.88,0,0,1,1.94-1.12,1.9,1.9,0,0,1,1.82,1,1.86,1.86,0,0,1,1.85-1,1.84,1.84,0,0,1,2.13,2V41.5h-1.26V36.11c0-.79-.22-1.51-1.23-1.51a1.15,1.15,0,0,0-1,.29,2,2,0,0,0-.43,1.37V41.5Z" transform="translate(0.1 -28.9)"/>
    <path d="M55.34,50.13V48.62c0-1.57,1.11-1.88,2.23-1.88a3.29,3.29,0,0,1,.6,0v.91c-1.34-.09-1.57.48-1.57,1.11v1.32h1.57v1H56.6V57.9H55.34V51.08h-1.2v-1Z" transform="translate(0.1 -28.9)"/>
    <path d="M63.42,50.13h1.26v6.16c0,.54,0,1.08.08,1.62H63.42V57h0a2.23,2.23,0,0,1-2,1.09,1.83,1.83,0,0,1-2.09-2V50.13h1.26v5.39c0,.94.43,1.57,1.32,1.57a1.6,1.6,0,0,0,1.52-1.8Zm-2-1.31H59.93v-1.6h1.45Zm2.71,0H62.64v-1.6h1.45Z" transform="translate(0.1 -28.9)"/>
    <path d="M67.84,51.29h0C68.39,50.11,69,50,70.27,50v1.31l-.34,0a2.28,2.28,0,0,0-.34,0c-1.4,0-1.76,1.06-1.76,2.11V57.9H66.58V50.13h1.26Z" transform="translate(0.1 -28.9)"/>
    <path d="M73.35,46.78h1.51L77,56.42h0l2.23-9.64h1.83l2,9.64h0l2.26-9.64h1.48L83.9,57.9H82.17l-2.11-9.64h0L77.79,57.9H76.06Z" transform="translate(0.1 -28.9)"/>
    <path d="M88.1,46.78h1.42v1.35H88.1ZM89.44,57.9H88.18V50.13h1.26Z" transform="translate(0.1 -28.9)"/>
    <path d="M92.52,51.29h0C93.08,50.11,93.72,50,95,50v1.31l-.34,0a2.26,2.26,0,0,0-.34,0c-1.4,0-1.75,1.06-1.75,2.11V57.9H91.26V50.13h1.26Z" transform="translate(0.1 -28.9)"/>
    <path d="M96.88,50.13V48.63l1.26-.57v2.06h1.69v1H98.15v4.76c0,.49,0,1.12,1.15,1.12.09,0,.29,0,.57-.06v1c-.42,0-.83.12-1.25.12-1.2,0-1.74-.49-1.74-1.39V51.08H95.6v-1Z" transform="translate(0.1 -28.9)"/>
    <path d="M103.36,58.05c-1.68,0-2.72-.74-2.68-2.52h1.43c0,.45,0,1.49,1.29,1.49.75,0,1.34-.39,1.34-1.19,0-1.39-3.88-1.42-3.88-3.74,0-.82.49-2.12,2.68-2.12,1.39,0,2.57.66,2.46,2.2h-1.4a1.09,1.09,0,0,0-1.22-1.25,1.06,1.06,0,0,0-1.2,1c0,1.37,3.88,1.34,3.88,3.71C106.07,57.39,104.9,58.05,103.36,58.05Z" transform="translate(0.1 -28.9)"/>
    <path d="M111.51,52.62c0-1.28-.6-1.62-1.08-1.62-1,0-1.63.46-1.63,2.59,0,2.52.32,3.43,1.63,3.43.29,0,1.17-.31,1.12-1.71h1.32a2.45,2.45,0,0,1-2.45,2.74c-1.65,0-3-.49-3-3.93,0-2.28.26-4.16,3-4.16,1.55,0,2.46.91,2.39,2.65Z" transform="translate(0.1 -28.9)"/>
    <path d="M118.79,57.9V52.63c0-1-.31-1.63-1.39-1.63-1.26,0-1.59,1-1.59,2.32V57.9h-1.26V46.78h1.26v4.34h.06A2,2,0,0,1,118,50c1.32,0,2.06.66,2.06,2.42V57.9Z" transform="translate(0.1 -28.9)"/>
    <path d="M125.78,56.78h0a1.9,1.9,0,0,1-2,1.28c-1.65,0-2.12-1.06-2.12-2.56,0-2.36,2.31-2.46,4.08-2.42,0-1,0-2.16-1.31-2.16a1.15,1.15,0,0,0-1.22,1.39h-1.37c.06-1.74,1-2.34,2.63-2.34,2,0,2.52,1,2.52,2.34v3.74a12.25,12.25,0,0,0,.15,1.85h-1.39Zm-2.85-1.19c0,.75.37,1.43,1.22,1.43s1.72-.48,1.6-3C124.55,54.05,122.93,53.94,122.93,55.59Z" transform="translate(0.1 -28.9)"/>
    <path d="M129.42,50.13V48.62c0-1.57,1.11-1.88,2.23-1.88a3.28,3.28,0,0,1,.6,0v.91c-1.34-.09-1.57.48-1.57,1.11v1.32h1.57v1h-1.57V57.9h-1.26V51.08h-1.2v-1Z" transform="translate(0.1 -28.9)"/>
    <path d="M134.08,50.13V48.63l1.26-.57v2.06H137v1h-1.69v4.76c0,.49,0,1.12,1.15,1.12.09,0,.29,0,.57-.06v1c-.42,0-.83.12-1.25.12-1.2,0-1.74-.49-1.74-1.39V51.08H132.8v-1Z" transform="translate(0.1 -28.9)"/>
    <path d="M59.27,66.52h1.26v6.16c0,.54,0,1.08.08,1.62H59.27v-.94h0a2.23,2.23,0,0,1-2,1.09,1.83,1.83,0,0,1-2.09-2V66.52h1.26v5.39c0,.94.43,1.57,1.32,1.57a1.6,1.6,0,0,0,1.52-1.8Z" transform="translate(0.1 -28.9)"/>
    <path d="M66.62,74.3V68.91c0-.83-.29-1.51-1.37-1.51-1.39,0-1.59,1.23-1.59,2.29v4.6H62.4V68.14c0-.54,0-1.08-.08-1.62h1.34v1h.06a2,2,0,0,1,2.08-1.15c1.66,0,2.08,1,2.08,2.54V74.3Z" transform="translate(0.1 -28.9)"/>
    <path d="M73.83,63.18H75.1V74.3H73.83v-.92h0A1.92,1.92,0,0,1,72,74.45c-1.25,0-2.51-.49-2.51-3.91,0-1.94.06-4.17,2.57-4.17a2,2,0,0,1,1.71.94h0ZM72.37,67.4c-1.35,0-1.54,1.08-1.54,3.16,0,1.17,0,2.86,1.59,2.86,1.42,0,1.42-1.75,1.42-3.33C73.83,69.06,73.77,67.4,72.37,67.4Z" transform="translate(0.1 -28.9)"/>
    <path d="M80.27,74.3V63.18H86v1.23H81.69V68h4v1.23h-4v3.85h4.4V74.3Z" transform="translate(0.1 -28.9)"/>
    <path d="M91.86,74.3V68.91c0-.83-.29-1.51-1.37-1.51-1.39,0-1.59,1.23-1.59,2.29v4.6H87.64V68.14c0-.54,0-1.08-.08-1.62H88.9v1H89A2.05,2.05,0,0,1,91,66.37c1.66,0,2.08,1,2.08,2.54V74.3Z" transform="translate(0.1 -28.9)"/>
    <path d="M96.13,70.82c0,2.17.58,2.6,1.57,2.6a1.4,1.4,0,0,0,1.36-1.48h1.39c0,1.72-1.08,2.51-2.71,2.51s-3-.49-3-3.93c0-2.28.26-4.16,3-4.16,2.22,0,2.77,1.22,2.77,3.79v.66Zm3-1c0-2.26-.63-2.54-1.55-2.54s-1.46.39-1.48,2.54Z" transform="translate(0.1 -28.9)"/>
    <path d="M103.46,67.69h0c.52-1.19,1.17-1.32,2.4-1.32v1.31l-.34,0a2.26,2.26,0,0,0-.34,0c-1.4,0-1.75,1.06-1.75,2.11V74.3H102.2V66.52h1.26Z" transform="translate(0.1 -28.9)"/>
    <path d="M111.11,66.52h1.26v8.56c0,1.74-1.15,2.16-2.86,2.16-1.29,0-2.46-.65-2.36-2.08h1.42a1.08,1.08,0,0,0,1.19,1.12,1.24,1.24,0,0,0,1.36-1.34V73.33h0a2,2,0,0,1-1.71,1c-2.11,0-2.52-1.82-2.52-4.13,0-3.57,1.8-3.8,2.43-3.8a1.87,1.87,0,0,1,1.82,1.11h0Zm-1.48.89c-1.43,0-1.48,1.72-1.48,2.76,0,2.49.57,3.08,1.51,3.08,1.52,0,1.48-1.8,1.48-2.88S111.22,67.42,109.64,67.42Z" transform="translate(0.1 -28.9)"/>
    <path d="M114.16,63.18h1.42v1.35h-1.42ZM115.5,74.3h-1.26V66.52h1.26Z" transform="translate(0.1 -28.9)"/>
    <path d="M118.48,70.82c0,2.17.58,2.6,1.57,2.6a1.4,1.4,0,0,0,1.36-1.48h1.39c0,1.72-1.08,2.51-2.71,2.51s-3-.49-3-3.93c0-2.28.26-4.16,3-4.16,2.22,0,2.77,1.22,2.77,3.79v.66Zm3-1c0-2.26-.63-2.54-1.55-2.54s-1.46.39-1.48,2.54Z" transform="translate(0.1 -28.9)"/>
  </g>
</svg>
