<?xml version="1.0" encoding="utf-8"?>
<!-- Generator: Adobe Illustrator 21.0.2, SVG Export Plug-In . SVG Version: 6.00 Build 0)  -->
<svg version="1.1" id="Logo" xmlns="http://www.w3.org/2000/svg" xmlns:xlink="http://www.w3.org/1999/xlink" x="0px" y="0px"
	 width="130px" height="66px" viewBox="0 0 130 66" style="enable-background:new 0 0 130 66;" xml:space="preserve">
<style type="text/css">
	.st0{fill:#164194;}
	.st1{fill:#020203;}
	.st2{fill:url(#blau_1_);}
	.st3{fill:url(#rot_1_);}
	.st4{fill:url(#gold_1_);}
</style>
<g id="Bild-Wort-Marke">
	<path id="Wortmarke" class="st0" d="M75.9,40.2H55.6c-0.4,0-0.9-0.1-0.9-0.9V7.6c0-0.8,0.5-0.9,0.9-0.9h19.3c0.4,0,0.9,0.1,0.9,0.9
		v4.1c0,0.8-0.5,0.9-0.9,0.9H63.2c-0.2,0-0.5,0.1-0.5,0.6v6.1c0,0.5,0.3,0.6,0.5,0.6h9.1c0.4,0,0.9,0.1,0.9,0.9v4.1
		c0,0.8-0.5,0.9-0.9,0.9h-9.1c-0.2,0-0.5,0.1-0.5,0.6v7.3c0,0.5,0.3,0.6,0.5,0.6h12.7c0.4,0,0.9,0.1,0.9,0.9v4.1
		C76.8,40.1,76.3,40.2,75.9,40.2z M90.9,40.7c-5.6,0-8.4-1.4-9.2-1.9c-0.5-0.3-0.6-0.7-0.6-1.3v-4c0-0.4,0.1-0.8,0.7-0.8
		c0.5,0,0.7,0.2,1.1,0.4c0.9,0.5,3.2,1.8,7.1,1.8c2.7,0,5.3-0.5,5.3-3.3c0-2-1.2-2.8-2.7-3.7l-5.7-3.5c-1.9-1.2-5.2-3.3-5.2-9
		c0-7.4,6.5-9.2,12.2-9.2c2.9,0,5.9,0.6,8,1.8c0.5,0.3,0.6,0.7,0.6,1.3v4.1c0,0.4-0.1,0.8-0.7,0.8c-0.5,0-0.8-0.3-1.2-0.5
		c-2.4-1.3-3.9-1.9-6.8-1.9c-2.2,0-4.5,0.6-4.5,3c0,1.9,1.3,2.7,2.8,3.5l4.5,2.5c3.9,2.2,6.4,4.2,6.4,9.8
		C103,38,97.6,40.7,90.9,40.7z M129.1,12.7h-10.7c-0.2,0-0.5,0.1-0.5,0.6v7.1c0,0.5,0.3,0.6,0.5,0.6h8.7c0.4,0,0.9,0.1,0.9,0.9V26
		c0,0.8-0.5,0.9-0.9,0.9h-8.7c-0.2,0-0.5,0.1-0.5,0.6v11.9c0,0.8-0.5,0.9-0.9,0.9h-6.2c-0.4,0-0.9-0.1-0.9-0.9V7.7
		c0-0.8,0.5-0.9,0.9-0.9h18.3c0.4,0,0.9,0.1,0.9,0.9v4.1C130,12.6,129.5,12.7,129.1,12.7z"/>
	<path id="Zusatz" class="st1" d="M7.4,51.8c0,0.1,0,0.1-0.1,0.2H3.1c0,0-0.1-0.1-0.1-0.2v-6.3c0-0.1,0-0.1,0.1-0.2h4.1
		c0,0,0.1,0.1,0.1,0.2v0.8c0,0.1,0,0.1-0.1,0.2H4.7c0,0,0,0.1,0,0.1v1.2c0,0,0,0.1,0,0.1h2c0,0,0.1,0.1,0.1,0.2v0.8
		c0,0.1,0,0.1-0.1,0.2h-2c0,0,0,0.1,0,0.1v1.5c0,0,0,0.1,0,0.1h2.7c0,0,0.1,0.1,0.1,0.2v0.8V51.8z M13.4,51.8c0,0.1,0,0.1-0.1,0.2
		h-1.3c0,0-0.1,0-0.1,0c0,0,0-0.1,0-0.1c0,0-0.1,0-0.1,0h-0.2l-0.2,0.1L11.3,52L11,52h-0.5c-0.3,0-0.5,0-0.8-0.1
		c-0.2-0.1-0.4-0.2-0.6-0.4C9,51.4,9,51.3,8.9,51.2c0-0.1-0.1-0.2-0.1-0.3c0-0.1,0-0.3,0-0.4v-3.4c0,0,0-0.1,0-0.2c0,0,0.1,0,0.1,0
		h1.1c0,0,0.1,0,0.1,0c0,0,0.1,0.1,0.1,0.2v2.8c0,0.2,0,0.3,0,0.5c0,0.1,0.1,0.2,0.1,0.3c0.1,0.1,0.2,0.2,0.3,0.2
		c0.1,0,0.3,0.1,0.4,0.1h0.3c0.1,0,0.2,0,0.3-0.1c0.1,0,0.1-0.1,0.2-0.2c0.1-0.1,0.1-0.2,0.1-0.3v-3.3c0-0.1,0-0.1,0.1-0.2h1.4
		c0,0,0.1,0.1,0.1,0.2L13.4,51.8L13.4,51.8z M18.4,48c0,0.1,0,0.1-0.1,0.1c0,0,0,0,0,0h-0.8c-0.2,0-0.3,0-0.5,0.1
		c-0.1,0-0.2,0.1-0.3,0.2c-0.1,0.1-0.1,0.2-0.1,0.3c0,0.1,0,0.2,0,0.3v3c0,0.1,0,0.1-0.1,0.2c0,0-0.1,0-0.1,0h-1.3
		c0,0-0.1-0.1-0.1-0.2v-4.9c0-0.1,0-0.1,0.1-0.2h1.2c0,0,0.1,0,0.1,0c0,0,0,0.1,0,0.1v0.1c0,0,0,0,0,0.1c0,0,0.1,0,0.1,0
		c0.1,0,0.1,0,0.2-0.1l0.3-0.1c0.1-0.1,0.2-0.1,0.3-0.1c0.2,0,0.3-0.1,0.5-0.1c0.1,0,0.2,0,0.3,0c0.1,0,0.1,0,0.1,0.1
		c0,0,0.1,0.1,0.1,0.1c0,0,0,0.1,0,0.1L18.4,48L18.4,48z M24.5,49.4c0,0.4,0,0.7-0.2,1.1c-0.2,0.6-0.7,1.2-1.3,1.4
		C22.6,52,22.2,52,21.8,52c-0.4,0-0.8-0.1-1.1-0.2c-0.6-0.2-1.1-0.7-1.3-1.3c-0.1-0.3-0.2-0.7-0.2-1.1c0-0.4,0-0.7,0.2-1.1
		c0.2-0.6,0.7-1.2,1.3-1.4c0.4-0.1,0.8-0.2,1.1-0.2c0.4,0,0.8,0.1,1.1,0.2c0.3,0.1,0.6,0.3,0.8,0.5c0.2,0.2,0.4,0.5,0.5,0.8
		C24.4,48.7,24.5,49,24.5,49.4z M22.9,49.4c0-0.2,0-0.4,0-0.6c0-0.2-0.1-0.4-0.2-0.5c-0.1-0.1-0.2-0.3-0.3-0.3
		c-0.2-0.1-0.4-0.2-0.6-0.1c-0.2,0-0.4,0-0.5,0.1c-0.1,0.1-0.2,0.2-0.3,0.4c-0.1,0.2-0.1,0.3-0.2,0.5c0,0.2,0,0.4,0,0.6
		c0,0.2,0,0.4,0,0.6c0,0.2,0.1,0.3,0.2,0.5c0.1,0.1,0.2,0.3,0.3,0.3c0.2,0.1,0.4,0.1,0.5,0.1c0.2,0,0.4,0,0.5-0.1
		c0.1-0.1,0.3-0.2,0.3-0.4c0.1-0.2,0.1-0.4,0.2-0.5C22.9,49.8,22.9,49.6,22.9,49.4L22.9,49.4z M31,49.4c0,0.4-0.1,0.8-0.2,1.2
		c-0.1,0.3-0.3,0.6-0.5,0.8c-0.2,0.2-0.5,0.4-0.8,0.5c-0.3,0.1-0.7,0.2-1,0.2c-0.2,0-0.3,0-0.5,0l-0.3-0.1l-0.2-0.1h-0.1
		c-0.1,0-0.1,0-0.1,0.1v1.9c0,0.1,0,0.1-0.1,0.2c0,0-0.1,0-0.1,0h-1.3c0,0-0.1-0.1-0.1-0.2v-6.8c0-0.1,0-0.1,0.1-0.2h1.2
		c0,0,0.1,0,0.1,0c0,0,0,0.1,0,0.1c0,0,0,0,0,0c0,0,0.1,0,0.1,0c0.1,0,0.1,0,0.2,0l0.3-0.1l0.3-0.1c0.2,0,0.3,0,0.5,0
		c0.3,0,0.7,0.1,1,0.2c0.3,0.1,0.5,0.3,0.7,0.5c0.2,0.2,0.4,0.5,0.5,0.8C30.9,48.7,31,49,31,49.4z M29.4,49.4c0-0.2,0-0.4-0.1-0.6
		c0-0.2-0.1-0.3-0.2-0.5c-0.1-0.1-0.2-0.2-0.4-0.3c-0.2-0.1-0.4-0.1-0.6-0.1h-0.2c-0.1,0-0.2,0-0.2,0.1L27.6,48c0,0-0.1,0.1-0.1,0.1
		c0,0-0.1,0.1-0.1,0.2c0,0.1,0,0.2,0,0.2v2c0,0.1,0,0.2,0.1,0.3c0.1,0.1,0.2,0.1,0.3,0.2l0.2,0.1h0.5c0.1,0,0.2,0,0.3-0.1
		c0.1,0,0.2-0.1,0.3-0.2c0.1-0.1,0.2-0.2,0.2-0.3c0.1-0.1,0.1-0.3,0.2-0.5C29.4,49.8,29.4,49.6,29.4,49.4L29.4,49.4z M36.6,51.8
		c0,0.1,0,0.1-0.1,0.2c0,0-0.1,0-0.1,0h-1.1c0,0-0.1,0-0.1,0c0,0,0-0.1,0-0.1c0,0-0.1,0-0.1,0c-0.1,0-0.1,0-0.2,0l-0.3,0.1l-0.4,0
		c-0.2,0-0.3,0-0.5,0c-0.3,0-0.6,0-0.8-0.1c-0.2-0.1-0.4-0.2-0.5-0.3c-0.1-0.1-0.2-0.3-0.3-0.5c0-0.2-0.1-0.3-0.1-0.5
		c0-0.2,0-0.4,0.1-0.6c0.1-0.2,0.2-0.3,0.3-0.5c0.1-0.1,0.3-0.3,0.5-0.3c0.2-0.1,0.5-0.2,0.7-0.3l1.2-0.3H35c0,0,0.1,0,0.1-0.1
		c0,0,0-0.1,0-0.1c0-0.1-0.1-0.3-0.2-0.3c-0.1,0-0.2-0.1-0.3-0.1c-0.1,0-0.3,0-0.4,0c-0.2,0-0.4,0-0.6,0c-0.1,0-0.3,0.1-0.4,0.1
		l-0.3,0.1l-0.2,0.1h-0.2c0,0-0.1,0-0.1,0c0,0,0-0.1,0-0.1v-0.7c0,0,0-0.1,0-0.2c0,0,0.1-0.1,0.1-0.1c0.1-0.1,0.2-0.1,0.4-0.2
		l0.5-0.1l0.5-0.1h0.5c0.3,0,0.5,0,0.8,0.1c0.2,0,0.4,0.1,0.5,0.2c0.1,0,0.2,0.1,0.3,0.2l0.2,0.1c0.1,0.1,0.1,0.1,0.2,0.2
		c0.1,0.1,0.1,0.2,0.1,0.3c0,0.1,0.1,0.2,0.1,0.3c0,0.2,0,0.3,0,0.5L36.6,51.8L36.6,51.8z M34.3,45.7c0,0.2,0,0.3-0.2,0.4
		c-0.1,0.1-0.3,0.1-0.5,0.1c-0.2,0-0.3,0-0.5-0.1C33,46,33,45.8,33,45.7c0-0.2,0-0.3,0.2-0.4c0.1-0.1,0.3-0.1,0.5-0.1
		c0.2,0,0.3,0,0.5,0.1C34.2,45.3,34.3,45.5,34.3,45.7z M35.1,49.5C35.1,49.4,35.1,49.4,35.1,49.5C35.1,49.4,35.1,49.4,35.1,49.5
		l-0.2-0.1l-0.6,0.2l-0.2,0.1c-0.1,0-0.2,0.1-0.2,0.1c-0.1,0.1-0.1,0.1-0.2,0.2c0,0.1-0.1,0.2-0.1,0.3c0,0.2,0,0.4,0.2,0.5
		C34,51,34.2,51,34.4,51h0.3l0.1,0l0.1-0.1c0.1,0,0.1-0.1,0.1-0.2c0-0.1,0.1-0.2,0.1-0.3L35.1,49.5L35.1,49.5z M36,45.7
		c0,0.2,0,0.3-0.2,0.4c-0.1,0.1-0.3,0.1-0.5,0.1c-0.2,0-0.3,0-0.5-0.1c-0.1-0.1-0.2-0.3-0.1-0.5c0-0.2,0-0.3,0.2-0.4
		c0.1-0.1,0.3-0.1,0.5-0.1c0.2,0,0.3,0,0.5,0.1C36,45.3,36.1,45.5,36,45.7z M39.8,45.5c0,0.2-0.1,0.4-0.2,0.5
		c-0.2,0.1-0.4,0.2-0.6,0.2c-0.2,0-0.4-0.1-0.6-0.2c-0.1-0.1-0.2-0.3-0.2-0.5c0-0.2,0.1-0.4,0.2-0.5c0.2-0.1,0.4-0.2,0.6-0.2
		c0.2,0,0.4,0,0.6,0.2C39.8,45.1,39.9,45.3,39.8,45.5z M39.7,51.8c0,0.1,0,0.1-0.1,0.2c0,0-0.1,0-0.1,0h-1.2c0,0-0.1-0.1-0.1-0.2
		v-4.7c0-0.1,0-0.1,0.1-0.2h1.3c0,0,0.1,0,0.1,0c0,0,0.1,0.1,0.1,0.2L39.7,51.8L39.7,51.8z M44.8,50.4c0,0.2,0,0.4-0.1,0.6
		c-0.1,0.2-0.2,0.4-0.4,0.5c-0.2,0.2-0.4,0.3-0.6,0.3C43.4,52,43.1,52,42.8,52c-0.2,0-0.4,0-0.6,0l-0.5-0.1l-0.3-0.1l-0.2-0.1
		c0,0-0.1-0.1-0.1-0.1c0,0,0-0.1,0-0.2v-0.6c0,0,0-0.1,0-0.1c0,0,0.1,0,0.1,0h0.2c0.2,0.1,0.4,0.2,0.6,0.2c0.2,0.1,0.5,0.1,0.7,0.1
		H43c0.1,0,0.1,0,0.2-0.1c0.1,0,0.1-0.1,0.1-0.1c0-0.1,0.1-0.1,0-0.2c0-0.1,0-0.1,0-0.2c0,0-0.1-0.1-0.1-0.1l-0.2-0.1l-0.2-0.1
		l-0.7-0.4l-0.5-0.3c-0.1-0.1-0.2-0.2-0.3-0.3c-0.1-0.1-0.2-0.2-0.2-0.4c-0.1-0.2-0.1-0.3-0.1-0.5c0-0.3,0-0.5,0.2-0.7
		c0.1-0.2,0.2-0.4,0.4-0.5c0.2-0.1,0.4-0.2,0.6-0.3c0.2-0.1,0.5-0.1,0.7-0.1h0.4l0.4,0.1l0.4,0.2c0.1,0,0.1,0.1,0.2,0.1
		c0,0,0.1,0.1,0.1,0.1c0,0,0,0.1,0,0.1V48c0,0,0,0.1,0,0.1c0,0-0.1,0.1-0.1,0h-0.2c-0.1-0.1-0.3-0.1-0.5-0.2
		c-0.2-0.1-0.4-0.1-0.6-0.1h-0.2c-0.1,0-0.1,0-0.2,0c-0.1,0-0.1,0.1-0.2,0.1c0,0.1-0.1,0.1-0.1,0.2c0,0.1,0,0.1,0,0.2
		c0,0,0.1,0.1,0.1,0.1l0.1,0.1l0.1,0.1l0.7,0.3c0.1,0.1,0.3,0.2,0.4,0.3c0.1,0.1,0.2,0.2,0.3,0.3c0.1,0.1,0.2,0.2,0.2,0.4
		C44.7,50.1,44.8,50.3,44.8,50.4z M50.2,51.5c0,0,0,0.1,0,0.2c0,0,0,0.1-0.1,0.1c-0.1,0.1-0.2,0.1-0.3,0.1c-0.1,0-0.3,0.1-0.4,0.1
		l-0.5,0h-0.5c-0.3,0-0.7,0-1-0.1c-0.3-0.1-0.5-0.2-0.7-0.3c-0.2-0.1-0.3-0.3-0.5-0.5c-0.1-0.2-0.2-0.4-0.3-0.5
		c-0.1-0.2-0.1-0.3-0.1-0.5c0-0.2,0-0.3,0-0.5c0-0.2,0-0.4,0-0.5c0-0.2,0.1-0.4,0.1-0.6c0.1-0.2,0.2-0.4,0.3-0.6
		c0.1-0.2,0.3-0.4,0.5-0.5c0.2-0.2,0.5-0.3,0.8-0.3c0.3-0.1,0.7-0.1,1-0.1H49l0.4,0.1l0.4,0.1c0.1,0,0.2,0.1,0.2,0.1
		c0,0,0.1,0.1,0.1,0.1c0,0,0,0.1,0,0.1V48c0,0,0,0.1,0,0.1c0,0-0.1,0-0.1,0h-0.1L49.6,48l-0.2-0.1l-0.3-0.1h-0.3
		c-0.2,0-0.5,0-0.7,0.1c-0.2,0.1-0.3,0.2-0.4,0.4c-0.1,0.2-0.2,0.3-0.2,0.5c0,0.2-0.1,0.4-0.1,0.6c0,0.2,0,0.4,0.1,0.6
		c0,0.2,0.1,0.3,0.2,0.5c0.1,0.1,0.2,0.2,0.4,0.3c0.2,0.1,0.4,0.1,0.6,0.1c0.2,0,0.4,0,0.6-0.1c0.2,0,0.4-0.1,0.5-0.2h0.2
		c0,0,0.1,0,0.1,0c0,0,0,0.1,0,0.1L50.2,51.5L50.2,51.5z M56.4,51.8c0,0.1,0,0.1-0.1,0.2h-1.4c-0.1,0-0.1-0.1-0.1-0.2V49
		c0-0.2,0-0.3,0-0.5c0-0.1-0.1-0.2-0.1-0.3c-0.2-0.2-0.4-0.3-0.7-0.3h-0.3c-0.1,0-0.2,0-0.3,0.1c-0.2,0.1-0.3,0.3-0.3,0.5v3.3
		c0,0,0,0.1,0,0.1c0,0,0,0,0,0h-1.4l0,0c0,0,0-0.1,0-0.1V45c0,0,0-0.1,0-0.1l0,0h1.4c0,0,0,0,0,0c0,0,0,0.1,0,0.1V47
		c0,0.1,0,0.1,0.1,0.1c0,0,0.1,0,0.1,0l0.3-0.1l0.4-0.1c0.2,0,0.3-0.1,0.5,0c0.3,0,0.5,0,0.8,0.1c0.2,0.1,0.4,0.2,0.6,0.4
		c0.1,0.1,0.1,0.2,0.2,0.3c0.1,0.1,0.1,0.2,0.1,0.3c0,0.1,0,0.3,0,0.4L56.4,51.8L56.4,51.8z M62.6,49.5c0,0.1,0,0.1-0.1,0.2
		c0,0-0.1,0-0.1,0h-3.1c-0.1,0-0.1,0-0.1,0.1c0,0,0,0,0,0c0,0.2,0,0.4,0.1,0.5c0.1,0.1,0.2,0.3,0.3,0.4c0.1,0.1,0.3,0.2,0.5,0.2
		c0.2,0,0.4,0.1,0.6,0.1c0.2,0,0.3,0,0.5,0l0.4-0.1l0.3-0.1l0.2-0.1h0.2c0,0,0.1,0,0.1,0c0,0,0,0.1,0,0.1v0.6c0,0,0,0.1,0,0.2
		c0,0-0.1,0.1-0.1,0.1c-0.1,0.1-0.2,0.1-0.3,0.1L61.5,52L61,52h-0.5c-0.2,0-0.5,0-0.7,0c-0.2,0-0.5-0.1-0.7-0.2
		c-0.2-0.1-0.4-0.2-0.6-0.3c-0.2-0.1-0.3-0.3-0.5-0.5c-0.1-0.2-0.2-0.4-0.3-0.7c-0.1-0.3-0.1-0.6-0.1-0.9c0-0.4,0.1-0.8,0.2-1.2
		c0.1-0.3,0.3-0.6,0.5-0.8c0.2-0.2,0.5-0.4,0.8-0.5c0.3-0.1,0.7-0.2,1-0.2c0.3,0,0.6,0,0.9,0.1c0.2,0.1,0.5,0.2,0.7,0.3
		c0.2,0.1,0.3,0.3,0.4,0.5c0.1,0.2,0.2,0.3,0.3,0.5c0.1,0.2,0.1,0.4,0.1,0.6c0,0.2,0,0.4,0,0.5L62.6,49.5L62.6,49.5z M61.1,48.7
		c0-0.2,0-0.3-0.1-0.5c0-0.1-0.1-0.2-0.2-0.3c-0.1-0.1-0.2-0.1-0.3-0.1c-0.1,0-0.2,0-0.3,0c-0.3,0-0.5,0.1-0.7,0.3
		c-0.2,0.2-0.3,0.4-0.3,0.7c0,0,0,0.1,0,0.1c0,0,0.1,0,0.1,0H61c0,0,0.1,0,0.1,0C61.1,48.8,61.1,48.7,61.1,48.7z M67.3,48
		c0,0.1,0,0.1-0.1,0.1c0,0,0,0,0,0h-0.8c-0.2,0-0.3,0-0.5,0.1c-0.1,0-0.2,0.1-0.3,0.2c-0.1,0.1-0.1,0.2-0.1,0.3c0,0.1,0,0.2,0,0.3v3
		c0,0.1,0,0.1-0.1,0.2c0,0-0.1,0-0.1,0H64c0,0-0.1-0.1-0.1-0.2v-4.9c0-0.1,0-0.1,0.1-0.2h1.2c0,0,0.1,0,0.1,0c0,0,0,0.1,0,0.1v0.1
		c0,0,0,0,0,0.1c0,0,0.1,0,0.1,0c0.1,0,0.1,0,0.2-0.1L66,47c0.1-0.1,0.2-0.1,0.3-0.1c0.2,0,0.3-0.1,0.5-0.1c0.1,0,0.2,0,0.3,0
		c0.1,0,0.1,0,0.2,0.1c0,0,0.1,0.1,0.1,0.1c0,0,0,0.1,0,0.1L67.3,48L67.3,48z M75.3,50.1c0,0.3-0.1,0.6-0.2,0.9
		c-0.1,0.2-0.3,0.5-0.5,0.6c-0.2,0.2-0.5,0.3-0.8,0.3C73.6,52,73.2,52,72.9,52c-0.2,0-0.5,0-0.7,0c-0.2,0-0.4-0.1-0.5-0.1
		c-0.1,0-0.2-0.1-0.4-0.1l-0.2-0.1c0,0-0.1-0.1-0.1-0.1c0,0,0-0.1,0-0.2v-0.8c0,0,0-0.1,0-0.1c0,0,0.1,0,0.1,0c0,0,0.1,0,0.1,0
		l0.1,0l0.2,0.1l0.3,0.1c0.1,0,0.3,0.1,0.4,0.1c0.2,0,0.4,0,0.5,0h0.4c0.1,0,0.2,0,0.3-0.1c0.1,0,0.2-0.1,0.2-0.2
		c0.1-0.1,0.1-0.2,0.1-0.3c0-0.1,0-0.2,0-0.3c0-0.1-0.1-0.1-0.1-0.2c-0.1-0.1-0.1-0.1-0.2-0.2l-0.2-0.1l-1.1-0.7l-0.4-0.2
		c-0.1-0.1-0.2-0.2-0.3-0.3c-0.1-0.2-0.2-0.3-0.3-0.5c-0.1-0.2-0.1-0.5-0.1-0.8c0-0.2,0-0.4,0.1-0.7c0.1-0.2,0.2-0.3,0.3-0.5
		c0.1-0.1,0.3-0.2,0.4-0.3c0.2-0.1,0.3-0.2,0.5-0.2c0.2-0.1,0.4-0.1,0.6-0.1c0.2,0,0.4,0,0.6,0c0.3,0,0.6,0,0.9,0.1
		c0.3,0,0.5,0.1,0.7,0.3c0,0,0.1,0.1,0.1,0.1c0,0,0,0.1,0,0.2v0.8c0,0,0,0.1,0,0.1c0,0-0.1,0-0.1,0c0,0-0.1,0-0.1,0l-0.1,0l-0.3-0.2
		l-0.3-0.1c-0.1,0-0.2-0.1-0.3-0.1h-0.7c-0.1,0-0.2,0-0.3,0.1c-0.1,0-0.2,0.1-0.2,0.2c-0.1,0.1-0.1,0.2-0.1,0.3c0,0.1,0,0.2,0,0.2
		c0,0.1,0.1,0.1,0.1,0.2c0,0.1,0.1,0.1,0.2,0.2l0.2,0.1l0.9,0.5c0.2,0.1,0.4,0.2,0.5,0.3c0.2,0.1,0.3,0.2,0.4,0.4
		c0.1,0.2,0.2,0.3,0.3,0.5C75.2,49.6,75.3,49.8,75.3,50.1z M81.7,49.4c0,0.4,0,0.7-0.2,1.1c-0.2,0.6-0.7,1.2-1.3,1.4
		C79.9,52,79.5,52,79.1,52c-0.4,0-0.8-0.1-1.1-0.2c-0.6-0.2-1.1-0.7-1.3-1.3c-0.1-0.3-0.2-0.7-0.2-1.1c0-0.4,0-0.7,0.2-1.1
		c0.2-0.6,0.7-1.2,1.3-1.4c0.4-0.1,0.8-0.2,1.2-0.2c0.4,0,0.8,0.1,1.1,0.2c0.3,0.1,0.6,0.3,0.8,0.5c0.2,0.2,0.4,0.5,0.5,0.8
		C81.7,48.7,81.7,49,81.7,49.4z M80.1,49.4c0-0.2,0-0.4,0-0.6c0-0.2-0.1-0.4-0.2-0.5c-0.1-0.1-0.2-0.3-0.3-0.3
		c-0.2-0.1-0.4-0.1-0.6-0.1c-0.2,0-0.4,0-0.6,0.1c-0.1,0.1-0.3,0.2-0.3,0.4c-0.1,0.2-0.1,0.3-0.2,0.5c0,0.2,0,0.4,0,0.6
		c0,0.2,0,0.4,0,0.6c0,0.2,0.1,0.3,0.2,0.5c0.1,0.1,0.2,0.3,0.3,0.3c0.2,0.1,0.4,0.1,0.6,0.1c0.2,0,0.4,0,0.6-0.1
		c0.1-0.1,0.3-0.2,0.3-0.4c0.1-0.2,0.1-0.4,0.1-0.6C80.1,49.8,80.1,49.6,80.1,49.4L80.1,49.4z M87,51.8c0,0.1,0,0.1-0.1,0.2L86.8,52
		h-4c0,0-0.1-0.1-0.1-0.2v-0.7c0-0.1,0-0.1,0.1-0.2c0-0.1,0.1-0.1,0.1-0.2l2.1-2.8c0,0,0,0,0-0.1c0,0,0,0,0-0.1H83c0,0-0.1,0-0.1,0
		c-0.1,0-0.1-0.1-0.1-0.2c0,0,0-0.1,0-0.1v-0.7c0-0.1,0-0.1,0.1-0.2c0,0,0.1,0,0.1,0h3.6c0,0,0.1,0,0.1,0c0,0,0.1,0.1,0.1,0.2v0.5
		c0,0.1,0,0.1,0,0.2c0,0.1,0,0.1-0.1,0.2l-2.1,2.8v0c0,0,0,0,0,0.1c0,0,0,0,0,0.1h2.3c0,0,0.1,0.1,0.1,0.2L87,51.8L87,51.8z
		 M89.9,45.5c0,0.2-0.1,0.4-0.2,0.5c-0.2,0.1-0.4,0.2-0.6,0.2c-0.2,0-0.4-0.1-0.6-0.2c-0.1-0.1-0.2-0.3-0.2-0.5
		c0-0.2,0.1-0.4,0.2-0.5c0.2-0.1,0.4-0.2,0.6-0.2c0.2,0,0.4,0,0.6,0.2C89.9,45.1,89.9,45.3,89.9,45.5z M89.8,51.8
		c0,0.1,0,0.1-0.1,0.2c0,0-0.1,0-0.1,0h-1.3c0,0-0.1-0.1-0.1-0.2v-4.7c0-0.1,0-0.1,0.1-0.2h1.3c0,0,0.1,0,0.1,0c0,0,0.1,0.1,0.1,0.2
		L89.8,51.8L89.8,51.8z M95.7,51.8c0,0.1,0,0.1-0.1,0.2c0,0-0.1,0-0.1,0h-1.1c0,0-0.1,0-0.1,0c0,0,0-0.1,0-0.1c0,0-0.1,0-0.1,0
		c-0.1,0-0.1,0-0.2,0l-0.3,0.1l-0.4,0c-0.2,0-0.3,0-0.5,0c-0.3,0-0.6,0-0.8-0.1c-0.2-0.1-0.4-0.2-0.5-0.3c-0.1-0.1-0.2-0.3-0.3-0.5
		c0-0.2-0.1-0.3-0.1-0.5c0-0.2,0-0.4,0.1-0.6c0.1-0.2,0.2-0.3,0.3-0.5c0.1-0.1,0.3-0.3,0.5-0.3c0.2-0.1,0.5-0.2,0.7-0.3l1.1-0.3h0.2
		c0,0,0.1,0,0.1-0.1c0,0,0-0.1,0-0.1c0-0.1-0.1-0.3-0.2-0.3c-0.1-0.1-0.1-0.1-0.2-0.2c-0.1,0-0.3,0-0.4,0c-0.2,0-0.4,0-0.6,0
		c-0.1,0-0.3,0.1-0.4,0.1L92.1,48l-0.3,0.1h-0.1c0,0-0.1,0-0.1,0c0,0,0-0.1,0-0.1v-0.7c0,0,0-0.1,0-0.2c0,0,0-0.1,0.1-0.1
		c0.1-0.1,0.2-0.1,0.4-0.2l0.5-0.1l0.5-0.1h0.5c0.3,0,0.5,0,0.8,0.1c0.2,0,0.4,0.1,0.5,0.2c0.1,0,0.2,0.1,0.3,0.2l0.2,0.1
		c0.1,0.1,0.1,0.1,0.2,0.2c0.1,0.1,0.1,0.2,0.1,0.3c0,0.1,0.1,0.2,0.1,0.3c0,0.2,0,0.3,0,0.5L95.7,51.8L95.7,51.8z M94.3,49.5
		C94.3,49.4,94.2,49.4,94.3,49.5C94.2,49.4,94.2,49.4,94.3,49.5L94,49.4l-0.6,0.2l-0.2,0.1c-0.1,0-0.2,0.1-0.2,0.1
		c-0.1,0.1-0.1,0.1-0.2,0.2c0,0.1-0.1,0.2-0.1,0.3c0,0.2,0,0.4,0.2,0.5c0.2,0.1,0.4,0.2,0.6,0.2h0.2l0.2,0H94l0.1-0.1
		c0.1,0,0.1-0.1,0.1-0.2c0-0.1,0.1-0.2,0.1-0.3L94.3,49.5L94.3,49.5z M98.9,51.8c0,0.1,0,0.1-0.1,0.2c0,0-0.1,0-0.1,0h-1.3
		c0,0-0.1-0.1-0.1-0.2V45c0-0.1,0-0.1,0.1-0.2h1.3c0,0,0.1,0,0.1,0c0,0,0.1,0.1,0.1,0.2V51.8z M103.3,47.7c0,0.1,0,0.1-0.1,0.2
		c0,0-0.1,0-0.1,0h-0.8c0,0,0,0.1,0,0.1v3.8c0,0.1,0,0.1-0.1,0.2c0,0-0.1,0-0.1,0h-1.3c0,0-0.1-0.1-0.1-0.2V48c0,0,0-0.1,0-0.1h-0.5
		c0,0-0.1,0-0.1,0c0,0-0.1-0.1-0.1-0.2v-0.7c0-0.1,0-0.1,0.1-0.2c0,0,0.1,0,0.1,0h0.5c0,0,0-0.1,0-0.1V46c0-0.1,0-0.1,0-0.2
		c0,0,0-0.1,0-0.1c0.1-0.2,0.1-0.3,0.3-0.4c0.1-0.1,0.2-0.2,0.4-0.3c0.1-0.1,0.3-0.1,0.4-0.1h0.7c0.1,0,0.2,0,0.3,0.1
		c0.1,0,0.2,0.1,0.2,0.1c0.1,0,0.1,0.1,0.1,0.2v0.6c0,0,0,0.1,0,0.1c0,0-0.1,0-0.1,0h-0.4c-0.1,0-0.2,0-0.3,0.1
		c-0.1,0.1-0.1,0.1-0.2,0.2c0,0,0,0.1,0,0.1v0.5c0,0,0,0.1,0,0.1h0.8c0,0,0.1,0,0.1,0c0,0,0.1,0.1,0.1,0.2L103.3,47.7L103.3,47.7z
		 M109.4,49.4c0,0.4,0,0.7-0.2,1.1c-0.2,0.6-0.7,1.2-1.3,1.4c-0.4,0.1-0.8,0.2-1.2,0.2c-0.4,0-0.8-0.1-1.1-0.2
		c-0.6-0.2-1.1-0.7-1.3-1.3c-0.1-0.3-0.2-0.7-0.2-1.1c0-0.4,0-0.7,0.2-1.1c0.2-0.6,0.7-1.2,1.3-1.4c0.4-0.1,0.8-0.2,1.2-0.2
		c0.4,0,0.7,0.1,1.1,0.2c0.3,0.1,0.6,0.3,0.8,0.5c0.2,0.2,0.4,0.5,0.5,0.8C109.3,48.7,109.4,49,109.4,49.4z M107.8,49.4
		c0-0.2,0-0.4,0-0.6c0-0.2-0.1-0.4-0.2-0.5c-0.1-0.1-0.2-0.3-0.3-0.3c-0.2-0.1-0.4-0.1-0.6-0.1c-0.2,0-0.4,0-0.6,0.1
		c-0.1,0.1-0.3,0.2-0.3,0.4c-0.1,0.2-0.1,0.3-0.2,0.5c0,0.2,0,0.4,0,0.6c0,0.2,0,0.4,0,0.6c0,0.2,0.1,0.3,0.2,0.5
		c0.1,0.1,0.2,0.3,0.3,0.3c0.2,0.1,0.4,0.1,0.6,0.1c0.2,0,0.4,0,0.6-0.1c0.1-0.1,0.3-0.2,0.3-0.4c0.1-0.2,0.1-0.3,0.2-0.5
		C107.8,49.8,107.8,49.6,107.8,49.4L107.8,49.4z M115.5,51.8c0,0.1,0,0.1-0.1,0.2H114c0,0-0.1-0.1-0.1-0.2V49c0-0.2,0-0.3,0-0.5
		c0-0.1-0.1-0.2-0.1-0.3c-0.2-0.2-0.4-0.3-0.7-0.3h-0.3c-0.1,0-0.2,0-0.3,0.1c-0.2,0.1-0.3,0.3-0.3,0.5v3.3c0,0.1,0,0.1-0.1,0.2
		c0,0-0.1,0-0.1,0h-1.3c0,0-0.1-0.1-0.1-0.2v-4.7c0-0.1,0-0.1,0.1-0.2h1.3c0,0,0.1,0,0.1,0c0,0,0,0.1,0,0.1c0,0,0,0,0,0
		c0,0,0.1,0,0.1,0c0.1,0,0.1,0,0.2,0l0.2-0.1c0.2-0.1,0.3-0.1,0.5-0.1c0.2,0,0.3-0.1,0.5-0.1c0.3,0,0.5,0,0.8,0.1
		c0.2,0.1,0.4,0.2,0.6,0.4c0.1,0.1,0.1,0.2,0.2,0.3c0.1,0.1,0.1,0.2,0.1,0.3c0,0.1,0,0.3,0.1,0.4L115.5,51.8L115.5,51.8z
		 M121.9,51.8c0,0.1,0,0.1-0.1,0.2c0,0-0.1,0-0.1,0h-1.1c0,0-0.1,0-0.1,0c0,0,0-0.1,0-0.1c0,0-0.1,0-0.1,0c-0.1,0-0.1,0-0.2,0
		l-0.3,0.1l-0.4,0.1c-0.2,0-0.3,0-0.5,0c-0.3,0-0.7-0.1-1-0.2c-0.3-0.1-0.5-0.3-0.7-0.5c-0.2-0.2-0.4-0.5-0.4-0.8
		c-0.1-0.3-0.2-0.7-0.2-1.1c0-0.4,0-0.8,0.2-1.2c0.1-0.3,0.3-0.6,0.5-0.8c0.2-0.2,0.5-0.4,0.7-0.5c0.3-0.1,0.7-0.2,1-0.2
		c0.2,0,0.3,0,0.5,0l0.3,0.1l0.2,0.1h0.1c0.1,0,0.1,0,0.1-0.1V45c0-0.1,0-0.1,0.1-0.2c0,0,0.1,0,0.1,0h1.1c0,0,0.1,0,0.1,0
		c0,0,0.1,0.1,0.1,0.2L121.9,51.8L121.9,51.8z M120.4,48.4c0-0.1,0-0.2-0.1-0.3c-0.1-0.1-0.2-0.1-0.3-0.2c-0.1,0-0.1-0.1-0.2-0.1
		h-0.5c-0.1,0-0.2,0-0.3,0.1c-0.1,0-0.2,0.1-0.3,0.2c-0.1,0.1-0.2,0.2-0.2,0.3c-0.1,0.1-0.1,0.3-0.2,0.4c0,0.2-0.1,0.4-0.1,0.6
		c0,0.2,0,0.4,0.1,0.6c0,0.2,0.1,0.3,0.2,0.5c0.1,0.1,0.2,0.2,0.4,0.3c0.2,0.1,0.4,0.1,0.6,0.1h0.2c0.1,0,0.1,0,0.2-0.1l0.2-0.1
		c0,0,0.1-0.1,0.1-0.1c0,0,0.1-0.1,0.1-0.2c0-0.1,0-0.2,0-0.2L120.4,48.4L120.4,48.4z M126.9,50.4c0,0.2,0,0.4-0.1,0.6
		c-0.1,0.2-0.2,0.4-0.4,0.5c-0.2,0.2-0.4,0.3-0.6,0.3c-0.3,0.1-0.6,0.1-0.9,0.1c-0.2,0-0.4,0-0.6,0l-0.5-0.1c-0.1,0-0.2-0.1-0.3-0.1
		l-0.2-0.1c0,0-0.1-0.1-0.1-0.1c0,0,0-0.1,0-0.2v-0.7c0,0,0-0.1,0-0.1c0,0,0.1,0,0.1,0h0.2c0.2,0.1,0.4,0.2,0.6,0.2
		c0.2,0.1,0.5,0.1,0.7,0.1h0.2c0.1,0,0.1,0,0.2-0.1c0.1,0,0.1-0.1,0.1-0.1c0-0.1,0.1-0.1,0.1-0.2c0-0.1,0-0.1,0-0.2
		c0,0-0.1-0.1-0.1-0.1l-0.1-0.1l-0.1-0.1l-0.6-0.4l-0.4-0.3c-0.1-0.1-0.2-0.2-0.3-0.3c-0.1-0.1-0.2-0.2-0.2-0.4
		c-0.1-0.2-0.1-0.3-0.1-0.5c0-0.3,0-0.5,0.2-0.7c0.1-0.2,0.2-0.4,0.4-0.5c0.2-0.1,0.4-0.2,0.6-0.3c0.2-0.1,0.5-0.1,0.8-0.1h0.4
		l0.4,0.1l0.3,0.1c0.1,0,0.1,0.1,0.2,0.1c0,0,0.1,0.1,0.1,0.1c0,0,0,0.1,0,0.1V48c0,0,0,0.1,0,0.1c0,0-0.1,0.1-0.1,0h-0.2
		c-0.1-0.1-0.3-0.1-0.5-0.2c-0.2-0.1-0.4-0.1-0.6-0.1h-0.2c-0.1,0-0.1,0-0.2,0c-0.1,0-0.1,0.1-0.1,0.1c0,0.1-0.1,0.1-0.1,0.2
		c0,0.1,0,0.1,0,0.2c0,0,0.1,0.1,0.1,0.1l0.1,0.1l0.1,0.1l0.7,0.3c0.1,0.1,0.3,0.2,0.4,0.3c0.1,0.1,0.2,0.2,0.3,0.3
		c0.1,0.1,0.2,0.2,0.2,0.4C126.9,50.1,126.9,50.3,126.9,50.4z M28,59.7c0,0.1,0,0.1-0.1,0.2c0,0-0.1,0-0.1,0h-0.8c0,0,0,0.1,0,0.1
		v3.8c0,0.1,0,0.1-0.1,0.2c0,0.1-0.1,0.1-0.2,0.1h-1.2c0,0-0.1-0.1-0.1-0.2V60c0,0,0-0.1,0-0.1H25c0,0-0.1,0-0.1,0
		c-0.1,0-0.1-0.1-0.1-0.2v-0.7c0-0.1,0-0.1,0.1-0.2c0,0,0.1,0,0.1,0h0.5c0,0,0-0.1,0-0.1V58c0-0.1,0-0.1,0-0.2c0,0,0-0.1,0-0.1
		c0.1-0.2,0.1-0.3,0.3-0.4c0.2-0.1,0.3-0.2,0.5-0.2c0.1-0.1,0.3-0.1,0.4-0.1h0.7c0.1,0,0.2,0,0.3,0.1c0.1,0,0.2,0.1,0.2,0.1
		c0.1,0,0.1,0.1,0.1,0.2v0.6c0,0,0,0.1,0,0.1c0,0-0.1,0-0.1,0h-0.4c-0.1,0-0.2,0-0.3,0.1c-0.1,0.1-0.1,0.1-0.1,0.2c0,0,0,0.1,0,0.1
		v0.5c0,0,0,0.1,0,0.1h0.8c0,0,0.1,0,0.1,0c0,0,0.1,0.1,0.1,0.2L28,59.7L28,59.7z M33.8,63.8c0,0.1,0,0.1-0.1,0.2L33.6,64h-1.1
		c0,0-0.1,0-0.1,0c0,0,0-0.1,0-0.1c0,0-0.1,0-0.1,0h-0.2L31.9,64L31.7,64l-0.3,0h-0.6c-0.3,0-0.5,0-0.8-0.1
		c-0.2-0.1-0.4-0.2-0.6-0.4c-0.1-0.1-0.1-0.2-0.2-0.3c-0.1-0.1-0.1-0.2-0.1-0.3c0-0.1,0-0.3,0-0.4v-3.4c0-0.1,0-0.1,0.1-0.2
		c0,0,0.1,0,0.1,0h1.1c0,0,0.1,0,0.1,0c0,0,0.1,0.1,0.1,0.2v2.8c0,0.2,0,0.3,0,0.5c0,0.1,0.1,0.2,0.1,0.3c0.1,0.1,0.2,0.2,0.3,0.2
		c0.1,0,0.3,0.1,0.4,0.1h0.3c0.1,0,0.2,0,0.3-0.1c0.1,0,0.2-0.1,0.2-0.2c0.1-0.1,0.1-0.2,0.1-0.3v-3.3c0-0.1,0-0.1,0.1-0.2h1.4
		c0,0,0.1,0.1,0.1,0.2L33.8,63.8L33.8,63.8z M31.2,57.7c0,0.2,0,0.3-0.2,0.4c-0.1,0.1-0.3,0.1-0.5,0.1c-0.2,0-0.3,0-0.5-0.1
		c-0.1-0.1-0.2-0.3-0.2-0.5c0-0.2,0-0.3,0.2-0.4c0.1-0.1,0.3-0.1,0.5-0.1c0.2,0,0.3,0,0.5,0.1C31.1,57.3,31.2,57.5,31.2,57.7
		L31.2,57.7z M32.9,57.7c0,0.2,0,0.3-0.2,0.4c-0.1,0.1-0.3,0.1-0.5,0.1c-0.2,0-0.3,0-0.5-0.1c-0.1-0.1-0.2-0.3-0.2-0.5
		c0-0.2,0-0.3,0.2-0.4c0.1-0.1,0.3-0.1,0.5-0.1c0.2,0,0.3,0,0.5,0.1C32.9,57.3,32.9,57.5,32.9,57.7L32.9,57.7z M38.8,60
		c0,0.1,0,0.1-0.1,0.1c0,0,0,0,0,0h-0.8c-0.2,0-0.3,0-0.5,0.1c-0.1,0-0.2,0.1-0.3,0.2c-0.1,0.1-0.1,0.2-0.1,0.3c0,0.1,0,0.2,0,0.3v3
		c0,0.1,0,0.1-0.1,0.1c-0.1,0-0.1,0-0.2-0.1h-1.3c0,0-0.1-0.1-0.1-0.2v-4.8c0-0.1,0-0.1,0.1-0.2h1.3c0,0,0.1,0,0.1,0
		c0,0,0,0.1,0,0.1v0.1c0,0,0,0,0,0.1c0,0,0.1,0,0.1,0c0.1,0,0.1,0,0.2-0.1l0.3-0.1c0.1-0.1,0.2-0.1,0.3-0.1c0.2,0,0.3-0.1,0.5-0.1
		c0.1,0,0.2,0,0.3,0c0.1,0,0.1,0,0.2,0.1c0.1,0,0.1,0.1,0.1,0.1c0,0,0,0.1,0,0.1C38.8,59.1,38.8,60,38.8,60z M49,60.6
		c0,0.3,0,0.6-0.1,0.9c-0.1,0.3-0.2,0.6-0.3,0.8c-0.1,0.2-0.3,0.5-0.5,0.7c-0.2,0.2-0.4,0.4-0.6,0.5c-0.3,0.2-0.6,0.3-0.9,0.3
		c-0.4,0.1-0.8,0.1-1.3,0.1h-2.4c-0.1,0-0.1-0.1-0.1-0.2v-6.3c0-0.1,0-0.1,0.1-0.2h2.5c0.4,0,0.7,0,1.1,0.1c0.3,0,0.6,0.1,0.8,0.3
		c0.3,0.1,0.5,0.3,0.7,0.5c0.2,0.2,0.4,0.4,0.5,0.7c0.1,0.3,0.3,0.5,0.3,0.8C48.9,60,49,60.3,49,60.6z M47.3,60.6
		c0-0.4-0.1-0.8-0.3-1.2c-0.2-0.3-0.4-0.6-0.8-0.7L46,58.5l-0.3-0.1h-1.3c0,0,0,0.1,0,0.1v4.1c0,0,0,0.1,0,0.1h1.2
		c0.2,0,0.3-0.1,0.5-0.1c0.2-0.1,0.3-0.1,0.5-0.2c0.2-0.1,0.3-0.3,0.4-0.4c0.1-0.2,0.2-0.4,0.3-0.6C47.3,61.1,47.3,60.9,47.3,60.6
		L47.3,60.6z M55,61.5c0,0.1,0,0.1-0.1,0.2c0,0-0.1,0-0.1,0h-3c-0.1,0-0.1,0-0.1,0.1c0,0,0,0,0,0c0,0.2,0,0.4,0.1,0.5
		c0.1,0.1,0.2,0.3,0.3,0.4c0.1,0.1,0.3,0.2,0.5,0.2c0.2,0,0.4,0.1,0.6,0.1c0.2,0,0.3,0,0.5,0l0.4-0.1l0.3-0.1l0.2-0.1h0.1
		c0,0,0.1,0,0.1,0c0,0,0,0.1,0,0.1v0.6c0,0,0,0.1,0,0.2c0,0-0.1,0.1-0.1,0.1c-0.1,0.1-0.2,0.1-0.3,0.1L53.9,64l-0.5,0h-0.5
		c-0.2,0-0.5,0-0.7,0c-0.2,0-0.5-0.1-0.7-0.2c-0.2-0.1-0.4-0.2-0.6-0.3c-0.2-0.1-0.3-0.3-0.5-0.5c-0.1-0.2-0.2-0.4-0.3-0.7
		C50,62,50,61.7,50,61.4c0-0.4,0.1-0.8,0.2-1.2c0.1-0.3,0.3-0.6,0.5-0.8c0.2-0.2,0.5-0.4,0.8-0.5c0.3-0.1,0.7-0.2,1-0.2
		c0.3,0,0.6,0,0.9,0.1c0.2,0.1,0.5,0.2,0.7,0.3c0.2,0.1,0.3,0.3,0.4,0.5c0.1,0.2,0.2,0.3,0.3,0.5c0.1,0.2,0.1,0.4,0.1,0.6
		c0,0.2,0,0.4,0,0.5L55,61.5L55,61.5z M53.5,60.7c0-0.2,0-0.3-0.1-0.5c-0.1-0.1-0.1-0.2-0.2-0.3c-0.1-0.1-0.2-0.1-0.3-0.2
		c-0.1,0-0.2,0-0.3,0c-0.2,0-0.5,0.1-0.7,0.2c-0.2,0.2-0.3,0.4-0.3,0.7c0,0,0,0.1,0,0.1c0,0,0.1,0,0.1,0h1.7c0,0,0.1,0,0.1,0
		C53.5,60.7,53.5,60.7,53.5,60.7z M61,63.8c0,0.1,0,0.1-0.1,0.2L60.8,64h-1.1c0,0-0.1,0-0.1,0c0,0,0-0.1,0-0.1c0,0-0.1,0-0.1,0h-0.2
		L59.1,64l-0.3,0L58.6,64h-0.5c-0.3,0-0.5,0-0.8-0.1c-0.2-0.1-0.4-0.2-0.6-0.4c-0.1-0.1-0.1-0.2-0.2-0.3c-0.1-0.1-0.1-0.2-0.1-0.3
		c0-0.1,0-0.3,0-0.4v-3.4c0-0.1,0-0.1,0.1-0.2c0,0,0.1,0,0.1,0h1.1c0,0,0.1,0,0.1,0c0,0,0.1,0.1,0.1,0.2v2.8c0,0.2,0,0.3,0,0.5
		c0,0.1,0.1,0.2,0.1,0.3c0.1,0.1,0.2,0.2,0.3,0.2c0.1,0,0.3,0.1,0.4,0.1H59c0.1,0,0.2,0,0.3-0.1c0.1,0,0.2-0.1,0.2-0.2
		c0.1-0.1,0.1-0.2,0.1-0.3v-3.3c0-0.1,0-0.1,0.1-0.2h1.3c0,0,0.1,0.1,0.1,0.2L61,63.8L61,63.8z M65.9,63.7c0,0.1-0.1,0.1-0.1,0.2
		c-0.1,0.1-0.2,0.1-0.3,0.1c-0.1,0-0.3,0.1-0.4,0.1h-1c-0.1,0-0.3-0.1-0.4-0.1c-0.1,0-0.2-0.1-0.3-0.2c-0.1-0.1-0.1-0.1-0.2-0.2
		c-0.1-0.1-0.1-0.2-0.1-0.3c0-0.1-0.1-0.2-0.1-0.4c0-0.2,0-0.3,0-0.5V60c0,0,0-0.1,0-0.1h-0.7c0,0-0.1-0.1-0.1-0.2v-0.7
		c0-0.1,0-0.1,0.1-0.2h0.6c0,0,0,0,0.1,0c0,0,0-0.1,0-0.1v-1c0-0.1,0-0.1,0.1-0.2c0,0,0.1,0,0.1,0h1.1c0,0,0.1,0,0.1,0
		c0,0,0.1,0.1,0.1,0.2v1c0,0,0,0.1,0,0.1h1.3c0,0,0.1,0,0.1,0c0,0,0.1,0.1,0.1,0.2v0.7c0,0.1,0,0.1-0.1,0.2c0,0-0.1,0-0.1,0h-1.3
		c0,0,0,0.1,0,0.1v2.3c0,0.1,0,0.1,0,0.2c0,0,0,0.1,0.1,0.1c0,0,0.1,0.1,0.1,0.1c0.1,0,0.1,0.1,0.2,0.1c0.1,0,0.2,0,0.3,0
		c0.1,0,0.2,0,0.3,0l0.2-0.1l0.1-0.1h0.1c0,0,0.1,0,0.1,0c0,0,0,0.1,0,0.1L65.9,63.7L65.9,63.7z M70.8,62.4c0,0.2,0,0.4-0.1,0.6
		c-0.1,0.2-0.2,0.4-0.4,0.5c-0.2,0.2-0.4,0.3-0.6,0.3C69.4,64,69.1,64,68.8,64c-0.2,0-0.4,0-0.6,0l-0.5-0.1l-0.3-0.1l-0.2-0.1
		c0,0-0.1-0.1-0.1-0.1c0,0,0-0.1,0-0.2v-0.6c0,0,0-0.1,0-0.1c0,0,0.1,0,0.1,0h0.2c0.2,0.1,0.4,0.2,0.6,0.2c0.2,0.1,0.5,0.1,0.7,0.1
		H69c0.1,0,0.1,0,0.2-0.1c0.1,0,0.1-0.1,0.1-0.1c0-0.1,0.1-0.1,0.1-0.2c0-0.1,0-0.1,0-0.2c0,0-0.1-0.1-0.1-0.1l-0.2-0.1L69,62.2
		l-0.7-0.4l-0.4-0.3c-0.1-0.1-0.2-0.2-0.3-0.3c-0.1-0.1-0.2-0.2-0.2-0.4c-0.1-0.2-0.1-0.3-0.1-0.5c0-0.3,0-0.5,0.2-0.7
		c0.1-0.2,0.2-0.4,0.4-0.5c0.2-0.1,0.4-0.2,0.6-0.3c0.2-0.1,0.5-0.1,0.7-0.1h0.4l0.4,0.1l0.3,0.1c0.1,0,0.1,0.1,0.2,0.1
		c0,0,0.1,0.1,0.1,0.1c0,0,0,0.1,0,0.1V60c0,0,0,0.1,0,0.1c0,0-0.1,0.1-0.1,0h-0.2c-0.1-0.1-0.3-0.1-0.5-0.2
		c-0.2-0.1-0.4-0.1-0.6-0.1h-0.2c-0.1,0-0.1,0-0.2,0c-0.1,0-0.1,0.1-0.2,0.1c0,0.1-0.1,0.1-0.1,0.2c0,0.1,0,0.1,0,0.2
		c0,0,0.1,0.1,0.1,0.1l0.1,0.1l0.1,0.1l0.7,0.3c0.1,0.1,0.3,0.2,0.4,0.3c0.1,0.1,0.2,0.2,0.3,0.3c0.1,0.1,0.2,0.2,0.2,0.4
		C70.8,62.1,70.8,62.3,70.8,62.4z M76.2,63.5c0,0,0,0.1,0,0.2c0,0,0,0.1-0.1,0.1c-0.1,0.1-0.2,0.1-0.3,0.1c-0.1,0-0.3,0.1-0.4,0.1
		L75,64h-0.4c-0.3,0-0.7,0-1-0.1c-0.3-0.1-0.5-0.2-0.7-0.3c-0.2-0.1-0.3-0.3-0.5-0.5c-0.1-0.2-0.2-0.4-0.3-0.6
		c-0.1-0.2-0.1-0.4-0.2-0.5c0-0.2,0-0.3,0-0.5c0-0.2,0-0.4,0-0.5c0-0.2,0.1-0.4,0.1-0.6c0.1-0.2,0.2-0.4,0.3-0.6
		c0.1-0.2,0.3-0.4,0.5-0.5c0.2-0.2,0.5-0.3,0.8-0.3c0.3-0.1,0.7-0.1,1-0.1H75l0.4,0.1l0.4,0.1c0.1,0,0.2,0.1,0.2,0.1
		c0,0,0.1,0.1,0.1,0.1c0,0,0,0.1,0,0.1V60c0,0,0,0.1,0,0.1c0,0-0.1,0-0.1,0h-0.2L75.7,60l-0.2-0.1l-0.3-0.1h-0.3
		c-0.2,0-0.5,0-0.7,0.1c-0.2,0.1-0.3,0.2-0.4,0.4c-0.1,0.2-0.2,0.3-0.2,0.5c0,0.2-0.1,0.4-0.1,0.6c0,0.2,0,0.4,0.1,0.6
		c0,0.2,0.1,0.3,0.2,0.5c0.1,0.1,0.2,0.2,0.4,0.3c0.2,0.1,0.4,0.2,0.6,0.2c0.2,0,0.4,0,0.6-0.1c0.2,0,0.4-0.1,0.5-0.2h0.2
		c0,0,0.1,0,0.1,0c0,0,0,0.1,0,0.1L76.2,63.5L76.2,63.5z M82.4,63.8c0,0.1,0,0.1-0.1,0.2L82.2,64H81c0,0-0.1-0.1-0.1-0.2V61
		c0-0.2,0-0.3,0-0.5c0-0.1-0.1-0.2-0.1-0.3c-0.2-0.2-0.4-0.3-0.7-0.3h-0.3c-0.1,0-0.2,0-0.3,0.1c-0.2,0.1-0.3,0.3-0.3,0.5v3.3
		c0,0,0,0.1,0,0.1c0,0,0,0,0,0.1h-1.4V64l-0.1-0.1c0,0,0-0.1,0-0.1V57c0,0,0-0.1,0-0.1l0.1-0.1h1.4c0,0,0,0,0,0c0,0,0,0.1,0,0.1v2
		c0,0.1,0,0.1,0.1,0.1c0,0,0.1,0,0.1,0l0.3-0.1l0.4-0.1c0.2,0,0.3-0.1,0.5,0c0.3,0,0.5,0,0.8,0.1c0.2,0.1,0.4,0.2,0.6,0.4
		c0.1,0.1,0.1,0.2,0.2,0.3c0.1,0.1,0.1,0.2,0.1,0.3c0,0.1,0,0.3,0.1,0.4L82.4,63.8L82.4,63.8z M85.6,63.8c0,0.1,0,0.1-0.1,0.2
		c0,0-0.1,0-0.1,0h-1.3c0,0-0.1-0.1-0.1-0.2V57c0-0.1,0-0.1,0.1-0.2h1.3c0,0,0.1,0,0.1,0c0,0,0.1,0.1,0.1,0.2V63.8z M91.5,63.8
		c0,0.1,0,0.1-0.1,0.2c0,0-0.1,0-0.1,0h-1.1c0,0-0.1,0-0.1,0c0,0,0-0.1,0-0.1c0,0-0.1,0-0.1,0c-0.1,0-0.1,0-0.2,0l-0.3,0.1L89.1,64
		c-0.2,0-0.3,0-0.5,0c-0.3,0-0.6,0-0.8-0.1c-0.2-0.1-0.4-0.2-0.5-0.3c-0.1-0.1-0.2-0.3-0.3-0.5c0-0.2-0.1-0.3-0.1-0.5
		c0-0.2,0-0.4,0.1-0.6c0.1-0.2,0.2-0.3,0.3-0.5c0.1-0.1,0.3-0.3,0.4-0.3c0.2-0.1,0.5-0.2,0.7-0.3l1.1-0.3h0.2c0,0,0.1,0,0.1-0.1
		c0,0,0-0.1,0-0.1c0-0.1,0-0.1,0-0.2c0-0.1,0-0.2-0.1-0.3c-0.1,0-0.2-0.1-0.3-0.1c-0.1,0-0.3,0-0.4,0c-0.2,0-0.4,0-0.6,0
		c-0.1,0-0.3,0.1-0.4,0.1L87.8,60l-0.2,0.1h-0.2c0,0-0.1,0-0.1,0c0,0,0-0.1,0-0.1v-0.6c0,0,0-0.1,0-0.2c0,0,0.1-0.1,0.1-0.1
		c0.1-0.1,0.2-0.1,0.4-0.2l0.5-0.1l0.5-0.1h0.5c0.3,0,0.5,0,0.8,0.1c0.2,0,0.4,0.1,0.5,0.2c0.1,0,0.2,0.1,0.3,0.2l0.2,0.1
		c0.1,0.1,0.2,0.3,0.3,0.5c0,0.1,0.1,0.2,0.1,0.3c0,0.2,0,0.3,0,0.5L91.5,63.8L91.5,63.8z M90,61.5C90,61.4,90,61.4,90,61.5
		C89.9,61.4,89.9,61.4,90,61.5l-0.3-0.1l-0.6,0.2l-0.2,0.1c-0.1,0-0.2,0.1-0.2,0.1c-0.1,0.1-0.1,0.1-0.2,0.2c0,0.1-0.1,0.2-0.1,0.3
		c0,0.2,0,0.4,0.2,0.5C88.8,63,89,63,89.2,63h0.4l0.2-0.1c0.1,0,0.1-0.1,0.1-0.2c0-0.1,0.1-0.2,0.1-0.3L90,61.5L90,61.5z M97.8,63.8
		c0,0.1,0,0.1-0.1,0.2h-1.4c0,0-0.1-0.1-0.1-0.2V61c0-0.2,0-0.3,0-0.5c0-0.1-0.1-0.2-0.1-0.3c-0.2-0.2-0.4-0.3-0.7-0.3h-0.3
		c-0.1,0-0.2,0-0.3,0.1c-0.2,0.1-0.3,0.3-0.3,0.5v3.3c0,0.1,0,0.1-0.1,0.2c0,0-0.1,0-0.1,0h-1.3c0,0-0.1-0.1-0.1-0.2v-4.7
		c0-0.1,0-0.1,0.1-0.2h1.3c0,0,0.1,0,0.1,0c0,0,0,0.1,0,0.1c0,0,0,0,0,0c0,0,0.1,0,0.1,0c0.1,0,0.1,0,0.2,0L95,59
		c0.2-0.1,0.3-0.1,0.5-0.1c0.2,0,0.3-0.1,0.5-0.1c0.3,0,0.5,0,0.8,0.1c0.2,0.1,0.4,0.2,0.6,0.4c0.1,0.1,0.1,0.2,0.2,0.3
		c0.1,0.1,0.1,0.2,0.1,0.3c0,0.1,0,0.3,0.1,0.4L97.8,63.8L97.8,63.8z M104.3,63.8c0,0.1,0,0.1-0.1,0.2c0,0-0.1,0-0.1,0H103
		c0,0-0.1,0-0.1,0c0,0,0-0.1,0-0.1c0,0-0.1,0-0.1,0c-0.1,0-0.1,0-0.2,0l-0.3,0.1L102,64c-0.2,0-0.3,0-0.5,0c-0.3,0-0.7-0.1-1-0.2
		c-0.3-0.1-0.5-0.3-0.7-0.5c-0.2-0.2-0.4-0.5-0.4-0.8c-0.1-0.3-0.2-0.7-0.2-1.1c0-0.4,0-0.8,0.2-1.2c0.1-0.3,0.3-0.6,0.5-0.8
		c0.2-0.2,0.5-0.4,0.8-0.5c0.3-0.1,0.7-0.2,1-0.2c0.2,0,0.3,0,0.5,0l0.3,0.1l0.2,0.1h0.1c0.1,0,0.1,0,0.1-0.1V57
		c0-0.1,0-0.1,0.1-0.2c0,0,0.1,0,0.1,0h1.1c0,0,0.1,0,0.1,0c0,0,0.1,0.1,0.1,0.2L104.3,63.8L104.3,63.8z M102.8,60.4
		c0-0.1,0-0.2-0.1-0.3c-0.1-0.1-0.2-0.1-0.3-0.2c-0.1,0-0.1-0.1-0.2-0.1h-0.5c-0.1,0-0.2,0-0.3,0.1c-0.1,0-0.2,0.1-0.3,0.2
		c-0.1,0.1-0.2,0.2-0.2,0.3c-0.1,0.1-0.1,0.3-0.2,0.4c0,0.2-0.1,0.4-0.1,0.6c0,0.2,0,0.4,0.1,0.6c0,0.2,0.1,0.3,0.2,0.5
		c0.1,0.1,0.2,0.2,0.4,0.3c0.2,0.1,0.4,0.1,0.6,0.1h0.2c0.1,0,0.1,0,0.2-0.1l0.2-0.1c0,0,0.1-0.1,0.1-0.1c0,0,0.1-0.1,0.1-0.2
		c0-0.1,0-0.2,0-0.2L102.8,60.4L102.8,60.4z"/>
	<g id="Bildmarke">
		<linearGradient id="blau_1_" gradientUnits="userSpaceOnUse" x1="24.8063" y1="31.5121" x2="23.8419" y2="41.0583">
			<stop  offset="0.1325" style="stop-color:#102D69"/>
			<stop  offset="0.2166" style="stop-color:#113070"/>
			<stop  offset="0.4485" style="stop-color:#143880"/>
			<stop  offset="0.6638" style="stop-color:#153D8B"/>
			<stop  offset="0.8543" style="stop-color:#164092"/>
			<stop  offset="1" style="stop-color:#164194"/>
		</linearGradient>
		<polygon id="blau" class="st2" points="47.9,40.3 9,28.1 0,39.9 		"/>
		<linearGradient id="rot_1_" gradientUnits="userSpaceOnUse" x1="30.3166" y1="24.1209" x2="35.0424" y2="16.6944">
			<stop  offset="0.1496" style="stop-color:#E30613"/>
			<stop  offset="0.3283" style="stop-color:#DF0713"/>
			<stop  offset="0.5718" style="stop-color:#D30A11"/>
			<stop  offset="0.8419" style="stop-color:#C00D0D"/>
		</linearGradient>
		<polygon id="rot" class="st3" points="49.1,39.1 24.6,6.6 10.4,10.9 		"/>
		<polygon id="schwarz" points="49.6,38.7 36.3,0.3 21.5,0 		"/>
		<linearGradient id="gold_1_" gradientUnits="userSpaceOnUse" x1="25.3385" y1="33.0231" x2="28.9062" y2="24.9232">
			<stop  offset="0.1795" style="stop-color:#F8D200"/>
			<stop  offset="0.4287" style="stop-color:#F2CD00"/>
			<stop  offset="0.813" style="stop-color:#E1BF00"/>
			<stop  offset="0.9402" style="stop-color:#DABA00"/>
		</linearGradient>
		<polygon id="gold" class="st4" points="48.4,39.7 15.2,16.2 3,24.6 		"/>
	</g>
</g>
</svg>
